<svg id="Porta_off" data-name="Porta off" xmlns="http://www.w3.org/2000/svg" width="36" height="36" viewBox="0 0 36 36">
  <path id="Caminho_647" data-name="Caminho 647" d="M18,0A18,18,0,1,1,0,18,18,18,0,0,1,18,0Z" fill="#d4d4d4"/>
  <g id="Grupo_964" data-name="Grupo 964" transform="translate(10.142 3.891)">
    <rect id="Retângulo_648" data-name="Retângulo 648" width="15.755" height="23.825" rx="1.744" fill="#7d7d7d"/>
    <path id="Caminho_202" data-name="Caminho 202" d="M194.658,156.153l7.446-3.391a.55.55,0,0,1,.8.448v21.732a.55.55,0,0,1-.8.448L194.658,172a.5.5,0,0,1-.3-.448V156.6A.5.5,0,0,1,194.658,156.153Z" transform="translate(-187.964 -152.189)" fill="#d4d4d4"/>
    <ellipse id="Elipse_92" data-name="Elipse 92" cx="0.283" cy="0.551" rx="0.283" ry="0.551" transform="translate(6.985 11.281)" fill="#fff"/>
  </g>
  <g id="Grupo_977" data-name="Grupo 977" transform="translate(7.574 28.591)">
    <line id="Linha_19" data-name="Linha 19" x2="14.958" transform="translate(2.685 1.888)" fill="none" stroke="#fff" stroke-linecap="round" stroke-miterlimit="10" stroke-width="1"/>
    <path id="Caminho_241" data-name="Caminho 241" d="M185.429,179.662l2.509,1.448a.439.439,0,0,0,.659-.38v-2.9a.439.439,0,0,0-.659-.38l-2.509,1.448a.439.439,0,0,0,0,.761l2.509,1.448a.439.439,0,0,0,.659-.38v-2.9a.439.439,0,0,0-.659-.38l-2.509,1.448A.439.439,0,0,0,185.429,179.662Z" transform="translate(-185.21 -177.393)" fill="#fff"/>
    <path id="Caminho_242" data-name="Caminho 242" d="M206.245,179.662l-2.508,1.448a.439.439,0,0,1-.659-.38v-2.9a.439.439,0,0,1,.659-.38l2.508,1.448a.44.44,0,0,1,0,.761l-2.508,1.448a.439.439,0,0,1-.659-.38v-2.9a.439.439,0,0,1,.659-.38l2.508,1.448A.44.44,0,0,1,206.245,179.662Z" transform="translate(-185.574 -177.393)" fill="#fff"/>
  </g>
</svg>
