<svg xmlns="http://www.w3.org/2000/svg" xmlns:xlink="http://www.w3.org/1999/xlink" width="108" height="108" viewBox="0 0 108 108">
  <defs>
    <filter id="Caminho_53" x="0" y="0" width="108" height="108" filterUnits="userSpaceOnUse">
      <feOffset dy="3" input="SourceAlpha"/>
      <feGaussianBlur stdDeviation="3" result="blur"/>
      <feFlood flood-opacity="0.161"/>
      <feComposite operator="in" in2="blur"/>
      <feComposite in="SourceGraphic"/>
    </filter>
    <clipPath id="clip-path">
      <path id="Caminho_72" data-name="Caminho 72" d="M41.292,29.45v4.926a1.553,1.553,0,0,1-.929,1.36V28.09A1.553,1.553,0,0,1,41.292,29.45Z" transform="translate(-40.363 -28.09)" fill="none"/>
    </clipPath>
    <clipPath id="clip-path-2">
      <path id="Caminho_75" data-name="Caminho 75" d="M59.142,28.09v7.646a1.573,1.573,0,0,1-.929-1.36V29.45A1.573,1.573,0,0,1,59.142,28.09Z" transform="translate(-58.213 -28.09)" fill="none"/>
    </clipPath>
  </defs>
  <g id="Homem1" transform="translate(9 6)">
    <g id="Grupo_82" data-name="Grupo 82" transform="translate(0 0)">
      <g transform="matrix(1, 0, 0, 1, -9, -6)" filter="url(#Caminho_53)">
        <path id="Caminho_53-2" data-name="Caminho 53" d="M112.232,58.72A44.765,44.765,0,0,1,97.945,91.573a35.392,35.392,0,0,1-2.683,2.337c-.066.049-.115.1-.181.148a44.942,44.942,0,0,1-55.534.115,1.256,1.256,0,0,1-.181-.132c-.609-.477-1.185-.971-1.761-1.465A45,45,0,1,1,112.232,58.72Z" transform="translate(-13.23 -7.72)" fill="#c33"/>
      </g>
    </g>
    <g id="Grupo_86" data-name="Grupo 86" transform="translate(15.124 48.273)">
      <g id="Grupo_83" data-name="Grupo 83" transform="translate(0.007 4.341)">
        <path id="Caminho_54" data-name="Caminho 54" d="M92.379,45.86V71.005a37.12,37.12,0,0,1-2.886,2.5,45.309,45.309,0,0,1-56.146-.017c-.614-.481-1.194-.979-1.775-1.476V45.86Z" transform="translate(-31.572 -45.86)" fill="#333"/>
      </g>
      <g id="Grupo_84" data-name="Grupo 84">
        <path id="Caminho_55" data-name="Caminho 55" d="M37.1,45.643a2.6,2.6,0,0,0-2.765-2.4h0a2.6,2.6,0,0,0-2.765,2.4v2.131a2.6,2.6,0,0,0,2.765,2.4h0a2.6,2.6,0,0,0,2.765-2.4Z" transform="translate(-31.568 -43.243)" fill="#333"/>
      </g>
      <g id="Grupo_85" data-name="Grupo 85" transform="translate(55.345)">
        <path id="Caminho_56" data-name="Caminho 56" d="M70.463,45.643a2.6,2.6,0,0,0-2.763-2.4h0a2.6,2.6,0,0,0-2.765,2.4v2.131a2.6,2.6,0,0,0,2.765,2.4h0a2.6,2.6,0,0,0,2.763-2.4Z" transform="translate(-64.935 -43.243)" fill="#333"/>
      </g>
    </g>
    <g id="Grupo_94" data-name="Grupo 94" transform="translate(17.098 44.635)">
      <g id="Grupo_88" data-name="Grupo 88" transform="translate(0.002)">
        <g id="Grupo_87" data-name="Grupo 87">
          <path id="Caminho_57" data-name="Caminho 57" d="M88.9,73.676v2.853c-.066.05-.116.1-.182.149a45.29,45.29,0,0,1-55.963.116V73.676A22.148,22.148,0,0,1,44.447,54.087c.547-.3,1.742-.846,1.775-.846a23.066,23.066,0,0,0,5.888-4.147v-.017c2.256-2.289,2.438-3.981,2.438-3.981V41.05H66.722V45.1s.182,1.642,2.488,3.914c-.133.149-.249.315-.382.464a3.473,3.473,0,0,0,.4-.464,23.915,23.915,0,0,0,6.32,4.279s.68.332,1.128.531a1.688,1.688,0,0,1,.182.083A22.146,22.146,0,0,1,88.9,73.676Z" transform="translate(-32.753 -41.05)" fill="#3cf"/>
        </g>
      </g>
      <g id="Grupo_93" data-name="Grupo 93" transform="translate(0 0.006)">
        <g id="Grupo_89" data-name="Grupo 89" transform="translate(21.805)">
          <path id="Caminho_58" data-name="Caminho 58" d="M58.073,45.266V41.053H45.9V45.1" transform="translate(-45.898 -41.053)" fill="none"/>
        </g>
        <g id="Grupo_90" data-name="Grupo 90" transform="translate(0 4.041)">
          <path id="Caminho_59" data-name="Caminho 59" d="M54.563,43.656V43.49s-.182,1.692-2.438,3.981a22.892,22.892,0,0,1-5.9,4.163c-.033,0-1.227.547-1.775.846A22.148,22.148,0,0,0,32.752,72.069v3.118" transform="translate(-32.752 -43.49)" fill="none"/>
        </g>
        <g id="Grupo_91" data-name="Grupo 91" transform="translate(33.986 4.041)">
          <path id="Caminho_60" data-name="Caminho 60" d="M75.4,74.922V72.069A22.146,22.146,0,0,0,63.36,52.3a1.69,1.69,0,0,0-.182-.083c-.448-.2-1.128-.531-1.128-.531A23.915,23.915,0,0,1,55.73,47.4c-2.306-2.272-2.488-3.914-2.488-3.914" transform="translate(-53.242 -43.49)" fill="none"/>
        </g>
        <g id="Grupo_92" data-name="Grupo 92" transform="translate(19.367 7.961)">
          <path id="Caminho_61" data-name="Caminho 61" d="M44.428,45.919a10.809,10.809,0,0,0,17.1-.066" transform="translate(-44.428 -45.853)" fill="none"/>
        </g>
      </g>
    </g>
    <g id="Grupo_95" data-name="Grupo 95" transform="translate(26.654 3.775)">
      <path id="Caminho_62" data-name="Caminho 62" d="M75.172,27.927v14.5c0,6.587-8.2,11.931-18.338,11.931a24.073,24.073,0,0,1-12.958-3.493c-3.319-2.163-5.366-5.149-5.366-8.438v-14.5C38.511,21.34,46.715,16,56.834,16a28.83,28.83,0,0,1,4.654.381,22.1,22.1,0,0,1,8.32,3.113,11.687,11.687,0,0,1,4.87,5.706A7.719,7.719,0,0,1,75.172,27.927Z" transform="translate(-38.511 -15.996)" fill="#630"/>
    </g>
    <g id="Grupo_96" data-name="Grupo 96" transform="translate(30.661 5.785)">
      <path id="Caminho_63" data-name="Caminho 63" d="M69.605,31.555V43.8a14.281,14.281,0,0,1-8.26,12.971h-.017a12.934,12.934,0,0,1-2.952,1.012,13.717,13.717,0,0,1-3.118.348,14.032,14.032,0,0,1-6.087-1.36,14.473,14.473,0,0,1-4.047-2.836,14.29,14.29,0,0,1-4.2-10.134V31.555c0-.4.017-.8.05-1.178a14.319,14.319,0,0,1,19.075-12.34c.149.05.282.1.415.149a14.362,14.362,0,0,1,4.943,3.234,14.213,14.213,0,0,1,4.18,9.5C69.605,31.141,69.605,31.34,69.605,31.555Z" transform="translate(-40.927 -17.208)" fill="#fff"/>
    </g>
    <g id="Grupo_97" data-name="Grupo 97" transform="translate(36.958 24.753)">
      <ellipse id="Elipse_19" data-name="Elipse 19" cx="2.006" cy="2.006" rx="2.006" ry="2.006" fill="#333"/>
    </g>
    <g id="Grupo_98" data-name="Grupo 98" transform="translate(49.021 24.753)">
      <ellipse id="Elipse_20" data-name="Elipse 20" cx="2.006" cy="2.006" rx="2.006" ry="2.006" fill="#333"/>
    </g>
    <g id="Grupo_99" data-name="Grupo 99" transform="translate(27.002 4.739)">
      <path id="Caminho_64" data-name="Caminho 64" d="M56.574,20.569c0,6.12-4.322,11.063-9.658,11.063H43.006c-1.549,0-2.524-.722-3.813-1.468C39.745,22.8,44.954,17.3,51.9,17.3c1.564,0,3.14-.531,4.52,0A20.847,20.847,0,0,1,56.574,20.569Z" transform="translate(-38.327 -16.255)" fill="#630"/>
      <path id="Caminho_65" data-name="Caminho 65" d="M47.26,32.784H43.35a6.844,6.844,0,0,1-3.745-1.3l-.934-.544.04-.519c.59-7.9,6.281-13.631,13.531-13.631a13.036,13.036,0,0,0,1.485-.116,7.438,7.438,0,0,1,3.332.171l.418.161.095.438a19.071,19.071,0,0,1,.176,3.3C57.747,27.448,53.042,32.784,47.26,32.784ZM40.411,30.04l.041.023a5.326,5.326,0,0,0,2.9,1.062H47.26c4.87,0,8.829-4.591,8.829-10.234,0-.718,0-1.861-.071-2.617a7.823,7.823,0,0,0-2.1.053,14.891,14.891,0,0,1-1.675.126C46.04,18.453,41.134,23.294,40.411,30.04Z" transform="translate(-38.671 -16.577)" fill="#630"/>
    </g>
    <g id="Grupo_100" data-name="Grupo 100" transform="translate(27.068 23.42)">
      <path id="Caminho_66" data-name="Caminho 66" d="M42.4,29.536v4.926a1.553,1.553,0,0,1-.929,1.36,2.183,2.183,0,0,1-.929.216,1.738,1.738,0,0,1-1.858-1.576V29.536a1.738,1.738,0,0,1,1.858-1.576,2.183,2.183,0,0,1,.929.216A1.553,1.553,0,0,1,42.4,29.536Z" transform="translate(-38.683 -27.96)" fill="#fff"/>
    </g>
    <g id="Grupo_101" data-name="Grupo 101" transform="translate(59.203 23.42)">
      <path id="Caminho_67" data-name="Caminho 67" d="M61.945,29.536v4.926a1.738,1.738,0,0,1-1.858,1.576,2.2,2.2,0,0,1-.945-.216,1.573,1.573,0,0,1-.929-1.36V29.536a1.573,1.573,0,0,1,.929-1.36,2.2,2.2,0,0,1,.945-.216A1.738,1.738,0,0,1,61.945,29.536Z" transform="translate(-58.213 -27.96)" fill="#fff"/>
    </g>
    <g id="Grupo_102" data-name="Grupo 102" transform="translate(44.08 4.738)">
      <path id="Caminho_68" data-name="Caminho 68" d="M49.568,20.569c0,6.12,4.251,11.063,9.5,11.063H62.91a8.311,8.311,0,0,0,4.236-1.161C66.6,23.107,61,17.3,54.166,17.3c-1.538,0-2.911-.531-4.268,0A21.177,21.177,0,0,0,49.568,20.569Z" transform="translate(-48.74 -16.254)" fill="#630"/>
      <path id="Caminho_69" data-name="Caminho 69" d="M63.241,32.784H59.394c-5.693,0-10.325-5.336-10.325-11.893a21.755,21.755,0,0,1,.347-3.44l.091-.438.418-.163a6.655,6.655,0,0,1,3.145-.174,11.622,11.622,0,0,0,1.425.118c7.167,0,13.233,6.122,13.808,13.938l.038.514-.445.262A9.186,9.186,0,0,1,63.241,32.784ZM50.953,18.272a21.42,21.42,0,0,0-.226,2.619c0,5.643,3.886,10.234,8.667,10.234h3.846a7.5,7.5,0,0,0,3.359-.8c-.735-6.7-5.963-11.873-12.1-11.873a13.164,13.164,0,0,1-1.625-.129A6.738,6.738,0,0,0,50.953,18.272Z" transform="translate(-49.069 -16.577)" fill="#630"/>
    </g>
    <g id="Grupo_105" data-name="Grupo 105" transform="translate(29.84 23.635)">
      <g id="Grupo_104" data-name="Grupo 104">
        <g id="Grupo_103" data-name="Grupo 103" clip-path="url(#clip-path)">
          <path id="Caminho_70" data-name="Caminho 70" d="M40.363,28.09v0Z" transform="translate(-40.363 -28.09)" fill="#fff"/>
          <rect id="Retângulo_309" data-name="Retângulo 309" width="0.018" height="7.646" transform="translate(0.001 0)" fill="#fff"/>
          <rect id="Retângulo_310" data-name="Retângulo 310" width="0.018" height="7.646" transform="translate(0.019 0)" fill="#fefefe"/>
          <rect id="Retângulo_311" data-name="Retângulo 311" width="0.018" height="7.646" transform="translate(0.037 0)" fill="#fdfdfd"/>
          <rect id="Retângulo_312" data-name="Retângulo 312" width="0.018" height="7.646" transform="translate(0.055 0)" fill="#fcfcfc"/>
          <rect id="Retângulo_313" data-name="Retângulo 313" width="0.018" height="7.646" transform="translate(0.073 0)" fill="#fbfbfb"/>
          <rect id="Retângulo_314" data-name="Retângulo 314" width="0.018" height="7.646" transform="translate(0.092 0)" fill="#fafafa"/>
          <rect id="Retângulo_315" data-name="Retângulo 315" width="0.018" height="7.646" transform="translate(0.11 0)" fill="#f9f9f9"/>
          <rect id="Retângulo_316" data-name="Retângulo 316" width="0.018" height="7.646" transform="translate(0.128 0)" fill="#f8f8f8"/>
          <rect id="Retângulo_317" data-name="Retângulo 317" width="0.018" height="7.646" transform="translate(0.146 0)" fill="#f7f7f7"/>
          <rect id="Retângulo_318" data-name="Retângulo 318" width="0.018" height="7.646" transform="translate(0.165 0)" fill="#f6f6f6"/>
          <rect id="Retângulo_319" data-name="Retângulo 319" width="0.018" height="7.646" transform="translate(0.183 0)" fill="#f5f5f5"/>
          <rect id="Retângulo_320" data-name="Retângulo 320" width="0.018" height="7.646" transform="translate(0.201 0)" fill="#f4f4f4"/>
          <rect id="Retângulo_321" data-name="Retângulo 321" width="0.018" height="7.646" transform="translate(0.219 0)" fill="#f3f3f3"/>
          <rect id="Retângulo_322" data-name="Retângulo 322" width="0.018" height="7.646" transform="translate(0.237 0)" fill="#f2f2f2"/>
          <rect id="Retângulo_323" data-name="Retângulo 323" width="0.018" height="7.646" transform="translate(0.256 0)" fill="#f1f1f1"/>
          <rect id="Retângulo_324" data-name="Retângulo 324" width="0.018" height="7.646" transform="translate(0.274 0)" fill="#f0f0f0"/>
          <rect id="Retângulo_325" data-name="Retângulo 325" width="0.018" height="7.646" transform="translate(0.292 0)" fill="#efefef"/>
          <rect id="Retângulo_326" data-name="Retângulo 326" width="0.018" height="7.646" transform="translate(0.31 0)" fill="#eee"/>
          <rect id="Retângulo_327" data-name="Retângulo 327" width="0.018" height="7.646" transform="translate(0.328 0)" fill="#ededed"/>
          <rect id="Retângulo_328" data-name="Retângulo 328" width="0.018" height="7.646" transform="translate(0.347 0)" fill="#ececec"/>
          <rect id="Retângulo_329" data-name="Retângulo 329" width="0.018" height="7.646" transform="translate(0.365 0)" fill="#ebebeb"/>
          <rect id="Retângulo_330" data-name="Retângulo 330" width="0.018" height="7.646" transform="translate(0.383 0)" fill="#eaeaea"/>
          <rect id="Retângulo_331" data-name="Retângulo 331" width="0.018" height="7.646" transform="translate(0.401 0)" fill="#e9e9e9"/>
          <rect id="Retângulo_332" data-name="Retângulo 332" width="0.018" height="7.646" transform="translate(0.419 0)" fill="#e8e8e8"/>
          <rect id="Retângulo_333" data-name="Retângulo 333" width="0.018" height="7.646" transform="translate(0.438 0)" fill="#e7e7e7"/>
          <rect id="Retângulo_334" data-name="Retângulo 334" width="0.018" height="7.646" transform="translate(0.456 0)" fill="#e6e6e6"/>
          <rect id="Retângulo_335" data-name="Retângulo 335" width="0.018" height="7.646" transform="translate(0.474 0)" fill="#e4e4e4"/>
          <rect id="Retângulo_336" data-name="Retângulo 336" width="0.018" height="7.646" transform="translate(0.492 0)" fill="#e3e3e3"/>
          <rect id="Retângulo_337" data-name="Retângulo 337" width="0.018" height="7.646" transform="translate(0.511 0)" fill="#e2e2e2"/>
          <rect id="Retângulo_338" data-name="Retângulo 338" width="0.018" height="7.646" transform="translate(0.529 0)" fill="#e1e1e1"/>
          <rect id="Retângulo_339" data-name="Retângulo 339" width="0.018" height="7.646" transform="translate(0.547 0)" fill="#e0e0e0"/>
          <rect id="Retângulo_340" data-name="Retângulo 340" width="0.018" height="7.646" transform="translate(0.565 0)" fill="#dfdfdf"/>
          <rect id="Retângulo_341" data-name="Retângulo 341" width="0.018" height="7.646" transform="translate(0.583 0)" fill="#dedede"/>
          <rect id="Retângulo_342" data-name="Retângulo 342" width="0.018" height="7.646" transform="translate(0.602 0)" fill="#ddd"/>
          <rect id="Retângulo_343" data-name="Retângulo 343" width="0.018" height="7.646" transform="translate(0.62 0)" fill="#dcdcdc"/>
          <rect id="Retângulo_344" data-name="Retângulo 344" width="0.018" height="7.646" transform="translate(0.638 0)" fill="#dbdbdb"/>
          <rect id="Retângulo_345" data-name="Retângulo 345" width="0.018" height="7.646" transform="translate(0.656 0)" fill="#dadada"/>
          <rect id="Retângulo_346" data-name="Retângulo 346" width="0.018" height="7.646" transform="translate(0.674 0)" fill="#d9d9d9"/>
          <rect id="Retângulo_347" data-name="Retângulo 347" width="0.018" height="7.646" transform="translate(0.693 0)" fill="#d8d8d8"/>
          <rect id="Retângulo_348" data-name="Retângulo 348" width="0.018" height="7.646" transform="translate(0.711 0)" fill="#d7d7d7"/>
          <rect id="Retângulo_349" data-name="Retângulo 349" width="0.018" height="7.646" transform="translate(0.729 0)" fill="#d6d6d6"/>
          <rect id="Retângulo_350" data-name="Retângulo 350" width="0.018" height="7.646" transform="translate(0.747 0)" fill="#d5d5d5"/>
          <rect id="Retângulo_351" data-name="Retângulo 351" width="0.018" height="7.646" transform="translate(0.766 0)" fill="#d4d4d4"/>
          <rect id="Retângulo_352" data-name="Retângulo 352" width="0.018" height="7.646" transform="translate(0.784 0)" fill="#d3d3d3"/>
          <rect id="Retângulo_353" data-name="Retângulo 353" width="0.018" height="7.646" transform="translate(0.802 0)" fill="#d2d2d2"/>
          <rect id="Retângulo_354" data-name="Retângulo 354" width="0.018" height="7.646" transform="translate(0.82 0)" fill="#d1d1d1"/>
          <rect id="Retângulo_355" data-name="Retângulo 355" width="0.018" height="7.646" transform="translate(0.838 0)" fill="#d0d0d0"/>
          <rect id="Retângulo_356" data-name="Retângulo 356" width="0.018" height="7.646" transform="translate(0.857 0)" fill="#cfcfcf"/>
          <rect id="Retângulo_357" data-name="Retângulo 357" width="0.018" height="7.646" transform="translate(0.875 0)" fill="#cecece"/>
          <rect id="Retângulo_358" data-name="Retângulo 358" width="0.018" height="7.646" transform="translate(0.893 0)" fill="#cdcdcd"/>
          <rect id="Retângulo_359" data-name="Retângulo 359" width="0.018" height="7.646" transform="translate(0.911 0)" fill="#ccc"/>
          <path id="Caminho_71" data-name="Caminho 71" d="M40.923,35.736v0Z" transform="translate(-39.994 -28.09)" fill="#ccc"/>
        </g>
      </g>
    </g>
    <g id="Grupo_108" data-name="Grupo 108" transform="translate(59.218 23.635)">
      <g id="Grupo_107" data-name="Grupo 107">
        <g id="Grupo_106" data-name="Grupo 106" clip-path="url(#clip-path-2)">
          <path id="Caminho_73" data-name="Caminho 73" d="M58.213,28.09v0Z" transform="translate(-58.213 -28.09)" fill="#ccc"/>
          <rect id="Retângulo_360" data-name="Retângulo 360" width="0.018" height="7.646" transform="translate(0.001 0)" fill="#ccc"/>
          <rect id="Retângulo_361" data-name="Retângulo 361" width="0.018" height="7.646" transform="translate(0.019 0)" fill="#cdcdcd"/>
          <rect id="Retângulo_362" data-name="Retângulo 362" width="0.018" height="7.646" transform="translate(0.037 0)" fill="#cecece"/>
          <rect id="Retângulo_363" data-name="Retângulo 363" width="0.018" height="7.646" transform="translate(0.055 0)" fill="#cfcfcf"/>
          <rect id="Retângulo_364" data-name="Retângulo 364" width="0.018" height="7.646" transform="translate(0.073 0)" fill="#d0d0d0"/>
          <rect id="Retângulo_365" data-name="Retângulo 365" width="0.018" height="7.646" transform="translate(0.092 0)" fill="#d1d1d1"/>
          <rect id="Retângulo_366" data-name="Retângulo 366" width="0.018" height="7.646" transform="translate(0.11 0)" fill="#d2d2d2"/>
          <rect id="Retângulo_367" data-name="Retângulo 367" width="0.018" height="7.646" transform="translate(0.128 0)" fill="#d3d3d3"/>
          <rect id="Retângulo_368" data-name="Retângulo 368" width="0.018" height="7.646" transform="translate(0.146 0)" fill="#d4d4d4"/>
          <rect id="Retângulo_369" data-name="Retângulo 369" width="0.018" height="7.646" transform="translate(0.164 0)" fill="#d5d5d5"/>
          <rect id="Retângulo_370" data-name="Retângulo 370" width="0.018" height="7.646" transform="translate(0.183 0)" fill="#d6d6d6"/>
          <rect id="Retângulo_371" data-name="Retângulo 371" width="0.018" height="7.646" transform="translate(0.201 0)" fill="#d7d7d7"/>
          <rect id="Retângulo_372" data-name="Retângulo 372" width="0.018" height="7.646" transform="translate(0.219 0)" fill="#d8d8d8"/>
          <rect id="Retângulo_373" data-name="Retângulo 373" width="0.018" height="7.646" transform="translate(0.237 0)" fill="#d9d9d9"/>
          <rect id="Retângulo_374" data-name="Retângulo 374" width="0.018" height="7.646" transform="translate(0.256 0)" fill="#dadada"/>
          <rect id="Retângulo_375" data-name="Retângulo 375" width="0.018" height="7.646" transform="translate(0.274 0)" fill="#dbdbdb"/>
          <rect id="Retângulo_376" data-name="Retângulo 376" width="0.018" height="7.646" transform="translate(0.292 0)" fill="#dcdcdc"/>
          <rect id="Retângulo_377" data-name="Retângulo 377" width="0.018" height="7.646" transform="translate(0.31 0)" fill="#ddd"/>
          <rect id="Retângulo_378" data-name="Retângulo 378" width="0.018" height="7.646" transform="translate(0.328 0)" fill="#dedede"/>
          <rect id="Retângulo_379" data-name="Retângulo 379" width="0.018" height="7.646" transform="translate(0.347 0)" fill="#dfdfdf"/>
          <rect id="Retângulo_380" data-name="Retângulo 380" width="0.018" height="7.646" transform="translate(0.365 0)" fill="#e0e0e0"/>
          <rect id="Retângulo_381" data-name="Retângulo 381" width="0.018" height="7.646" transform="translate(0.383 0)" fill="#e1e1e1"/>
          <rect id="Retângulo_382" data-name="Retângulo 382" width="0.018" height="7.646" transform="translate(0.401 0)" fill="#e2e2e2"/>
          <rect id="Retângulo_383" data-name="Retângulo 383" width="0.018" height="7.646" transform="translate(0.419 0)" fill="#e3e3e3"/>
          <rect id="Retângulo_384" data-name="Retângulo 384" width="0.018" height="7.646" transform="translate(0.438 0)" fill="#e4e4e4"/>
          <rect id="Retângulo_385" data-name="Retângulo 385" width="0.018" height="7.646" transform="translate(0.456 0)" fill="#e6e6e6"/>
          <rect id="Retângulo_386" data-name="Retângulo 386" width="0.018" height="7.646" transform="translate(0.474 0)" fill="#e7e7e7"/>
          <rect id="Retângulo_387" data-name="Retângulo 387" width="0.018" height="7.646" transform="translate(0.492 0)" fill="#e8e8e8"/>
          <rect id="Retângulo_388" data-name="Retângulo 388" width="0.018" height="7.646" transform="translate(0.511 0)" fill="#e9e9e9"/>
          <rect id="Retângulo_389" data-name="Retângulo 389" width="0.018" height="7.646" transform="translate(0.529 0)" fill="#eaeaea"/>
          <rect id="Retângulo_390" data-name="Retângulo 390" width="0.018" height="7.646" transform="translate(0.547 0)" fill="#ebebeb"/>
          <rect id="Retângulo_391" data-name="Retângulo 391" width="0.018" height="7.646" transform="translate(0.565 0)" fill="#ececec"/>
          <rect id="Retângulo_392" data-name="Retângulo 392" width="0.018" height="7.646" transform="translate(0.583 0)" fill="#ededed"/>
          <rect id="Retângulo_393" data-name="Retângulo 393" width="0.018" height="7.646" transform="translate(0.602 0)" fill="#eee"/>
          <rect id="Retângulo_394" data-name="Retângulo 394" width="0.018" height="7.646" transform="translate(0.62 0)" fill="#efefef"/>
          <rect id="Retângulo_395" data-name="Retângulo 395" width="0.018" height="7.646" transform="translate(0.638 0)" fill="#f0f0f0"/>
          <rect id="Retângulo_396" data-name="Retângulo 396" width="0.018" height="7.646" transform="translate(0.656 0)" fill="#f1f1f1"/>
          <rect id="Retângulo_397" data-name="Retângulo 397" width="0.018" height="7.646" transform="translate(0.674 0)" fill="#f2f2f2"/>
          <rect id="Retângulo_398" data-name="Retângulo 398" width="0.018" height="7.646" transform="translate(0.693 0)" fill="#f3f3f3"/>
          <rect id="Retângulo_399" data-name="Retângulo 399" width="0.018" height="7.646" transform="translate(0.711 0)" fill="#f4f4f4"/>
          <rect id="Retângulo_400" data-name="Retângulo 400" width="0.018" height="7.646" transform="translate(0.729 0)" fill="#f5f5f5"/>
          <rect id="Retângulo_401" data-name="Retângulo 401" width="0.018" height="7.646" transform="translate(0.747 0)" fill="#f6f6f6"/>
          <rect id="Retângulo_402" data-name="Retângulo 402" width="0.018" height="7.646" transform="translate(0.765 0)" fill="#f7f7f7"/>
          <rect id="Retângulo_403" data-name="Retângulo 403" width="0.018" height="7.646" transform="translate(0.784 0)" fill="#f8f8f8"/>
          <rect id="Retângulo_404" data-name="Retângulo 404" width="0.018" height="7.646" transform="translate(0.802 0)" fill="#f9f9f9"/>
          <rect id="Retângulo_405" data-name="Retângulo 405" width="0.018" height="7.646" transform="translate(0.82 0)" fill="#fafafa"/>
          <rect id="Retângulo_406" data-name="Retângulo 406" width="0.018" height="7.646" transform="translate(0.838 0)" fill="#fbfbfb"/>
          <rect id="Retângulo_407" data-name="Retângulo 407" width="0.018" height="7.646" transform="translate(0.857 0)" fill="#fcfcfc"/>
          <rect id="Retângulo_408" data-name="Retângulo 408" width="0.018" height="7.646" transform="translate(0.875 0)" fill="#fdfdfd"/>
          <rect id="Retângulo_409" data-name="Retângulo 409" width="0.018" height="7.646" transform="translate(0.893 0)" fill="#fefefe"/>
          <rect id="Retângulo_410" data-name="Retângulo 410" width="0.018" height="7.646" transform="translate(0.911 0)" fill="#fff"/>
          <path id="Caminho_74" data-name="Caminho 74" d="M58.773,35.736v0Z" transform="translate(-57.844 -28.09)" fill="#fff"/>
        </g>
      </g>
    </g>
  </g>
</svg>
