<svg xmlns="http://www.w3.org/2000/svg" xmlns:xlink="http://www.w3.org/1999/xlink" width="108" height="108" viewBox="0 0 108 108">
  <defs>
    <filter id="Caminho_76" x="0" y="0" width="108" height="108" filterUnits="userSpaceOnUse">
      <feOffset dy="3" input="SourceAlpha"/>
      <feGaussianBlur stdDeviation="3" result="blur"/>
      <feFlood flood-opacity="0.161"/>
      <feComposite operator="in" in2="blur"/>
      <feComposite in="SourceGraphic"/>
    </filter>
  </defs>
  <g id="Mulher2" transform="translate(9 6)">
    <g id="Grupo_110" data-name="Grupo 110" transform="translate(0 0)">
      <g transform="matrix(1, 0, 0, 1, -9, -6)" filter="url(#Caminho_76)">
        <path id="Caminho_76-2" data-name="Caminho 76" d="M183.493,135.285a44.567,44.567,0,0,1-7.769,25.249,42.992,42.992,0,0,1-8.46,9.316c-.214.2-.428.379-.658.56-.033.016-.049.049-.082.066a44.162,44.162,0,0,1-8.46,5.333h-.016c-1,.494-2.025.955-3.061,1.366a45.047,45.047,0,0,1-44.095-6.37c-.033-.016-.049-.049-.082-.066a44.993,44.993,0,1,1,72.685-35.454Z" transform="translate(-84.49 -84.28)" fill="#c33"/>
      </g>
    </g>
    <g id="Grupo_111" data-name="Grupo 111" transform="translate(28.005 4.709)">
      <path id="Caminho_77" data-name="Caminho 77" d="M145.137,108.293v18.452a13.717,13.717,0,0,1-1.448,6.082c-.017.042-.05.072-.067.112v.01a.567.567,0,0,1-.083.13v.01a13.5,13.5,0,0,1-1.93,2.8c-.2.241-.416.473-.632.694-.15.16-.3.311-.449.461a18.987,18.987,0,0,1-24.862.421,14.332,14.332,0,0,1-5.026-10.55.81.81,0,0,1-.017-.2V108.293a14.531,14.531,0,0,1,.166-2.1c.05-.381.133-.752.216-1.123a4.3,4.3,0,0,1,.133-.473,9.146,9.146,0,0,1,.383-1.145,13.127,13.127,0,0,1,1.647-3.1,5.287,5.287,0,0,1,.416-.591l.017-.022c.216-.26.433-.531.666-.782.1-.12.216-.231.316-.341.166-.181.333-.361.516-.533a17.466,17.466,0,0,1,3.911-2.8,18.829,18.829,0,0,1,8.787-2.168c.383,0,.732.01,1.1.03.4.02.8.05,1.182.09s.765.092,1.148.151c.2.03.383.07.566.11.166.03.316.06.466.092a18.149,18.149,0,0,1,4.593,1.736,15.153,15.153,0,0,1,3.228,2.218c.2.171.383.351.566.542l.716.722c.05.052.083.092.133.141.25.271.466.543.7.834a14.567,14.567,0,0,1,1.781,3.01,12.361,12.361,0,0,1,.666,1.847c.017.05.033.111.05.161A13.5,13.5,0,0,1,145.137,108.293Z" transform="translate(-110.623 -93.115)" fill="#c96"/>
    </g>
    <g id="Grupo_120" data-name="Grupo 120" transform="translate(17.085 44.506)">
      <g id="Grupo_114" data-name="Grupo 114" transform="translate(0 0)">
        <g id="Grupo_112" data-name="Grupo 112" transform="translate(0 7.984)">
          <path id="Caminho_78" data-name="Caminho 78" d="M160.393,147.17v2.779c-.033.017-.05.05-.083.067a44.65,44.65,0,0,1-8.554,5.392h-.017c-1.015.5-2.047.965-3.1,1.381a45.544,45.544,0,0,1-44.582-6.44V147.17a22.22,22.22,0,0,1,11.732-19.653c.549-.3,1.747-.849,1.781-.849a22.966,22.966,0,0,0,5.924-4.177,10.845,10.845,0,0,0,17.157-.067,23.6,23.6,0,0,0,6.34,4.293s.682.333,1.132.533a1.693,1.693,0,0,1,.183.083,22.294,22.294,0,0,1,10.035,10.451c.133.283.25.566.366.865a21.824,21.824,0,0,1,1.647,7.538A9.516,9.516,0,0,1,160.393,147.17Z" transform="translate(-104.063 -122.425)" fill="#3cf"/>
        </g>
        <g id="Grupo_113" data-name="Grupo 113" transform="translate(19.445)">
          <path id="Caminho_79" data-name="Caminho 79" d="M130.409,121.687s.183,1.647,2.5,3.927a10.845,10.845,0,0,1-17.157.067c2.263-2.3,2.446-3.994,2.446-3.994v-4.06h12.215Z" transform="translate(-115.748 -117.627)" fill="#3cf"/>
        </g>
      </g>
      <g id="Grupo_119" data-name="Grupo 119" transform="translate(19.445)">
        <g id="Grupo_115" data-name="Grupo 115" transform="translate(2.445)">
          <path id="Caminho_80" data-name="Caminho 80" d="M129.432,121.854v-4.227H117.218v4.06" transform="translate(-117.218 -117.627)" fill="#3cf"/>
        </g>
        <g id="Grupo_118" data-name="Grupo 118" transform="translate(0 7.988)">
          <path id="Caminho_83" data-name="Caminho 83" d="M115.748,122.552c1.98,4.775,5.076,7.833,8.554,7.833,3.511,0,6.623-3.121,8.6-7.958" transform="translate(-115.748 -122.427)" fill="#3cf"/>
        </g>
      </g>
    </g>
    <g id="Grupo_121" data-name="Grupo 121" transform="translate(30.715 5.813)">
      <path id="Caminho_84" data-name="Caminho 84" d="M141.022,108.173v12.281a14.328,14.328,0,0,1-8.287,13.013h-.017a12.976,12.976,0,0,1-2.962,1.015,13.763,13.763,0,0,1-3.129.349,14.078,14.078,0,0,1-6.107-1.365,14.521,14.521,0,0,1-4.06-2.846,14.337,14.337,0,0,1-4.21-10.168V108.173c0-.4.017-.8.05-1.182A14.366,14.366,0,0,1,131.437,94.61c.15.05.283.1.416.15A14.41,14.41,0,0,1,136.812,98a14.26,14.26,0,0,1,4.194,9.535C141.022,107.757,141.022,107.956,141.022,108.173Z" transform="translate(-112.25 -93.778)" fill="#fff"/>
    </g>
    <g id="Grupo_122" data-name="Grupo 122" transform="translate(37.054 24.758)">
      <ellipse id="Elipse_21" data-name="Elipse 21" cx="2.013" cy="2.013" rx="2.013" ry="2.013" fill="#333"/>
    </g>
    <g id="Grupo_123" data-name="Grupo 123" transform="translate(49.115 24.758)">
      <ellipse id="Elipse_22" data-name="Elipse 22" cx="2.013" cy="2.013" rx="2.013" ry="2.013" fill="#333"/>
    </g>
    <g id="Grupo_128" data-name="Grupo 128" transform="translate(44.076 4.706)">
      <path id="Caminho_86" data-name="Caminho 86" d="M126.6,107.6v24.379H123.95a63.237,63.237,0,0,0-.034-8.121c-.017-.383-.052-.765-.086-1.132a6.255,6.255,0,0,1-.086-.8c0-24.233-9.321-19.454-9.321-19.454l-.436-10.283c.172.05-4.711-.683-4.556-.633,1.707.632,8.348,2.4,9.8,3.662a17.985,17.985,0,0,1,3.344,3.678c.207.283.4.582.586.9l.741,1.2c.052.083.086.15.138.233.259.449.483.9.724,1.381A29.791,29.791,0,0,1,126.6,107.6Z" transform="translate(-109.427 -91.554)" fill="#c96"/>
    </g>
    <g id="Grupo_129" data-name="Grupo 129" transform="translate(52.403 21.493)">
      <path id="Caminho_87" data-name="Caminho 87" d="M134.331,103.415s.965,14.14,5.542,19.37-6.2,9.949-13.783,10.212c0,0,9.741-16.117,6.433-29.583Z" transform="translate(-125.403 -103.415)" fill="#c96"/>
    </g>
    <g id="Grupo_130" data-name="Grupo 130" transform="translate(28.992 4.709)">
      <path id="Caminho_88" data-name="Caminho 88" d="M131.432,93.747v10.289s-13.641-8.217-16.658,18.9c-.07.634-.15,1.281-.2,1.947-.083.732-.133,1.481-.166,2.263-.033.8-.05,1.631-.05,2.48l-3.2-.732V110.255c.4-1.831-.005-4.907.677-6.5.116-.333.653-.294.8-.61l-.514.289c.216-.433.731-.837.964-1.253.1-.2.543-.749.643-.932.166-.3.62-.3.8-.578,1.148-1.814,2.665-2.693,4.113-3.957a13.352,13.352,0,0,1,8.787-3.594c.383,0,.732.017,1.1.05.4.033.8.083,1.182.15s.765.15,1.148.25A5.624,5.624,0,0,1,131.432,93.747Z" transform="translate(-111.163 -93.115)" fill="#c96"/>
    </g>
    <g id="Grupo_131" data-name="Grupo 131" transform="translate(22.517 21.493)">
      <path id="Caminho_89" data-name="Caminho 89" d="M113.792,103.415s-.965,14.14-5.541,19.37,6.218,10.241,13.8,10.5c0,0-9.756-16.408-6.448-29.874Z" transform="translate(-107.204 -103.415)" fill="#c96"/>
    </g>
  </g>
</svg>
