<svg xmlns="http://www.w3.org/2000/svg" xmlns:xlink="http://www.w3.org/1999/xlink" width="108" height="108" viewBox="0 0 108 108">
  <defs>
    <filter id="Caminho_1" x="0" y="0" width="108" height="108" filterUnits="userSpaceOnUse">
      <feOffset dy="3" input="SourceAlpha"/>
      <feGaussianBlur stdDeviation="3" result="blur"/>
      <feFlood flood-opacity="0.161"/>
      <feComposite operator="in" in2="blur"/>
      <feComposite in="SourceGraphic"/>
    </filter>
    <clipPath id="clip-path">
      <path id="Caminho_16" data-name="Caminho 16" d="M41.682,106.018v4.913a1.517,1.517,0,0,1-.989,1.368V104.65A1.517,1.517,0,0,1,41.682,106.018Z" transform="translate(-40.693 -104.65)" fill="none"/>
    </clipPath>
    <clipPath id="clip-path-2">
      <path id="Caminho_19" data-name="Caminho 19" d="M59.476,104.67v7.583a1.521,1.521,0,0,1-.923-1.335v-4.913A1.521,1.521,0,0,1,59.476,104.67Z" transform="translate(-58.553 -104.67)" fill="none"/>
    </clipPath>
  </defs>
  <g id="Mulher3" transform="translate(9 6)">
    <g id="Grupo_1" data-name="Grupo 1" transform="translate(0 0)">
      <g transform="matrix(1, 0, 0, 1, -9, -6)" filter="url(#Caminho_1)">
        <path id="Caminho_1-2" data-name="Caminho 1" d="M112.562,135.285a45,45,0,1,1-45-45A44.855,44.855,0,0,1,112.562,135.285Z" transform="translate(-13.56 -84.28)" fill="#3cf"/>
      </g>
    </g>
    <g id="Grupo_10" data-name="Grupo 10" transform="translate(17.273 44.935)">
      <g id="Grupo_3" data-name="Grupo 3" transform="translate(0 0.002)">
        <g id="Grupo_2" data-name="Grupo 2">
          <path id="Caminho_2" data-name="Caminho 2" d="M88.886,150.057v2.819a45.065,45.065,0,0,1-55.8.264v-3.083a22.044,22.044,0,0,1,5.852-15.018c.346-.363.676-.709,1.039-1.039a21.141,21.141,0,0,1,3.462-2.687c.412-.247.841-.495,1.269-.725.544-.3,1.731-.841,1.764-.841a24.979,24.979,0,0,0,4.83-3.165c.165-.148.33-.3.478-.445.2-.181.379-.363.56-.544a8.46,8.46,0,0,0,2.374-3.693l.049-.247V117.63h12.1v4.022s.181,1.632,2.473,3.891c.115.115.231.231.363.346s.264.231.4.363h.016v.016a.016.016,0,0,1,.016.016h.016c.3.264.61.511.956.775.462.346.973.709,1.55,1.072a6.41,6.41,0,0,0,.659.412c.231.148.478.28.725.412q.742.42,1.583.841s.165.082.4.181c.214.1.511.231.725.33a1.057,1.057,0,0,1,.181.1A22.01,22.01,0,0,1,88.886,150.057Z" transform="translate(-33.083 -117.63)" fill="#c33"/>
        </g>
      </g>
      <g id="Grupo_9" data-name="Grupo 9">
        <g id="Grupo_4" data-name="Grupo 4" transform="translate(21.676)">
          <path id="Caminho_3" data-name="Caminho 3" d="M58.332,121.816v-4.187h-12.1v4.022Z" transform="translate(-46.232 -117.629)" fill="#c33"/>
        </g>
        <g id="Grupo_5" data-name="Grupo 5" transform="translate(0 8.558)">
          <path id="Caminho_4" data-name="Caminho 4" d="M51.3,123.216l.445-.4L33.083,149.773v-3.083a22.044,22.044,0,0,1,5.852-15.018c.346-.363.676-.709,1.039-1.039a21.142,21.142,0,0,1,3.462-2.687c.412-.247.841-.495,1.269-.725.544-.3,1.731-.841,1.764-.841A24.979,24.979,0,0,0,51.3,123.216Z" transform="translate(-33.083 -122.82)" fill="#c33"/>
        </g>
        <g id="Grupo_6" data-name="Grupo 6" transform="translate(18.694 7.965)">
          <path id="Caminho_5" data-name="Caminho 5" d="M44.423,123c.2-.181.379-.363.561-.544v.016C44.8,122.658,44.621,122.839,44.423,123Z" transform="translate(-44.423 -122.46)" fill="#c33"/>
        </g>
        <g id="Grupo_7" data-name="Grupo 7" transform="translate(21.629 4.025)">
          <path id="Caminho_6" data-name="Caminho 6" d="M46.252,120.07v.165l-.049.082Z" transform="translate(-46.203 -120.07)" fill="#c33"/>
        </g>
        <g id="Grupo_8" data-name="Grupo 8" transform="translate(37.059 8.657)">
          <path id="Caminho_7" data-name="Caminho 7" d="M74.307,146.652v2.819L55.563,122.88c.3.264.61.511.956.775a18.013,18.013,0,0,0,1.55,1.072,6.409,6.409,0,0,0,.659.412c.231.132.462.28.725.412q.742.42,1.583.841s.165.082.4.181c.214.115.511.247.725.346a1.679,1.679,0,0,1,.181.082A22.01,22.01,0,0,1,74.307,146.652Z" transform="translate(-55.563 -122.88)" fill="#c33"/>
        </g>
      </g>
    </g>
    <g id="Grupo_11" data-name="Grupo 11" transform="translate(27.125 23.459)">
      <path id="Caminho_8" data-name="Caminho 8" d="M42.752,106.09V111a1.517,1.517,0,0,1-.989,1.368,2.1,2.1,0,0,1-.857.181A1.731,1.731,0,0,1,39.043,111V106.09a1.731,1.731,0,0,1,1.863-1.55,2.1,2.1,0,0,1,.857.181A1.517,1.517,0,0,1,42.752,106.09Z" transform="translate(-39.043 -104.54)" fill="#fff"/>
    </g>
    <g id="Grupo_12" data-name="Grupo 12" transform="translate(59.235 23.459)">
      <path id="Caminho_9" data-name="Caminho 9" d="M62.246,106.09V111a1.715,1.715,0,0,1-1.846,1.55,2.17,2.17,0,0,1-.923-.214A1.521,1.521,0,0,1,58.553,111V106.09a1.521,1.521,0,0,1,.923-1.335,2.17,2.17,0,0,1,.923-.214A1.715,1.715,0,0,1,62.246,106.09Z" transform="translate(-58.553 -104.54)" fill="#fff"/>
    </g>
    <g id="Grupo_13" data-name="Grupo 13" transform="translate(36.525 52.905)">
      <path id="Caminho_10" data-name="Caminho 10" d="M44.761,122.5a10.743,10.743,0,0,0,17-.066" transform="translate(-44.761 -122.43)" fill="none"/>
    </g>
    <g id="Grupo_15" data-name="Grupo 15" transform="translate(30.757 5.753)">
      <path id="Caminho_12" data-name="Caminho 12" d="M69.765,108.035V120.2a14.194,14.194,0,0,1-8.21,12.891h-.016A12.855,12.855,0,0,1,58.6,134.1a13.633,13.633,0,0,1-3.1.346,13.946,13.946,0,0,1-6.05-1.352,14.386,14.386,0,0,1-4.022-2.819A14.2,14.2,0,0,1,41.262,120.2V107.969c0-.379.016-.742.049-1.1a9.2,9.2,0,0,1,.132-.94A14.207,14.207,0,0,1,60.27,94.6c.148.049.28.1.412.148a14.312,14.312,0,0,1,8.82,10.518,15.222,15.222,0,0,1,.247,2.143.932.932,0,0,1,0,.214A3.31,3.31,0,0,1,69.765,108.035Z" transform="translate(-41.262 -93.775)" fill="#fff"/>
    </g>
    <g id="Grupo_16" data-name="Grupo 16" transform="translate(36.974 24.772)">
      <ellipse id="Elipse_1" data-name="Elipse 1" cx="1.994" cy="1.994" rx="1.994" ry="1.994" fill="#333"/>
    </g>
    <g id="Grupo_17" data-name="Grupo 17" transform="translate(49.04 24.772)">
      <ellipse id="Elipse_2" data-name="Elipse 2" cx="1.994" cy="1.994" rx="1.994" ry="1.994" fill="#333"/>
    </g>
    <g id="Grupo_18" data-name="Grupo 18" transform="translate(30.757 5.753)">
      <path id="Caminho_13" data-name="Caminho 13" d="M69.765,108.035v1.83h-28.5v-1.9c0-.379.016-.742.049-1.1a9.2,9.2,0,0,1,.132-.94A14.207,14.207,0,0,1,60.27,94.6c.148.049.28.1.412.148a14.312,14.312,0,0,1,8.82,10.518,15.222,15.222,0,0,1,.247,2.143.932.932,0,0,1,0,.214A3.31,3.31,0,0,1,69.765,108.035Z" transform="translate(-41.262 -93.775)" fill="#c96"/>
    </g>
    <g id="Grupo_21" data-name="Grupo 21" transform="translate(29.842 23.64)">
      <g id="Grupo_20" data-name="Grupo 20">
        <g id="Grupo_19" data-name="Grupo 19" clip-path="url(#clip-path)">
          <path id="Caminho_14" data-name="Caminho 14" d="M40.693,104.65v0Z" transform="translate(-40.693 -104.65)" fill="#fff"/>
          <rect id="Retângulo_1" data-name="Retângulo 1" width="0.019" height="7.649" transform="translate(0.001 0)" fill="#fff"/>
          <rect id="Retângulo_2" data-name="Retângulo 2" width="0.019" height="7.649" transform="translate(0.02 0)" fill="#fefefe"/>
          <rect id="Retângulo_3" data-name="Retângulo 3" width="0.019" height="7.649" transform="translate(0.039 0)" fill="#fdfdfd"/>
          <rect id="Retângulo_4" data-name="Retângulo 4" width="0.019" height="7.649" transform="translate(0.059 0)" fill="#fcfcfc"/>
          <rect id="Retângulo_5" data-name="Retângulo 5" width="0.019" height="7.649" transform="translate(0.078 0)" fill="#fbfbfb"/>
          <rect id="Retângulo_6" data-name="Retângulo 6" width="0.019" height="7.649" transform="translate(0.098 0)" fill="#fafafa"/>
          <rect id="Retângulo_7" data-name="Retângulo 7" width="0.019" height="7.649" transform="translate(0.117 0)" fill="#f9f9f9"/>
          <rect id="Retângulo_8" data-name="Retângulo 8" width="0.019" height="7.649" transform="translate(0.136 0)" fill="#f8f8f8"/>
          <rect id="Retângulo_9" data-name="Retângulo 9" width="0.019" height="7.649" transform="translate(0.156 0)" fill="#f7f7f7"/>
          <rect id="Retângulo_10" data-name="Retângulo 10" width="0.019" height="7.649" transform="translate(0.175 0)" fill="#f6f6f6"/>
          <rect id="Retângulo_11" data-name="Retângulo 11" width="0.019" height="7.649" transform="translate(0.194 0)" fill="#f5f5f5"/>
          <rect id="Retângulo_12" data-name="Retângulo 12" width="0.019" height="7.649" transform="translate(0.214 0)" fill="#f4f4f4"/>
          <rect id="Retângulo_13" data-name="Retângulo 13" width="0.019" height="7.649" transform="translate(0.233 0)" fill="#f3f3f3"/>
          <rect id="Retângulo_14" data-name="Retângulo 14" width="0.019" height="7.649" transform="translate(0.253 0)" fill="#f2f2f2"/>
          <rect id="Retângulo_15" data-name="Retângulo 15" width="0.019" height="7.649" transform="translate(0.272 0)" fill="#f1f1f1"/>
          <rect id="Retângulo_16" data-name="Retângulo 16" width="0.019" height="7.649" transform="translate(0.291 0)" fill="#f0f0f0"/>
          <rect id="Retângulo_17" data-name="Retângulo 17" width="0.019" height="7.649" transform="translate(0.311 0)" fill="#efefef"/>
          <rect id="Retângulo_18" data-name="Retângulo 18" width="0.019" height="7.649" transform="translate(0.33 0)" fill="#eee"/>
          <rect id="Retângulo_19" data-name="Retângulo 19" width="0.019" height="7.649" transform="translate(0.35 0)" fill="#ededed"/>
          <rect id="Retângulo_20" data-name="Retângulo 20" width="0.019" height="7.649" transform="translate(0.369 0)" fill="#ececec"/>
          <rect id="Retângulo_21" data-name="Retângulo 21" width="0.019" height="7.649" transform="translate(0.388 0)" fill="#ebebeb"/>
          <rect id="Retângulo_22" data-name="Retângulo 22" width="0.019" height="7.649" transform="translate(0.408 0)" fill="#eaeaea"/>
          <rect id="Retângulo_23" data-name="Retângulo 23" width="0.019" height="7.649" transform="translate(0.427 0)" fill="#e9e9e9"/>
          <rect id="Retângulo_24" data-name="Retângulo 24" width="0.019" height="7.649" transform="translate(0.447 0)" fill="#e8e8e8"/>
          <rect id="Retângulo_25" data-name="Retângulo 25" width="0.019" height="7.649" transform="translate(0.466 0)" fill="#e7e7e7"/>
          <rect id="Retângulo_26" data-name="Retângulo 26" width="0.019" height="7.649" transform="translate(0.485 0)" fill="#e6e6e6"/>
          <rect id="Retângulo_27" data-name="Retângulo 27" width="0.019" height="7.649" transform="translate(0.505 0)" fill="#e4e4e4"/>
          <rect id="Retângulo_28" data-name="Retângulo 28" width="0.019" height="7.649" transform="translate(0.524 0)" fill="#e3e3e3"/>
          <rect id="Retângulo_29" data-name="Retângulo 29" width="0.019" height="7.649" transform="translate(0.544 0)" fill="#e2e2e2"/>
          <rect id="Retângulo_30" data-name="Retângulo 30" width="0.019" height="7.649" transform="translate(0.563 0)" fill="#e1e1e1"/>
          <rect id="Retângulo_31" data-name="Retângulo 31" width="0.019" height="7.649" transform="translate(0.582 0)" fill="#e0e0e0"/>
          <rect id="Retângulo_32" data-name="Retângulo 32" width="0.019" height="7.649" transform="translate(0.602 0)" fill="#dfdfdf"/>
          <rect id="Retângulo_33" data-name="Retângulo 33" width="0.019" height="7.649" transform="translate(0.621 0)" fill="#dedede"/>
          <rect id="Retângulo_34" data-name="Retângulo 34" width="0.019" height="7.649" transform="translate(0.641 0)" fill="#ddd"/>
          <rect id="Retângulo_35" data-name="Retângulo 35" width="0.019" height="7.649" transform="translate(0.66 0)" fill="#dcdcdc"/>
          <rect id="Retângulo_36" data-name="Retângulo 36" width="0.019" height="7.649" transform="translate(0.679 0)" fill="#dbdbdb"/>
          <rect id="Retângulo_37" data-name="Retângulo 37" width="0.019" height="7.649" transform="translate(0.699 0)" fill="#dadada"/>
          <rect id="Retângulo_38" data-name="Retângulo 38" width="0.019" height="7.649" transform="translate(0.718 0)" fill="#d9d9d9"/>
          <rect id="Retângulo_39" data-name="Retângulo 39" width="0.019" height="7.649" transform="translate(0.738 0)" fill="#d8d8d8"/>
          <rect id="Retângulo_40" data-name="Retângulo 40" width="0.019" height="7.649" transform="translate(0.757 0)" fill="#d7d7d7"/>
          <rect id="Retângulo_41" data-name="Retângulo 41" width="0.019" height="7.649" transform="translate(0.776 0)" fill="#d6d6d6"/>
          <rect id="Retângulo_42" data-name="Retângulo 42" width="0.019" height="7.649" transform="translate(0.796 0)" fill="#d5d5d5"/>
          <rect id="Retângulo_43" data-name="Retângulo 43" width="0.019" height="7.649" transform="translate(0.815 0)" fill="#d4d4d4"/>
          <rect id="Retângulo_44" data-name="Retângulo 44" width="0.019" height="7.649" transform="translate(0.835 0)" fill="#d3d3d3"/>
          <rect id="Retângulo_45" data-name="Retângulo 45" width="0.019" height="7.649" transform="translate(0.854 0)" fill="#d2d2d2"/>
          <rect id="Retângulo_46" data-name="Retângulo 46" width="0.019" height="7.649" transform="translate(0.873 0)" fill="#d1d1d1"/>
          <rect id="Retângulo_47" data-name="Retângulo 47" width="0.019" height="7.649" transform="translate(0.893 0)" fill="#d0d0d0"/>
          <rect id="Retângulo_48" data-name="Retângulo 48" width="0.019" height="7.649" transform="translate(0.912 0)" fill="#cfcfcf"/>
          <rect id="Retângulo_49" data-name="Retângulo 49" width="0.019" height="7.649" transform="translate(0.932 0)" fill="#cecece"/>
          <rect id="Retângulo_50" data-name="Retângulo 50" width="0.019" height="7.649" transform="translate(0.951 0)" fill="#cdcdcd"/>
          <rect id="Retângulo_51" data-name="Retângulo 51" width="0.019" height="7.649" transform="translate(0.97 0)" fill="#ccc"/>
          <path id="Caminho_15" data-name="Caminho 15" d="M41.293,112.3v0Z" transform="translate(-40.304 -104.65)" fill="#ccc"/>
        </g>
      </g>
    </g>
    <g id="Grupo_24" data-name="Grupo 24" transform="translate(59.238 23.673)">
      <g id="Grupo_23" data-name="Grupo 23">
        <g id="Grupo_22" data-name="Grupo 22" clip-path="url(#clip-path-2)">
          <path id="Caminho_17" data-name="Caminho 17" d="M58.553,104.67v0Z" transform="translate(-58.553 -104.67)" fill="#ccc"/>
          <rect id="Retângulo_52" data-name="Retângulo 52" width="0.018" height="7.583" transform="translate(0 0)" fill="#ccc"/>
          <rect id="Retângulo_53" data-name="Retângulo 53" width="0.018" height="7.583" transform="translate(0.019 0)" fill="#cdcdcd"/>
          <rect id="Retângulo_54" data-name="Retângulo 54" width="0.018" height="7.583" transform="translate(0.037 0)" fill="#cecece"/>
          <rect id="Retângulo_55" data-name="Retângulo 55" width="0.018" height="7.583" transform="translate(0.055 0)" fill="#cfcfcf"/>
          <rect id="Retângulo_56" data-name="Retângulo 56" width="0.018" height="7.583" transform="translate(0.073 0)" fill="#d0d0d0"/>
          <rect id="Retângulo_57" data-name="Retângulo 57" width="0.018" height="7.583" transform="translate(0.091 0)" fill="#d1d1d1"/>
          <rect id="Retângulo_58" data-name="Retângulo 58" width="0.018" height="7.583" transform="translate(0.109 0)" fill="#d2d2d2"/>
          <rect id="Retângulo_59" data-name="Retângulo 59" width="0.018" height="7.583" transform="translate(0.127 0)" fill="#d3d3d3"/>
          <rect id="Retângulo_60" data-name="Retângulo 60" width="0.018" height="7.583" transform="translate(0.145 0)" fill="#d4d4d4"/>
          <rect id="Retângulo_61" data-name="Retângulo 61" width="0.018" height="7.583" transform="translate(0.163 0)" fill="#d5d5d5"/>
          <rect id="Retângulo_62" data-name="Retângulo 62" width="0.018" height="7.583" transform="translate(0.182 0)" fill="#d6d6d6"/>
          <rect id="Retângulo_63" data-name="Retângulo 63" width="0.018" height="7.583" transform="translate(0.2 0)" fill="#d7d7d7"/>
          <rect id="Retângulo_64" data-name="Retângulo 64" width="0.018" height="7.583" transform="translate(0.218 0)" fill="#d8d8d8"/>
          <rect id="Retângulo_65" data-name="Retângulo 65" width="0.018" height="7.583" transform="translate(0.236 0)" fill="#d9d9d9"/>
          <rect id="Retângulo_66" data-name="Retângulo 66" width="0.018" height="7.583" transform="translate(0.254 0)" fill="#dadada"/>
          <rect id="Retângulo_67" data-name="Retângulo 67" width="0.018" height="7.583" transform="translate(0.272 0)" fill="#dbdbdb"/>
          <rect id="Retângulo_68" data-name="Retângulo 68" width="0.018" height="7.583" transform="translate(0.29 0)" fill="#dcdcdc"/>
          <rect id="Retângulo_69" data-name="Retângulo 69" width="0.018" height="7.583" transform="translate(0.308 0)" fill="#ddd"/>
          <rect id="Retângulo_70" data-name="Retângulo 70" width="0.018" height="7.583" transform="translate(0.326 0)" fill="#dedede"/>
          <rect id="Retângulo_71" data-name="Retângulo 71" width="0.018" height="7.583" transform="translate(0.344 0)" fill="#dfdfdf"/>
          <rect id="Retângulo_72" data-name="Retângulo 72" width="0.018" height="7.583" transform="translate(0.363 0)" fill="#e0e0e0"/>
          <rect id="Retângulo_73" data-name="Retângulo 73" width="0.018" height="7.583" transform="translate(0.381 0)" fill="#e1e1e1"/>
          <rect id="Retângulo_74" data-name="Retângulo 74" width="0.018" height="7.583" transform="translate(0.399 0)" fill="#e2e2e2"/>
          <rect id="Retângulo_75" data-name="Retângulo 75" width="0.018" height="7.583" transform="translate(0.417 0)" fill="#e3e3e3"/>
          <rect id="Retângulo_76" data-name="Retângulo 76" width="0.018" height="7.583" transform="translate(0.435 0)" fill="#e4e4e4"/>
          <rect id="Retângulo_77" data-name="Retângulo 77" width="0.018" height="7.583" transform="translate(0.453 0)" fill="#e6e6e6"/>
          <rect id="Retângulo_78" data-name="Retângulo 78" width="0.018" height="7.583" transform="translate(0.471 0)" fill="#e7e7e7"/>
          <rect id="Retângulo_79" data-name="Retângulo 79" width="0.018" height="7.583" transform="translate(0.489 0)" fill="#e8e8e8"/>
          <rect id="Retângulo_80" data-name="Retângulo 80" width="0.018" height="7.583" transform="translate(0.507 0)" fill="#e9e9e9"/>
          <rect id="Retângulo_81" data-name="Retângulo 81" width="0.018" height="7.583" transform="translate(0.525 0)" fill="#eaeaea"/>
          <rect id="Retângulo_82" data-name="Retângulo 82" width="0.018" height="7.583" transform="translate(0.544 0)" fill="#ebebeb"/>
          <rect id="Retângulo_83" data-name="Retângulo 83" width="0.018" height="7.583" transform="translate(0.562 0)" fill="#ececec"/>
          <rect id="Retângulo_84" data-name="Retângulo 84" width="0.018" height="7.583" transform="translate(0.58 0)" fill="#ededed"/>
          <rect id="Retângulo_85" data-name="Retângulo 85" width="0.018" height="7.583" transform="translate(0.598 0)" fill="#eee"/>
          <rect id="Retângulo_86" data-name="Retângulo 86" width="0.018" height="7.583" transform="translate(0.616 0)" fill="#efefef"/>
          <rect id="Retângulo_87" data-name="Retângulo 87" width="0.018" height="7.583" transform="translate(0.634 0)" fill="#f0f0f0"/>
          <rect id="Retângulo_88" data-name="Retângulo 88" width="0.018" height="7.583" transform="translate(0.652 0)" fill="#f1f1f1"/>
          <rect id="Retângulo_89" data-name="Retângulo 89" width="0.018" height="7.583" transform="translate(0.67 0)" fill="#f2f2f2"/>
          <rect id="Retângulo_90" data-name="Retângulo 90" width="0.018" height="7.583" transform="translate(0.688 0)" fill="#f3f3f3"/>
          <rect id="Retângulo_91" data-name="Retângulo 91" width="0.018" height="7.583" transform="translate(0.707 0)" fill="#f4f4f4"/>
          <rect id="Retângulo_92" data-name="Retângulo 92" width="0.018" height="7.583" transform="translate(0.725 0)" fill="#f5f5f5"/>
          <rect id="Retângulo_93" data-name="Retângulo 93" width="0.018" height="7.583" transform="translate(0.743 0)" fill="#f6f6f6"/>
          <rect id="Retângulo_94" data-name="Retângulo 94" width="0.018" height="7.583" transform="translate(0.761 0)" fill="#f7f7f7"/>
          <rect id="Retângulo_95" data-name="Retângulo 95" width="0.018" height="7.583" transform="translate(0.779 0)" fill="#f8f8f8"/>
          <rect id="Retângulo_96" data-name="Retângulo 96" width="0.018" height="7.583" transform="translate(0.797 0)" fill="#f9f9f9"/>
          <rect id="Retângulo_97" data-name="Retângulo 97" width="0.018" height="7.583" transform="translate(0.815 0)" fill="#fafafa"/>
          <rect id="Retângulo_98" data-name="Retângulo 98" width="0.018" height="7.583" transform="translate(0.833 0)" fill="#fbfbfb"/>
          <rect id="Retângulo_99" data-name="Retângulo 99" width="0.018" height="7.583" transform="translate(0.851 0)" fill="#fcfcfc"/>
          <rect id="Retângulo_100" data-name="Retângulo 100" width="0.018" height="7.583" transform="translate(0.869 0)" fill="#fdfdfd"/>
          <rect id="Retângulo_101" data-name="Retângulo 101" width="0.018" height="7.583" transform="translate(0.888 0)" fill="#fefefe"/>
          <rect id="Retângulo_102" data-name="Retângulo 102" width="0.018" height="7.583" transform="translate(0.906 0)" fill="#fff"/>
          <path id="Caminho_18" data-name="Caminho 18" d="M59.113,112.253v0Z" transform="translate(-58.19 -104.67)" fill="#fff"/>
        </g>
      </g>
    </g>
  </g>
</svg>
