<svg xmlns="http://www.w3.org/2000/svg" width="50" height="50" viewBox="0 0 50 50">
  <g id="Grupo_1000" data-name="Grupo 1000" transform="translate(-62.027 -276)">
    <path id="Caminho_218" data-name="Caminho 218" d="M180.527,32.324a25.031,25.031,0,1,1-3.361-12.5A24.8,24.8,0,0,1,180.527,32.324Z" transform="translate(-68.5 268.683)" fill="#00a6c4"/>
    <path id="Caminho_221" data-name="Caminho 221" d="M170.5,24.174q.086,1.027.086,2.075a24.8,24.8,0,0,1-3.333,12.463H158.1V24.167" transform="translate(-58.56 274.758)" fill="#3b3231"/>
    <path id="Caminho_222" data-name="Caminho 222" d="M167.154,38.711V24.167L137.827,38.711h-4.85a25,25,0,0,0,43.333,0Z" transform="translate(-67.617 274.758)" fill="#3b3231"/>
    <line id="Linha_17" data-name="Linha 17" x1="22.564" y2="10.979" transform="translate(70.018 296.464)" fill="none" stroke="#fff" stroke-linecap="round" stroke-miterlimit="10" stroke-width="1"/>
    <path id="Caminho_229" data-name="Caminho 229" d="M156.161,21.345a.384.384,0,0,1,.291.6l-1.488,2.2-1.488,2.2a.385.385,0,0,1-.664-.046l-1.165-2.392-1.163-2.39a.384.384,0,0,1,.373-.551l2.653.188Z" transform="translate(-61.319 273.605)" fill="#fff"/>
  </g>
</svg>
