<svg id="Camada_1" data-name="Camada 1" xmlns="http://www.w3.org/2000/svg" xmlns:xlink="http://www.w3.org/1999/xlink" viewBox="0 0 1053.9 942.3"><defs><style>.cls-1{fill:url(#Gradiente_sem_nome_91);}.cls-2{fill:url(#Gradiente_sem_nome_111);}.cls-3{fill:#1c141c;}.cls-4{fill:url(#Gradiente_sem_nome_91-2);}.cls-5{fill:#a60015;}.cls-6{fill:url(#Gradiente_sem_nome_172);}.cls-7{fill:#8a8681;}.cls-8{fill:#f9334c;}</style><linearGradient id="Gradiente_sem_nome_91" x1="2662.64" y1="-177.27" x2="2296.26" y2="611.33" gradientTransform="translate(-1831.23 356.78)" gradientUnits="userSpaceOnUse"><stop offset="0" stop-color="#4d4248"/><stop offset="1" stop-color="#1c141c"/></linearGradient><linearGradient id="Gradiente_sem_nome_111" x1="2069.54" y1="-350.73" x2="2384.61" y2="661.54" gradientTransform="translate(-1831.23 356.78)" gradientUnits="userSpaceOnUse"><stop offset="0" stop-color="#f51319"/><stop offset="1" stop-color="#a60015"/></linearGradient><linearGradient id="Gradiente_sem_nome_91-2" x1="2589.86" y1="-211.13" x2="2223.75" y2="576.9" xlink:href="#Gradiente_sem_nome_91"/><linearGradient id="Gradiente_sem_nome_172" x1="2121.51" y1="-363.06" x2="2435.41" y2="645.43" xlink:href="#Gradiente_sem_nome_111"/></defs><path class="cls-1" d="M799.85,99.72c-192.94-51.69-391.26,62.8-443,255.74s62.8,391.26,255.74,443l-59.31,221.35S923.62,781,983.23,681.14a359.6,359.6,0,0,0,72.36-138.46C1107.29,349.74,992.78,151.42,799.85,99.72ZM763.22,603.26a166.6,166.6,0,1,1,99.57-213.53A166.6,166.6,0,0,1,763.22,603.26Z" transform="translate(-14.1 -86.2)"/><path class="cls-2" d="M725.21,354.38c-51.7-192.94-250-307.44-443-255.74s-307.43,250-255.74,443A359.53,359.53,0,0,0,98.87,680.05c59.61,99.91,432.42,339.72,432.42,339.72L469.47,797.33C662.4,745.64,776.91,547.32,725.21,354.38ZM432.84,602.18a166.6,166.6,0,1,1,99.57-213.53A166.61,166.61,0,0,1,432.84,602.18Z" transform="translate(-14.1 -86.2)"/><path class="cls-3" d="M536.08,429.55l.6,10.55c5.44-62.53,59.07-120.93,121.94-143.81,12.81-4.66,28.69-7.1,41.63-8.38-2.84-6.56-6.16-13-9.37-19.35-16.11.81-34.69,3.49-50.67,9.31-62.87,22.88-103.14,79.77-108.58,142.3h-.39Z" transform="translate(-14.1 -86.2)"/><path class="cls-4" d="M647.06,289.05a166.1,166.1,0,0,1,127.39,5.57l73-178.74a363.39,363.39,0,0,0-49.77-17.27c-192.94-51.69-391.26,62.8-443,255.74-45,168,36.05,340,185.13,415.81h-.22l4,258.34L717.92,907,682.13,770.16h-61L683.86,611a166.62,166.62,0,0,1-36.8-322Z" transform="translate(-14.1 -86.2)"/><path class="cls-5" d="M544.31,463.53l-.63-3.51c-5.44,62.53-61.07,113.88-123.94,136.76-12.81,4.66-28.27,7.43-41.21,8.71,2.84,6.56,7,12.93,10.18,19.3a172.06,172.06,0,0,0,49.45-9.59C501,592.32,541.29,535.43,546.73,472.9h.4Z" transform="translate(-14.1 -86.2)"/><path class="cls-6" d="M737.62,460H542.84A166.76,166.76,0,0,1,434,602.32c-74.7,27.27-156.7-.69-197.56-65.38l1,257.95H392.62L365.81,902.5l177.81,126V768C659.21,707.6,733.42,589.4,737.62,460Z" transform="translate(-14.1 -86.2)"/><path class="cls-7" d="M801.14,114.09c-129.8-34.78-261.92,9.5-346,103,84.14-78.16,205.16-112.9,324.27-81,184.13,49.33,293.4,238.6,244.06,422.73A343,343,0,0,1,954.42,691c-5.55,9.31-14.61,20.16-25.21,31.65,21.12-20.16,38-38.68,46.94-53.68a343.26,343.26,0,0,0,69.06-132.14C1094.54,352.69,985.27,163.43,801.14,114.09Z" transform="translate(-14.1 -86.2)"/><path class="cls-8" d="M477.28,132.15a186.81,186.81,0,0,1,19.91-7.48C430,97.26,354,90.08,278.47,110.31,94.34,159.65-14.93,348.91,34.41,533a343.17,343.17,0,0,0,69.05,132.14c9,15,25.83,33.52,46.94,53.69-10.6-11.49-19.65-22.35-25.21-31.65a343.17,343.17,0,0,1-69-132.14C6.8,371,116.07,181.68,300.2,132.34A342.3,342.3,0,0,1,477.28,132.15Z" transform="translate(-14.1 -86.2)"/></svg>