<svg xmlns="http://www.w3.org/2000/svg" width="90" height="90.003" viewBox="0 0 90 90.003">
  <g id="Grupo_995" data-name="Grupo 995" transform="translate(-56.007 -101.417)">
    <path id="Caminho_269" data-name="Caminho 269" d="M146.007,146.417a44.652,44.652,0,0,1-11.134,29.6c-.466.515-.932,1.03-1.4,1.52-.221.221-.441.466-.662.662-.956.981-1.962,1.888-2.992,2.771-.515.441-1.055.858-1.594,1.251-.589.466-1.177.883-1.79,1.3a.024.024,0,0,1-.025.025c-.245.172-.49.343-.736.49-.025.025-.049.025-.074.049-.466.294-.932.613-1.4.907-.074.025-.1.049-.172.074a4.26,4.26,0,0,1-.441.27c-.27.147-.54.319-.834.466-.172.1-.343.2-.539.294-.466.245-.956.49-1.422.736-.025,0-.025.025-.049.025-.441.221-.883.441-1.349.638-.441.221-.907.417-1.373.613-.932.368-1.888.736-2.845,1.03-.27.1-.54.172-.834.27l-.956.294c-.221.049-.466.123-.711.2l-1.839.441a3.466,3.466,0,0,1-.49.1,4.553,4.553,0,0,1-.834.147,8.419,8.419,0,0,1-1.079.221h-.025c-.932.172-1.888.294-2.845.392a.221.221,0,0,0-.123.025c-.49.025-1.03.074-1.545.1-.123,0-.245.025-.392.025a2.245,2.245,0,0,1-.417.025c-.687.049-1.373.049-2.084.049-.76,0-1.52,0-2.256-.049h-.025c-.319-.025-.613-.025-.907-.074a3.624,3.624,0,0,1-.515-.025H97.28a38.191,38.191,0,0,1-4.1-.54,2.609,2.609,0,0,1-.466-.1c-.294-.025-.564-.1-.858-.147-.417-.1-.834-.172-1.251-.27-.368-.1-.736-.172-1.1-.27l-1.324-.368c-.392-.123-.785-.245-1.177-.392h-.049v-.025c-.466-.123-.907-.294-1.373-.441-.466-.172-.932-.343-1.4-.54-.49-.2-.956-.417-1.447-.638-.441-.2-.858-.392-1.275-.589-.025-.025-.074-.025-.1-.049a1.954,1.954,0,0,1-.392-.2c-.368-.172-.736-.368-1.1-.564a15,15,0,0,1-1.373-.76c-.441-.245-.883-.515-1.3-.785-.172-.1-.368-.221-.54-.343-.343-.221-.662-.417-1.005-.662-.049-.025-.1-.074-.147-.1a4.97,4.97,0,0,1-.441-.319c-.074-.049-.172-.123-.245-.172-.294-.221-.589-.441-.907-.662-.074-.049-.172-.123-.27-.2-.466-.368-.932-.736-1.4-1.128-.49-.392-.981-.834-1.447-1.251-.221-.2-.466-.441-.687-.662-.441-.392-.858-.809-1.3-1.251-.54-.564-1.079-1.128-1.594-1.717a45.016,45.016,0,0,1,0-59.444c.515-.589,1.055-1.153,1.594-1.717a2.8,2.8,0,0,0,.27-.27c.343-.343.687-.662,1.03-.981.221-.221.466-.466.687-.662.466-.417.956-.834,1.447-1.251q.7-.589,1.4-1.1a1.789,1.789,0,0,1,.27-.221c.319-.221.613-.441.907-.662.074-.049.172-.123.245-.172a4.97,4.97,0,0,1,.441-.319c.049-.025.1-.074.147-.1.343-.245.662-.441,1.005-.662.172-.123.368-.245.54-.343.417-.27.858-.54,1.3-.785.441-.27.907-.515,1.373-.76.368-.2.736-.392,1.1-.564a2.473,2.473,0,0,1,.441-.221c.025,0,.049,0,.049-.025.417-.2.834-.392,1.275-.589.49-.221.956-.441,1.447-.613.466-.2.956-.392,1.447-.564q.662-.257,1.324-.441c.049-.025.074-.025.123-.049.736-.245,1.5-.466,2.256-.662.711-.2,1.447-.392,2.183-.539a.184.184,0,0,1,.123-.025c.343-.074.711-.147,1.079-.2.1-.025.221-.049.343-.074.27-.074.564-.1.858-.147.392-.074.76-.123,1.153-.172,1.128-.147,2.256-.245,3.409-.319.343-.025.711-.049,1.03-.049.49,0,1.005-.025,1.5-.025q1.251,0,2.5.074c.147,0,.27.025.392.025h.147c.736.049,1.471.123,2.232.2l.025.025,1.4.172.1.025c.589.1,1.153.172,1.717.294a1.232,1.232,0,0,1,.294.049l1.03.221a4.336,4.336,0,0,1,.76.2c.417.074.809.2,1.2.294.2.049.441.123.638.172.294.074.613.172.907.27.27.1.564.172.834.27.956.319,1.913.662,2.845,1.054.466.2.932.392,1.373.589.466.221.907.417,1.349.662.025,0,.025.025.049.025a5.893,5.893,0,0,1,.564.27c.294.147.589.294.858.441.2.1.368.2.539.294.294.147.564.319.834.466.147.1.294.172.441.27a.614.614,0,0,1,.172.1c.466.27.932.589,1.4.883.025.025.049.025.074.049.245.147.49.319.736.49a.024.024,0,0,1,.025.025c.613.417,1.2.834,1.79,1.3.539.392,1.079.834,1.594,1.251a48.372,48.372,0,0,1,3.654,3.433c.466.49.932,1.005,1.4,1.52A44.652,44.652,0,0,1,146.007,146.417Z" transform="translate(0 0)" fill="#de3c3c"/>
    <path id="Caminho_270" data-name="Caminho 270" d="M110.284,107.509v77.817c-.272.167-.557.331-.844.481-.181.091-.346.2-.527.287-.466.255-.961.5-1.444.738-.015,0-.015.015-.029.015-.451.226-.9.451-1.354.647s-.917.4-1.386.6q-1.4.589-2.842,1.037c-.272.105-.542.181-.829.272-.314.105-.63.2-.947.284-.24.061-.481.137-.723.2-.6.167-1.219.316-1.834.451-.167.047-.331.076-.5.105a6.833,6.833,0,0,1-.826.15c-.361.091-.723.152-1.084.211H95.1c-.932.167-1.9.287-2.859.392a.268.268,0,0,0-.105.015c-.51.044-1.037.091-1.547.105a3.566,3.566,0,0,1-.392.029,3.88,3.88,0,0,1-.422.015c-.692.047-1.383.061-2.092.061-.75,0-1.5-.015-2.256-.061h-.015a3.826,3.826,0,0,1-.407-.029c-.346,0-.677-.029-1.023-.059h-.015a42.033,42.033,0,0,1-4.574-.618c-.287-.044-.571-.105-.858-.164-.407-.091-.826-.167-1.234-.272l-1.113-.27c-.451-.12-.888-.243-1.324-.378-.39-.12-.8-.24-1.189-.375-.015,0-.015,0-.029-.015-.932-.287-1.866-.633-2.769-1.008-.5-.2-.978-.407-1.459-.618-.437-.2-.858-.39-1.278-.6-.032-.015-.076-.032-.105-.047a2.87,2.87,0,0,1-.378-.194c-.375-.167-.736-.363-1.1-.557-.466-.243-.932-.5-1.383-.768V107.45c.451-.272.917-.527,1.383-.768.363-.2.723-.392,1.1-.557a1.729,1.729,0,0,1,.378-.181.349.349,0,0,1,.105-.059c.419-.211.841-.407,1.278-.6.481-.208.964-.419,1.459-.616.9-.378,1.837-.706,2.769-1.008.047-.015.076-.029.12-.047.738-.24,1.491-.466,2.241-.662.723-.194,1.444-.375,2.183-.525.044-.015.076-.015.12-.032.346-.074.723-.15,1.084-.208a2.435,2.435,0,0,1,.346-.061c.287-.061.571-.105.858-.15.39-.061.768-.12,1.157-.167,1.069-.15,2.151-.24,3.249-.3a.64.64,0,0,1,.167-.015c.346-.029.692-.044,1.023-.044.5-.015.993-.029,1.489-.029.844,0,1.687.029,2.514.074.135,0,.255.015.392.015.044,0,.1.017.15.017.736.044,1.474.12,2.212.194.015,0,.015,0,.029.015H93l1.4.181.091.015c.586.091,1.143.181,1.714.3a1.935,1.935,0,0,1,.287.044l1.037.226a7.394,7.394,0,0,1,.768.181c.4.091.8.2,1.187.3l.647.179c.3.076.6.167.9.272.272.091.557.164.829.27.961.3,1.925.647,2.842,1.04.468.194.934.39,1.386.6s.9.422,1.354.647c.015,0,.015.015.029.015.483.24.978.481,1.444.738.181.088.346.194.527.284C109.727,107.177,110.012,107.344,110.284,107.509Z" transform="translate(13.316 0)" fill="#cc3"/>
    <g id="Caminho_271" data-name="Caminho 271" transform="translate(15.01 1.327)" fill="#c93" stroke-miterlimit="10">
      <path d="M 69.15479278564453 122.7137145996094 C 67.63138580322266 122.7137145996094 66.39199829101562 121.4798355102539 66.39199829101562 119.9631805419922 L 66.39199829101562 104.6400604248047 C 66.40802001953125 104.6292190551758 66.42826080322266 104.6205444335938 66.44666290283203 104.612663269043 C 66.45428466796875 104.6093902587891 66.46160888671875 104.6062469482422 66.46841430664062 104.6031036376953 C 66.83960723876953 104.4164428710938 67.24496459960938 104.2250442504883 67.74559783935547 104.0000305175781 L 67.83828735351562 103.9598236083984 C 68.28163909912109 103.7674713134766 68.74007415771484 103.5685806274414 69.20264434814453 103.385383605957 C 69.99008178710938 103.0558700561523 70.84938812255859 102.7421951293945 71.90289306640625 102.3997955322266 L 71.90289306640625 119.9631805419922 C 71.90289306640625 121.4798355102539 70.67010498046875 122.7137145996094 69.15479278564453 122.7137145996094 Z" stroke="none"/>
      <path d="M 71.85289764404297 102.4686660766602 C 70.83045959472656 102.8023681640625 69.99170684814453 103.1093978881836 69.22105407714844 103.4318618774414 C 68.75923919677734 103.6147766113281 68.30117797851562 103.8135070800781 67.85818481445312 104.0056915283203 L 67.76609802246094 104.0456314086914 C 67.26613616943359 104.2703399658203 66.86140441894531 104.4614562988281 66.48937225341797 104.6484909057617 C 66.482177734375 104.6518249511719 66.47442626953125 104.6551666259766 66.46635437011719 104.6586227416992 C 66.45858764648438 104.6619491577148 66.45006561279297 104.6656036376953 66.44199371337891 104.6694183349609 L 66.44199371337891 119.9631805419922 C 66.44199371337891 121.452262878418 67.65895843505859 122.6637115478516 69.15479278564453 122.6637115478516 C 70.64253234863281 122.6637115478516 71.85289764404297 121.452262878418 71.85289764404297 119.9631805419922 L 71.85289764404297 102.4686660766602 M 71.95289611816406 102.3310165405273 L 71.95289611816406 119.9631805419922 C 71.95289611816406 121.5130462646484 70.70466613769531 122.7637100219727 69.15479278564453 122.7637100219727 C 67.60493469238281 122.7637100219727 66.34199523925781 121.5130462646484 66.34199523925781 119.9631805419922 L 66.34199523925781 104.6165618896484 C 66.37141418457031 104.5871200561523 66.41557312011719 104.5724334716797 66.44744873046875 104.5577163696289 C 66.86679840087891 104.3468017578125 67.28857421875 104.1506195068359 67.72509765625 103.9544219970703 C 68.20574188232422 103.7459869384766 68.68887329101562 103.5350799560547 69.18423461914062 103.3388900756836 C 70.08668518066406 102.9612426757812 71.02101898193359 102.6326446533203 71.95289611816406 102.3310165405273 Z" stroke="none" fill="#963"/>
    </g>
    <g id="Caminho_272" data-name="Caminho 272" transform="translate(21.737 0.052)" fill="#c93" stroke-miterlimit="10">
      <path d="M 73.78681945800781 123.9888458251953 C 72.26339721679688 123.9888458251953 71.02399444580078 122.7549667358398 71.02399444580078 121.2383193969727 L 71.02399444580078 102.1711959838867 C 71.12863922119141 102.1458740234375 71.22325134277344 102.1331787109375 71.32585906982422 102.1206130981445 C 71.62185668945312 102.0575637817383 71.92140960693359 102.011474609375 72.18568420410156 101.9708023071289 C 72.53907775878906 101.9152526855469 72.93943786621094 101.8523254394531 73.34149932861328 101.8042755126953 C 74.30341339111328 101.6697158813477 75.31911468505859 101.5747985839844 76.53491973876953 101.5058975219727 L 76.53491973876953 121.2383193969727 C 76.53491973876953 122.7549667358398 75.3021240234375 123.9888458251953 73.78681945800781 123.9888458251953 Z" stroke="none"/>
      <path d="M 76.48491668701172 101.5588302612305 C 75.29378509521484 101.6274108886719 74.29483795166016 101.7213897705078 73.34743499755859 101.8539123535156 C 72.9462890625 101.9018630981445 72.54641723632812 101.964714050293 72.19329833984375 102.0202255249023 C 71.92982482910156 102.0607528686523 71.63121795654297 102.1066970825195 71.34067535400391 102.1687774658203 L 71.33192443847656 102.1702423095703 C 71.24367523193359 102.1810455322266 71.16150665283203 102.1919403076172 71.07399749755859 102.2110137939453 L 71.07399749755859 121.2383193969727 C 71.07399749755859 122.7273941040039 72.29096984863281 123.9388427734375 73.78681945800781 123.9388427734375 C 75.27455902099609 123.9388427734375 76.48491668701172 122.7273941040039 76.48491668701172 121.2383193969727 L 76.48491668701172 101.5588302612305 M 76.58491516113281 101.4530029296875 L 76.58491516113281 121.2383193969727 C 76.58491516113281 122.7881774902344 75.336669921875 124.0388488769531 73.78681945800781 124.0388488769531 C 72.2369384765625 124.0388488769531 70.9739990234375 122.7881774902344 70.9739990234375 121.2383193969727 L 70.9739990234375 102.1322937011719 C 71.09417724609375 102.1004180908203 71.19961547851562 102.085693359375 71.31977844238281 102.0709838867188 C 71.60670471191406 102.0096740722656 71.89117431640625 101.9655227661133 72.17808532714844 101.92138671875 C 72.56800842285156 101.8600921630859 72.94566345214844 101.8012237548828 73.33556365966797 101.7546234130859 C 74.40480041503906 101.6050338745117 75.48628997802734 101.5142974853516 76.58491516113281 101.4530029296875 Z" stroke="none" fill="#963"/>
    </g>
    <g id="Caminho_273" data-name="Caminho 273" transform="translate(28.367 0.052)" fill="#c93" stroke-miterlimit="10">
      <path d="M 78.33709716796875 123.9888458251953 C 76.82179260253906 123.9888458251953 75.58899688720703 122.7549667358398 75.58899688720703 121.2383193969727 L 75.58899688720703 101.5083465576172 C 75.59382629394531 101.5091171264648 75.59873962402344 101.5099258422852 75.60370635986328 101.5107421875 C 75.63182067871094 101.5153732299805 75.660888671875 101.5201568603516 75.68857574462891 101.5201568603516 C 76.36685943603516 101.5609359741211 77.06224060058594 101.6304092407227 77.73472595214844 101.6975860595703 L 77.89418792724609 101.7135009765625 C 77.89434051513672 101.7136535644531 77.89449310302734 101.7138061523438 77.8946533203125 101.7139663696289 L 77.9093017578125 101.7286071777344 L 77.93000793457031 101.7286071777344 L 77.94145202636719 101.7286071777344 L 79.33856964111328 101.9096832275391 L 79.42772674560547 101.9241638183594 C 80.04851531982422 102.020263671875 80.57232666015625 102.1072082519531 81.09992218017578 102.2170562744141 L 81.09992218017578 121.2383193969727 C 81.09992218017578 122.7549667358398 79.86051940917969 123.9888458251953 78.33709716796875 123.9888458251953 Z" stroke="none"/>
      <path d="M 75.63899993896484 101.566650390625 L 75.63899993896484 121.2383193969727 C 75.63899993896484 122.7273941040039 76.84935760498047 123.9388427734375 78.33709716796875 123.9388427734375 C 79.83294677734375 123.9388427734375 81.04991912841797 122.7273941040039 81.04991912841797 121.2383193969727 L 81.04991912841797 102.2577590942383 C 80.5364990234375 102.1519393920898 80.0242919921875 102.0670928955078 79.41973114013672 101.973518371582 L 79.3321533203125 101.9592666625977 L 77.93000793457031 101.7786026000977 L 77.88858795166016 101.7786026000977 L 77.87147521972656 101.7614898681641 L 77.72975921630859 101.7473449707031 C 77.05862426757812 101.680290222168 76.36469268798828 101.6109771728516 75.68524932861328 101.5701370239258 C 75.66979217529297 101.5699615478516 75.65420532226562 101.5685653686523 75.63899993896484 101.566650390625 M 75.53900146484375 101.4530029296875 C 75.58315277099609 101.4530029296875 75.64199829101562 101.4701538085938 75.68857574462891 101.4701538085938 C 76.42428588867188 101.5142974853516 77.16242980957031 101.5903396606445 77.90056610107422 101.6638946533203 C 77.91529846191406 101.6638946533203 77.91529846191406 101.6638946533203 77.93000793457031 101.6786041259766 L 77.94471740722656 101.6786041259766 L 79.34500122070312 101.8600921630859 L 79.43572998046875 101.8748092651367 C 80.02184295654297 101.9655227661133 80.57852172851562 102.0562591552734 81.14991760253906 102.1764373779297 L 81.14991760253906 121.2383193969727 C 81.14991760253906 122.7881774902344 79.88694763183594 124.0388488769531 78.33709716796875 124.0388488769531 C 76.78721618652344 124.0388488769531 75.53900146484375 122.7881774902344 75.53900146484375 121.2383193969727 L 75.53900146484375 101.4530029296875 Z" stroke="none" fill="#963"/>
    </g>
    <g id="Caminho_274" data-name="Caminho 274" transform="translate(35.04 1.354)" fill="#c93" stroke-miterlimit="10">
      <path d="M 82.94679260253906 122.6875762939453 C 81.42338562011719 122.6875762939453 80.18399810791016 121.4536895751953 80.18399810791016 119.9370422363281 L 80.18399810791016 102.4171600341797 C 81.18287658691406 102.7326507568359 82.11534118652344 103.0748748779297 82.95656585693359 103.4347686767578 C 83.47870635986328 103.6507263183594 83.91357421875 103.8352890014648 84.34062194824219 104.0348892211914 C 84.78429412841797 104.2422714233398 85.24261474609375 104.4564971923828 85.693115234375 104.6817321777344 L 85.69489288330078 104.6826171875 L 85.69489288330078 119.9370422363281 C 85.69489288330078 121.4536895751953 84.46210479736328 122.6875762939453 82.94679260253906 122.6875762939453 Z" stroke="none"/>
      <path d="M 80.23399353027344 102.4854507446289 L 80.23399353027344 119.9370422363281 C 80.23399353027344 121.4261169433594 81.45095825195312 122.637580871582 82.94679260253906 122.637580871582 C 84.43453216552734 122.637580871582 85.6448974609375 121.4261169433594 85.6448974609375 119.9370422363281 L 85.6448974609375 104.7135391235352 C 85.20330810546875 104.4933242797852 84.75432586669922 104.283447265625 84.3194580078125 104.0801773071289 C 83.89338684082031 103.8810501098633 83.45906829833984 103.6967086791992 82.93690490722656 103.4807281494141 C 82.11549377441406 103.1293182373047 81.20683288574219 102.7947540283203 80.23399353027344 102.4854507446289 M 80.13399505615234 102.3489990234375 C 81.09529876708984 102.6506423950195 82.05905914306641 102.9964065551758 82.97623443603516 103.388786315918 C 83.44461822509766 103.58251953125 83.91057586669922 103.7787017822266 84.36179351806641 103.9895858764648 C 84.81301879882812 104.2005004882812 85.26424407958984 104.4114074707031 85.71547698974609 104.6370086669922 C 85.73018646240234 104.6370086669922 85.73018646240234 104.651725769043 85.74489593505859 104.651725769043 L 85.74489593505859 119.9370422363281 C 85.74489593505859 121.4869079589844 84.49666595458984 122.7375793457031 82.94679260253906 122.7375793457031 C 81.39693450927734 122.7375793457031 80.13399505615234 121.4869079589844 80.13399505615234 119.9370422363281 L 80.13399505615234 102.3489990234375 Z" stroke="none" fill="#963"/>
    </g>
    <g id="Retângulo_683" data-name="Retângulo 683" transform="translate(81.351 135.275)" fill="#c93" stroke="#963" stroke-miterlimit="10" stroke-width="0.1">
      <rect width="5.614" height="33.693" rx="1.145" stroke="none"/>
      <rect x="0.05" y="0.05" width="5.514" height="33.593" rx="1.095" fill="none"/>
    </g>
    <g id="Retângulo_684" data-name="Retângulo 684" transform="translate(92.715 135.275)" fill="#c93" stroke="#963" stroke-miterlimit="10" stroke-width="0.1">
      <rect width="5.614" height="33.693" rx="1.145" stroke="none"/>
      <rect x="0.05" y="0.05" width="5.514" height="33.593" rx="1.095" fill="none"/>
    </g>
    <g id="Retângulo_685" data-name="Retângulo 685" transform="translate(103.901 135.275)" fill="#c93" stroke="#963" stroke-miterlimit="10" stroke-width="0.1">
      <rect width="5.614" height="33.693" rx="1.145" stroke="none"/>
      <rect x="0.05" y="0.05" width="5.514" height="33.593" rx="1.095" fill="none"/>
    </g>
    <g id="Retângulo_686" data-name="Retângulo 686" transform="translate(115.177 135.275)" fill="#c93" stroke="#963" stroke-miterlimit="10" stroke-width="0.1">
      <rect width="5.614" height="33.693" rx="1.145" stroke="none"/>
      <rect x="0.05" y="0.05" width="5.514" height="33.593" rx="1.095" fill="none"/>
    </g>
    <g id="Caminho_275" data-name="Caminho 275" transform="translate(15.01 46.762)" fill="#c93" stroke-miterlimit="10">
      <path d="M 71.90289306640625 142.3485565185547 C 71.04273223876953 142.0812530517578 70.13495635986328 141.7495880126953 69.20343780517578 141.3622894287109 C 68.72134399414062 141.1713409423828 68.25783538818359 140.9696350097656 67.74518585205078 140.7446899414062 C 67.34074401855469 140.5629119873047 66.906005859375 140.3643035888672 66.46990203857422 140.14501953125 C 66.45455932617188 140.1378784179688 66.43842315673828 140.1310119628906 66.42213439941406 140.1240844726562 C 66.41195678710938 140.1197662353516 66.40171051025391 140.1154174804688 66.39199829101562 140.1111450195312 L 66.39199829101562 136.4277801513672 C 66.39199829101562 134.9043731689453 67.63138580322266 133.6650085449219 69.15479278564453 133.6650085449219 C 70.67010498046875 133.6650085449219 71.90289306640625 134.9043731689453 71.90289306640625 136.4277801513672 L 71.90289306640625 142.3485565185547 Z" stroke="none"/>
      <path d="M 69.15479278564453 133.7150115966797 C 67.65895843505859 133.7150115966797 66.44199371337891 134.9319458007812 66.44199371337891 136.4277801513672 L 66.44199371337891 140.0782012939453 C 66.45868682861328 140.0852966308594 66.47522735595703 140.0923461914062 66.49236297607422 140.100341796875 C 66.9276123046875 140.3191986083984 67.36176300048828 140.5175476074219 67.76527404785156 140.6989135742188 C 68.2774658203125 140.9236602783203 68.74054718017578 141.1251831054688 69.22262573242188 141.3161315917969 C 70.12932586669922 141.6930999755859 71.01347351074219 142.0172882080078 71.85289764404297 142.2805786132812 L 71.85289764404297 136.4277801513672 C 71.85289764404297 134.9319458007812 70.64253234863281 133.7150115966797 69.15479278564453 133.7150115966797 M 69.15479278564453 133.6150054931641 C 70.70466613769531 133.6150054931641 71.95289611816406 134.8779449462891 71.95289611816406 136.4277801513672 L 71.95289611816406 142.4163665771484 C 71.02101898193359 142.1294708251953 70.08668518066406 141.7836761474609 69.18423461914062 141.4084625244141 C 68.68887329101562 141.2122650146484 68.20574188232422 141.0013885498047 67.72509765625 140.7904815673828 C 67.28857421875 140.5942840576172 66.86679840087891 140.4005584716797 66.44744873046875 140.1896820068359 C 66.41557312011719 140.1749420166016 66.37141418457031 140.1577911376953 66.34199523925781 140.1430511474609 L 66.34199523925781 136.4277801513672 C 66.34199523925781 134.8779449462891 67.60493469238281 133.6150054931641 69.15479278564453 133.6150054931641 Z" stroke="none" fill="#963"/>
    </g>
    <g id="Caminho_276" data-name="Caminho 276" transform="translate(21.737 46.762)" fill="#c93" stroke-miterlimit="10">
      <path d="M 76.53491973876953 144.5168304443359 C 76.22334289550781 144.5143127441406 75.92418670654297 144.4888610839844 75.60839080810547 144.4619750976562 L 75.56652069091797 144.4584045410156 L 75.54755401611328 144.4582214355469 C 74.05293273925781 144.3397979736328 72.52996063232422 144.1347198486328 71.02399444580078 143.8488006591797 L 71.02399444580078 136.4277801513672 C 71.02399444580078 134.9043731689453 72.26339721679688 133.6650085449219 73.78681945800781 133.6650085449219 C 75.3021240234375 133.6650085449219 76.53491973876953 134.9043731689453 76.53491973876953 136.4277801513672 L 76.53491973876953 144.5168304443359 Z" stroke="none"/>
      <path d="M 73.78681945800781 133.7150115966797 C 72.29096984863281 133.7150115966797 71.07399749755859 134.9319458007812 71.07399749755859 136.4277801513672 L 71.07399749755859 143.807373046875 C 72.56365966796875 144.0887145996094 74.06951141357422 144.2908020019531 75.55154418945312 144.4082336425781 L 75.57075500488281 144.4085845947266 L 75.61262512207031 144.4121551513672 C 75.91030883789062 144.4374847412109 76.19316101074219 144.4615631103516 76.48491668701172 144.4662170410156 L 76.48491668701172 136.4277801513672 C 76.48491668701172 134.9319458007812 75.27455902099609 133.7150115966797 73.78681945800781 133.7150115966797 M 73.78681945800781 133.6150054931641 C 75.336669921875 133.6150054931641 76.58491516113281 134.8779449462891 76.58491516113281 136.4277801513672 L 76.58491516113281 144.5670318603516 C 76.2391357421875 144.5670318603516 75.90806579589844 144.5376129150391 75.56228637695312 144.5082244873047 L 75.54755401611328 144.5082244873047 C 73.99770355224609 144.3855743408203 72.47726440429688 144.1771087646484 70.9739990234375 143.8901824951172 L 70.9739990234375 136.4277801513672 C 70.9739990234375 134.8779449462891 72.2369384765625 133.6150054931641 73.78681945800781 133.6150054931641 Z" stroke="none" fill="#963"/>
    </g>
    <g id="Caminho_277" data-name="Caminho 277" transform="translate(28.367 46.762)" fill="#c93" stroke-miterlimit="10">
      <path d="M 75.58899688720703 144.5007476806641 L 75.58899688720703 136.4277801513672 C 75.58899688720703 134.9043884277344 76.82179260253906 133.6650085449219 78.33709716796875 133.6650085449219 C 79.86051940917969 133.6650085449219 81.09992218017578 134.9043884277344 81.09992218017578 136.4277801513672 L 81.09992218017578 143.7898101806641 C 80.76065826416016 143.8732299804688 80.41518402099609 143.9320983886719 80.06191253662109 143.9897766113281 L 80.05124664306641 143.9897766113281 L 80.04680633544922 143.9897766113281 L 80.04244232177734 143.9905700683594 C 79.03134155273438 144.1715087890625 77.98677062988281 144.2948760986328 77.18913269042969 144.3821716308594 C 77.15788269042969 144.3821868896484 77.11311340332031 144.3826141357422 77.07425689697266 144.3977508544922 L 77.03689575195312 144.4009857177734 C 76.55959320068359 144.4423217773438 76.06663513183594 144.4850463867188 75.58899688720703 144.5007476806641 Z" stroke="none"/>
      <path d="M 78.33709716796875 133.7149963378906 C 76.84935760498047 133.7149963378906 75.63899993896484 134.9319610595703 75.63899993896484 136.4277801513672 L 75.63899993896484 144.448974609375 C 76.09913635253906 144.4320373535156 76.57310485839844 144.3909759521484 77.03250122070312 144.3511810302734 L 77.0633544921875 144.3484954833984 C 77.10761260986328 144.3330993652344 77.15472412109375 144.3322296142578 77.18633270263672 144.3321838378906 C 77.98284912109375 144.2449951171875 79.02513122558594 144.1218414306641 80.03363037109375 143.9413452148438 L 80.05789184570312 143.9397888183594 C 80.3955078125 143.8846282958984 80.72588348388672 143.8283386230469 81.04991912841797 143.7505035400391 L 81.04991912841797 136.4277801513672 C 81.04991912841797 134.9319610595703 79.83294677734375 133.7149963378906 78.33709716796875 133.7149963378906 M 78.33709716796875 133.6150054931641 C 79.88694763183594 133.6150054931641 81.14991760253906 134.8779449462891 81.14991760253906 136.4277801513672 L 81.14991760253906 143.8289031982422 C 80.78940582275391 143.9196319580078 80.42646789550781 143.9809417724609 80.06597900390625 144.0397796630859 L 80.05124664306641 144.0397796630859 C 79.11939239501953 144.2065582275391 78.15561676025391 144.3267364501953 77.19184875488281 144.4321746826172 C 77.16242980957031 144.4321746826172 77.1182861328125 144.4321746826172 77.08641052246094 144.4468841552734 C 76.57631683349609 144.4910430908203 76.04908752441406 144.5376129150391 75.53900146484375 144.5523223876953 L 75.53900146484375 136.4277801513672 C 75.53900146484375 134.8779449462891 76.78721618652344 133.6150054931641 78.33709716796875 133.6150054931641 Z" stroke="none" fill="#963"/>
    </g>
    <g id="Caminho_278" data-name="Caminho 278" transform="translate(35.04 46.762)" fill="#c93" stroke-miterlimit="10">
      <path d="M 80.18399810791016 142.3017578125 L 80.18399810791016 136.4277801513672 C 80.18399810791016 134.9043731689453 81.42338562011719 133.6650085449219 82.94679260253906 133.6650085449219 C 84.46210479736328 133.6650085449219 85.69489288330078 134.9043731689453 85.69489288330078 136.4277801513672 L 85.69489288330078 140.0386047363281 L 85.693115234375 140.0394897460938 C 85.25017547607422 140.2609558105469 84.79215240478516 140.4899597167969 84.34185791015625 140.6857604980469 C 83.90135192871094 140.8892517089844 83.45407867431641 141.0781097412109 82.95692443847656 141.2863006591797 C 82.05599975585938 141.6656494140625 81.12340545654297 142.0071563720703 80.18399810791016 142.3017578125 Z" stroke="none"/>
      <path d="M 82.94679260253906 133.7150115966797 C 81.45095825195312 133.7150115966797 80.23399353027344 134.9319458007812 80.23399353027344 136.4277801513672 L 80.23399353027344 142.2336120605469 C 81.14997100830078 141.9441375732422 82.05876922607422 141.6102294921875 82.93760681152344 141.2401733398438 C 83.43430328369141 141.0321807861328 83.88114929199219 140.8435211181641 84.32191467285156 140.6399078369141 C 84.76225280761719 140.4484405517578 85.21059417724609 140.2248382568359 85.6448974609375 140.0077056884766 L 85.6448974609375 136.4277801513672 C 85.6448974609375 134.9319458007812 84.43453216552734 133.7150115966797 82.94679260253906 133.7150115966797 M 82.94679260253906 133.6150054931641 C 84.49666595458984 133.6150054931641 85.74489593505859 134.8779449462891 85.74489593505859 136.4277801513672 L 85.74489593505859 140.0694732666016 C 85.73018646240234 140.0694732666016 85.73018646240234 140.0842132568359 85.71547698974609 140.0842132568359 C 85.26424407958984 140.3098297119141 84.81301879882812 140.5354156494141 84.36179351806641 140.7316131591797 C 83.91057586669922 140.9400787353516 83.44461822509766 141.1362762451172 82.97623443603516 141.3324127197266 C 82.04434204101562 141.7248077392578 81.09529876708984 142.0706024169922 80.13399505615234 142.3697662353516 L 80.13399505615234 136.4277801513672 C 80.13399505615234 134.8779449462891 81.39693450927734 133.6150054931641 82.94679260253906 133.6150054931641 Z" stroke="none" fill="#963"/>
    </g>
    <path id="Caminho_284" data-name="Caminho 284" d="M86.412,105.712v74.207a.024.024,0,0,1-.025.025c-.245.172-.49.343-.736.49-.025.025-.049.025-.074.049-.466.294-.932.613-1.4.907-.074.025-.1.049-.172.074a4.26,4.26,0,0,1-.441.27V103.9c.147.1.294.172.441.27a.614.614,0,0,1,.172.1c.466.27.932.589,1.4.883.025.025.049.025.074.049.245.147.49.319.736.49A.024.024,0,0,1,86.412,105.712Z" transform="translate(40.026 3.602)" fill="#cc3"/>
    <path id="Caminho_285" data-name="Caminho 285" d="M66.862,103.877v77.935c-.441-.245-.883-.515-1.3-.785-.172-.1-.368-.221-.54-.343-.343-.221-.662-.417-1.005-.662V105.667c.343-.245.662-.441,1.005-.662.172-.123.368-.245.54-.343C65.979,104.392,66.42,104.122,66.862,103.877Z" transform="translate(11.633 3.573)" fill="#cc3"/>
    <g id="Retângulo_694" data-name="Retângulo 694" transform="translate(75.855 128.187)" fill="none" stroke="#963" stroke-miterlimit="10" stroke-width="0.25">
      <rect width="50.788" height="46.594" stroke="none"/>
      <rect x="0.125" y="0.125" width="50.538" height="46.344" fill="none"/>
    </g>
    <g id="Caminho_286" data-name="Caminho 286" transform="translate(11.755 0)" fill="none" stroke-miterlimit="10">
      <path d="M114.889,109.313V128.2H64.1V109.24c.343-.245.662-.441,1.005-.662.172-.123.368-.245.54-.343.417-.27.858-.54,1.3-.785.441-.27.907-.515,1.373-.76.368-.2.736-.392,1.1-.564a2.472,2.472,0,0,1,.441-.221c.025,0,.049,0,.049-.025.417-.2.834-.392,1.275-.589.49-.221.956-.441,1.447-.613.466-.2.956-.392,1.447-.564q.662-.257,1.324-.441c.049-.025.074-.025.123-.049.736-.245,1.5-.466,2.256-.662.711-.2,1.447-.392,2.183-.539a.184.184,0,0,1,.123-.025c.343-.074.711-.147,1.079-.2.1-.025.221-.049.343-.074.27-.074.564-.1.858-.147.392-.074.76-.123,1.153-.172,1.128-.147,2.256-.245,3.409-.319.343-.025.711-.049,1.03-.049.49,0,1.005-.025,1.5-.025q1.251,0,2.5.074c.147,0,.27.025.392.025H92.5c.736.049,1.471.123,2.232.2l.025.025,1.4.172.1.025c.589.1,1.153.172,1.717.294a1.232,1.232,0,0,1,.294.049l1.03.221a4.336,4.336,0,0,1,.76.2c.417.074.809.2,1.2.294.2.049.441.123.638.172.294.074.613.172.907.27.27.1.564.172.834.27.956.319,1.913.662,2.845,1.054.466.2.932.392,1.373.589.466.221.907.417,1.349.662.025,0,.025.025.049.025a5.893,5.893,0,0,1,.564.27c.294.147.589.294.858.441.2.1.368.2.539.294.294.147.564.319.834.466.147.1.294.172.441.27a.614.614,0,0,1,.172.1c.466.27.932.589,1.4.883.025.025.049.025.074.049.245.147.49.319.736.49A.024.024,0,0,1,114.889,109.313Z" stroke="none"/>
      <path d="M 89.45797729492188 101.6670074462891 C 89.21578216552734 101.6670074462891 88.96175384521484 101.6732025146484 88.71608734130859 101.67919921875 C 88.46743774414062 101.6852569580078 88.21033477783203 101.6915283203125 87.96207427978516 101.6915283203125 C 87.65348052978516 101.6915283203125 87.29283905029297 101.7154388427734 86.94802093505859 101.7400588989258 C 85.66480255126953 101.8219680786133 84.58686828613281 101.9227676391602 83.55438232421875 102.0574569702148 C 83.1982421875 102.1019668579102 82.81705474853516 102.1517028808594 82.41684722900391 102.2267684936523 L 82.41185760498047 102.2276458740234 C 82.31496429443359 102.2437973022461 82.21846008300781 102.2573165893555 82.12513732910156 102.2703857421875 C 81.93054962158203 102.2976531982422 81.74674987792969 102.3234024047852 81.57823181152344 102.3693695068359 L 81.55972290039062 102.3736724853516 C 81.44267272949219 102.3970947265625 81.32164001464844 102.4213027954102 81.22979736328125 102.4442825317383 L 81.20217132568359 102.4495620727539 C 80.82926177978516 102.4992828369141 80.45723724365234 102.5749435424805 80.14250183105469 102.6423873901367 L 80.11660766601562 102.6479339599609 L 80.09561157226562 102.6479339599609 L 80.09078216552734 102.6527633666992 L 80.01653289794922 102.6676177978516 C 79.26396942138672 102.818115234375 78.50434875488281 103.0228576660156 77.847412109375 103.2040252685547 C 77.06575775146484 103.4057464599609 76.31730651855469 103.6252059936523 75.62266540527344 103.8563385009766 C 75.59085845947266 103.8710250854492 75.56569671630859 103.8794097900391 75.54652404785156 103.8857955932617 C 75.53137969970703 103.8908462524414 75.52619171142578 103.8926391601562 75.5179443359375 103.8967590332031 L 75.49636077880859 103.9075469970703 L 75.47311401367188 103.9140090942383 C 75.04163360595703 104.0338745117188 74.60404968261719 104.1797332763672 74.17253112792969 104.3475494384766 L 74.16451263427734 104.3505096435547 C 73.74179077148438 104.4984664916992 73.27323913574219 104.6811447143555 72.73207855224609 104.9089965820312 L 72.7176513671875 104.9145584106445 C 72.31417083740234 105.0557632446289 71.92803955078125 105.2308959960938 71.51924896240234 105.4163055419922 C 71.44357299804688 105.4506378173828 71.36747741699219 105.4851455688477 71.28973388671875 105.5201263427734 C 70.87196350097656 105.7058029174805 70.46922302246094 105.8947830200195 70.07918548583984 106.0783081054688 C 70.04438018798828 106.1116638183594 69.9967041015625 106.1381301879883 69.93252563476562 106.149169921875 C 69.89066314697266 106.1686325073242 69.84901428222656 106.186164855957 69.80838775634766 106.2032623291016 C 69.71836090087891 106.2411727905273 69.63333129882812 106.2769775390625 69.57872772216797 106.3206634521484 L 69.55537414550781 106.33935546875 L 69.52825927734375 106.3520050048828 C 69.16653442382812 106.5208053588867 68.79559326171875 106.718635559082 68.43524169921875 106.9108123779297 C 67.98065185546875 107.1500778198242 67.51058197021484 107.3974761962891 67.0760498046875 107.6630249023438 L 67.06710052490234 107.6682434082031 C 66.66397857666016 107.8921890258789 66.23154449462891 108.1533050537109 65.78178405761719 108.4443435668945 L 65.76998138427734 108.4515228271484 C 65.58743286132812 108.5558242797852 65.40338897705078 108.6729125976562 65.25177001953125 108.7812194824219 L 65.24165344238281 108.7880783081055 C 65.16928100585938 108.834587097168 65.09799957275391 108.8800277709961 65.02735137939453 108.9250564575195 C 64.79744720458984 109.0716018676758 64.57859039306641 109.2110977172852 64.35099792480469 109.3695297241211 L 64.35099792480469 127.9463043212891 L 114.6385040283203 127.9463043212891 L 114.6385040283203 109.4363098144531 C 114.4267272949219 109.2883605957031 114.2100677490234 109.1391067504883 113.9996490478516 109.0128326416016 L 113.9678268432617 108.9915390014648 C 113.9517669677734 108.9831390380859 113.9291839599609 108.9701843261719 113.9048919677734 108.9504852294922 C 113.7534713745117 108.8546752929688 113.600471496582 108.7553558349609 113.4523544311523 108.6592025756836 C 113.1496505737305 108.4627151489258 112.8366622924805 108.2595367431641 112.5316390991211 108.0829544067383 L 112.5182113647461 108.074592590332 C 112.5005798339844 108.0628433227539 112.4855194091797 108.0523834228516 112.4719085693359 108.0429229736328 C 112.4331512451172 108.0159759521484 112.4289093017578 108.0132675170898 112.40625 108.0057144165039 L 112.3744506835938 107.9951248168945 L 112.3465576171875 107.9765396118164 C 112.279182434082 107.9316177368164 112.210807800293 107.8917236328125 112.1384201049805 107.849494934082 C 112.0659103393555 107.8071899414062 111.9910125732422 107.7635040283203 111.9145278930664 107.713005065918 C 111.8102951049805 107.6559295654297 111.7052459716797 107.5949172973633 111.6035537719727 107.5358657836914 C 111.4403533935547 107.4411087036133 111.271598815918 107.3431091308594 111.0982284545898 107.2564468383789 L 111.0859832763672 107.249885559082 C 110.9125213623047 107.1507568359375 110.7486801147461 107.05712890625 110.558708190918 106.9621276855469 L 110.5508193969727 106.9580078125 C 110.2849807739258 106.8130035400391 109.9878005981445 106.6644134521484 109.7004013061523 106.5207138061523 C 109.6496200561523 106.4953231811523 109.6004486083984 106.4699478149414 109.5520706176758 106.4449691772461 C 109.4254837036133 106.3795928955078 109.3055419921875 106.3176498413086 109.1801910400391 106.2689895629883 C 109.1524200439453 106.2620162963867 109.1223983764648 106.2498397827148 109.0923614501953 106.2295303344727 L 109.0777130126953 106.2213821411133 C 108.7368621826172 106.0320053100586 108.3963088989258 105.8727035522461 108.0357818603516 105.7040328979492 C 107.9401321411133 105.659294128418 107.8436508178711 105.6141586303711 107.7460861206055 105.5679550170898 C 107.3089065551758 105.3736801147461 106.8386459350586 105.1756744384766 106.3800277709961 104.9825668334961 C 105.5594711303711 104.6370544433594 104.6612701416016 104.3041381835938 103.5533218383789 103.9348373413086 L 103.5469284057617 103.9326171875 C 103.4183044433594 103.8858337402344 103.2843933105469 103.8450775146484 103.1426086425781 103.8019256591797 C 103.0019607543945 103.7591247558594 102.8565521240234 103.7148590087891 102.7164535522461 103.6640548706055 C 102.3821105957031 103.5526657104492 102.0840759277344 103.4640502929688 101.8306198120117 103.4006881713867 C 101.7292404174805 103.375358581543 101.6152877807617 103.3436965942383 101.5051040649414 103.3130874633789 C 101.3982696533203 103.2834091186523 101.2878036499023 103.2527236938477 101.1929779052734 103.2290191650391 C 101.0707702636719 103.1984634399414 100.9472579956055 103.1652221679688 100.8278198242188 103.1330871582031 C 100.5619430541992 103.0615386962891 100.2870101928711 102.9875564575195 100.0085220336914 102.9383850097656 L 99.98312377929688 102.9339065551758 L 99.95915985107422 102.9243240356445 C 99.75568389892578 102.8429489135742 99.52626037597656 102.7974472045898 99.30438995361328 102.7534484863281 L 99.23937225341797 102.7404861450195 L 98.20092010498047 102.5177993774414 C 98.11547088623047 102.4964447021484 98.03475189208984 102.4762725830078 97.967529296875 102.4762725830078 L 97.940673828125 102.4762725830078 L 97.91442108154297 102.4705657958984 C 97.52491760253906 102.3858947753906 97.13892364501953 102.3255844116211 96.73024749755859 102.2617492675781 C 96.55850219726562 102.2349090576172 96.38523101806641 102.2078323364258 96.20977783203125 102.178596496582 L 96.19020080566406 102.1745147705078 L 96.10711669921875 102.1537246704102 L 94.63903045654297 101.9734344482422 L 94.61707305908203 101.9514617919922 L 94.50292205810547 101.9403991699219 C 93.80921173095703 101.8730773925781 93.15375518798828 101.8094711303711 92.49045562744141 101.7651062011719 L 92.35170745849609 101.7651062011719 C 92.28128051757812 101.7651062011719 92.21440887451172 101.7587127685547 92.14974212646484 101.7525482177734 C 92.08525848388672 101.7463836669922 92.02435302734375 101.7405624389648 91.95932769775391 101.7405624389648 L 91.94464874267578 101.7401351928711 C 91.11962890625 101.6916046142578 90.28300476074219 101.6670074462891 89.45797729492188 101.6670074462891 M 89.45797729492188 101.4170074462891 C 90.291748046875 101.4170074462891 91.12554931640625 101.4415283203125 91.95932769775391 101.4905700683594 C 92.10649108886719 101.4905700683594 92.22908782958984 101.5151062011719 92.35170745849609 101.5151062011719 L 92.49884033203125 101.5151062011719 C 93.23454284667969 101.5641326904297 93.97023010253906 101.6377258300781 94.73046875 101.7112884521484 L 94.75497436523438 101.7357940673828 L 96.15280151367188 101.9074554443359 L 96.25087738037109 101.931999206543 C 96.83945465087891 102.0300827026367 97.40348815917969 102.1036529541016 97.967529296875 102.2262725830078 C 98.06559753417969 102.2262725830078 98.16368865966797 102.2508087158203 98.26178741455078 102.2753143310547 L 99.29176330566406 102.4960327148438 C 99.53700256347656 102.5450744628906 99.8067626953125 102.594123840332 100.0519943237305 102.6921920776367 C 100.4688720703125 102.7657928466797 100.8612747192383 102.8883972167969 101.2536087036133 102.9864730834961 C 101.4498138427734 103.0355377197266 101.6950378417969 103.1091156005859 101.891227722168 103.1581420898438 C 102.1855010986328 103.2317123413086 102.5043029785156 103.3298034667969 102.7985687255859 103.4279022216797 C 103.0683288574219 103.525993347168 103.3626098632812 103.5995635986328 103.6323699951172 103.6976623535156 C 104.5887680053711 104.0164489746094 105.5451812744141 104.3597793579102 106.47705078125 104.7521591186523 C 106.9429931640625 104.9483489990234 107.4089508056641 105.1445159912109 107.8503646850586 105.3407135009766 C 108.3162841796875 105.5614395141602 108.757698059082 105.7575988769531 109.1991271972656 106.0028533935547 C 109.2236480712891 106.0028533935547 109.2236480712891 106.0273590087891 109.2481842041016 106.0273590087891 C 109.4443588256836 106.1009368896484 109.6160278320312 106.1990127563477 109.8122100830078 106.297119140625 C 110.1064910888672 106.4442596435547 110.4007720947266 106.5913925170898 110.6705322265625 106.738525390625 C 110.86669921875 106.8366241455078 111.0383605957031 106.9347229003906 111.2100219726562 107.032829284668 C 111.5043182373047 107.1799468994141 111.7740631103516 107.3516082763672 112.0438232421875 107.4987640380859 C 112.1909637451172 107.5968322753906 112.3381042480469 107.6704254150391 112.4852447509766 107.7685241699219 C 112.5588073730469 107.7930221557617 112.5833435058594 107.8175430297852 112.6568984985352 107.8665924072266 C 113.1228485107422 108.1363525390625 113.5887680053711 108.4551696777344 114.0547180175781 108.7494354248047 C 114.0792541503906 108.7739791870117 114.103759765625 108.7739791870117 114.128288269043 108.7984771728516 C 114.3735198974609 108.9456329345703 114.6187438964844 109.1172943115234 114.8639984130859 109.2889556884766 C 114.8885040283203 109.2889556884766 114.8885040283203 109.3134689331055 114.8885040283203 109.3134689331055 L 114.8885040283203 128.1963043212891 L 64.10099792480469 128.1963043212891 L 64.10099792480469 109.2399139404297 C 64.44432067871094 108.9946746826172 64.76313781738281 108.7984771728516 65.10646057128906 108.5777740478516 C 65.27812194824219 108.4551696777344 65.47430419921875 108.3325347900391 65.64595794677734 108.2344589233398 C 66.06285095214844 107.9646835327148 66.5042724609375 107.6949234008789 66.94569396972656 107.44970703125 C 67.38710784912109 107.1799468994141 67.85304260253906 106.9347229003906 68.31897735595703 106.6894989013672 C 68.68684387207031 106.4933090209961 69.0546875 106.297119140625 69.42253875732422 106.1254577636719 C 69.54515075683594 106.0273590087891 69.71681213378906 105.9783172607422 69.86393737792969 105.9047546386719 C 69.88847351074219 105.9047546386719 69.91299438476562 105.9047546386719 69.91299438476562 105.8802185058594 C 70.32987976074219 105.6840362548828 70.74678039550781 105.4878540039062 71.18820190429688 105.2916793823242 C 71.67865753173828 105.0709533691406 72.14459228515625 104.8502426147461 72.63507080078125 104.6785888671875 C 73.10101318359375 104.4824066162109 73.59146881103516 104.2862091064453 74.08192443847656 104.1145477294922 C 74.52333831787109 103.9428863525391 74.96476745605469 103.7957534790039 75.40618896484375 103.6731262207031 C 75.45523834228516 103.6486129760742 75.47975158691406 103.6486129760742 75.52880859375 103.6240921020508 C 76.26448822021484 103.3788528442383 77.02471923828125 103.1581420898438 77.78494262695312 102.9619522094727 C 78.49610900878906 102.7657928466797 79.2318115234375 102.5695953369141 79.96749877929688 102.4224624633789 C 79.99201965332031 102.3979339599609 80.04106140136719 102.3979339599609 80.09011840820312 102.3979339599609 C 80.43344116210938 102.3243637084961 80.80130004882812 102.2508087158203 81.16912841796875 102.2017593383789 C 81.26722717285156 102.1772155761719 81.38985443115234 102.152702331543 81.512451171875 102.128173828125 C 81.78221130371094 102.0546035766602 82.07649230957031 102.0300827026367 82.37077331542969 101.9810485839844 C 82.76313781738281 101.9074554443359 83.13100433349609 101.8584289550781 83.52338409423828 101.8093872070312 C 84.65142822265625 101.662223815918 85.77948760986328 101.5641326904297 86.93209838867188 101.4905700683594 C 87.27542114257812 101.4660491943359 87.64324951171875 101.4415283203125 87.96207427978516 101.4415283203125 C 88.4525146484375 101.4415283203125 88.96749877929688 101.4170074462891 89.45797729492188 101.4170074462891 Z" stroke="none" fill="#963"/>
    </g>
    <g id="Caminho_287" data-name="Caminho 287" transform="translate(11.755 43.453)" fill="none" stroke-miterlimit="10">
      <path d="M114.889,131.337v8.73a.024.024,0,0,1-.025.025c-.245.172-.49.343-.736.49-.025.025-.049.025-.074.049-.466.294-.932.613-1.4.907-.074.025-.1.049-.172.074a4.258,4.258,0,0,1-.441.27c-.27.147-.54.319-.834.466-.172.1-.343.2-.539.294-.466.245-.956.49-1.422.736-.025,0-.025.025-.049.025-.441.221-.883.441-1.349.638-.441.221-.907.417-1.373.613-.932.368-1.888.736-2.845,1.03-.27.1-.54.172-.834.27l-.956.294c-.221.049-.466.123-.711.2l-1.839.441a3.466,3.466,0,0,1-.49.1,4.553,4.553,0,0,1-.834.147,8.419,8.419,0,0,1-1.079.221h-.025c-.932.172-1.888.294-2.845.392a.221.221,0,0,0-.123.025c-.49.025-1.03.074-1.545.1-.123,0-.245.025-.392.025a2.245,2.245,0,0,1-.417.025c-.687.049-1.373.049-2.084.049-.76,0-1.52,0-2.256-.049h-.025c-.319-.025-.613-.025-.907-.074a3.624,3.624,0,0,1-.515-.025H85.73a38.191,38.191,0,0,1-4.1-.54,2.609,2.609,0,0,1-.466-.1c-.294-.025-.564-.1-.858-.147-.417-.1-.834-.172-1.251-.27-.368-.1-.736-.172-1.1-.27l-1.324-.368c-.392-.123-.785-.245-1.177-.392h-.049v-.025c-.466-.123-.907-.294-1.373-.441-.466-.172-.932-.343-1.4-.54-.49-.2-.956-.417-1.447-.638-.441-.2-.858-.392-1.275-.589-.025-.025-.074-.025-.1-.049a1.953,1.953,0,0,1-.392-.2c-.368-.172-.736-.368-1.1-.564a15,15,0,0,1-1.373-.76c-.441-.245-.883-.515-1.3-.785-.172-.1-.368-.221-.54-.343-.343-.221-.662-.417-1.005-.662v-8.8Z" stroke="none"/>
      <path d="M 64.35099792480469 131.5870208740234 L 64.35099792480469 140.0111999511719 C 64.5782470703125 140.1693725585938 64.79678344726562 140.3086700439453 65.02635192871094 140.4550323486328 C 65.09732818603516 140.5002746582031 65.16895294189453 140.5459289550781 65.24166107177734 140.5926818847656 L 65.25175476074219 140.5995178222656 C 65.40328216552734 140.7077331542969 65.58734130859375 140.8248291015625 65.77001190185547 140.9292297363281 L 65.78176879882812 140.9364013671875 C 66.23171997070312 141.2275390625 66.66416931152344 141.4886474609375 67.06709289550781 141.7124786376953 L 67.0760498046875 141.7176971435547 C 67.62039184570312 142.0503234863281 68.03672790527344 142.2808837890625 68.42600250244141 142.4652709960938 L 68.43687438964844 142.4707489013672 C 68.79560089111328 142.6620788574219 69.16653442382812 142.8599090576172 69.52825927734375 143.0287170410156 L 69.55117797851562 143.0409088134766 C 69.66515350341797 143.1092987060547 69.77280426025391 143.1738891601562 69.8939208984375 143.2142486572266 L 69.94989776611328 143.23291015625 L 69.96247863769531 143.2454833984375 C 69.98475646972656 143.2535095214844 70.01346588134766 143.2655181884766 70.04315185546875 143.2854309082031 C 70.44420623779297 143.4741821289062 70.85875701904297 143.6690521240234 71.29079437255859 143.861083984375 C 71.40794372558594 143.9138031005859 71.52370452880859 143.9665222167969 71.63873291015625 144.0188903808594 C 72.00949096679688 144.187744140625 72.35968780517578 144.3472290039062 72.73209381103516 144.4962310791016 C 73.19223022460938 144.6899871826172 73.66061401367188 144.8626098632812 74.11373138427734 145.0295104980469 C 74.28440093994141 145.08349609375 74.45278930664062 145.1410064697266 74.61569213867188 145.1966400146484 C 74.90711212158203 145.2961578369141 75.18235778808594 145.3901824951172 75.46981811523438 145.4658203125 L 75.65618896484375 145.5148773193359 L 75.65618896484375 145.5397796630859 C 76.00492095947266 145.6664276123047 76.35923004150391 145.7772216796875 76.70310211181641 145.8846893310547 L 78.02103424072266 146.2507629394531 C 78.20124816894531 146.298828125 78.38639831542969 146.342041015625 78.56546020507812 146.3838195800781 C 78.74693298339844 146.4261474609375 78.93451690673828 146.4699096679688 79.12095642089844 146.5195465087891 C 79.32501983642578 146.5675048828125 79.53413391113281 146.6105651855469 79.73638153076172 146.6522064208984 C 79.94029998779297 146.6941986083984 80.15106201171875 146.7375946044922 80.36016082763672 146.78662109375 C 80.46535491943359 146.8043365478516 80.56683349609375 146.8248443603516 80.66506195068359 146.8446807861328 C 80.84451293945312 146.8809509277344 81.01400756835938 146.9151916503906 81.18987274169922 146.9298248291016 L 81.21974945068359 146.9323120117188 L 81.24819183349609 146.9418029785156 C 81.38107299804688 146.986083984375 81.52377319335938 147.0086059570312 81.67049407958984 147.0296020507812 L 81.67979431152344 147.0311126708984 C 83.17282867431641 147.3025512695312 84.50078582763672 147.4777221679688 85.73932647705078 147.5666046142578 L 85.77272033691406 147.5666046142578 L 85.79029083251953 147.5691223144531 C 85.94438171386719 147.5911102294922 86.10253143310547 147.5911102294922 86.26995849609375 147.5911102294922 L 86.2906494140625 147.5911102294922 L 86.31105804443359 147.5945129394531 C 86.49710083007812 147.6255187988281 86.68816375732422 147.6357421875 86.89044952392578 147.6465606689453 C 86.98616790771484 147.6516876220703 87.08502960205078 147.6569671630859 87.18687438964844 147.6646575927734 L 87.21848297119141 147.6652069091797 C 87.94586181640625 147.7137298583984 88.71456909179688 147.7137298583984 89.45797729492188 147.7137298583984 C 90.17223358154297 147.7137298583984 90.84687042236328 147.7137298583984 91.52462768554688 147.6652984619141 L 91.54244995117188 147.6646575927734 C 91.67497253417969 147.6646575927734 91.81198883056641 147.6646575927734 91.91033935546875 147.6450042724609 L 91.93459320068359 147.6401519775391 L 91.95932769775391 147.6401519775391 C 92.02435302734375 147.6401519775391 92.08525848388672 147.6343383789062 92.14974212646484 147.628173828125 C 92.21245574951172 147.6221923828125 92.27722930908203 147.6159973144531 92.34532165527344 147.6156311035156 C 92.60835266113281 147.60302734375 92.8818359375 147.5837097167969 93.14639282226562 147.5650329589844 C 93.37661743164062 147.5487670898438 93.61418914794922 147.5319976806641 93.83922576904297 147.5201568603516 C 93.90110778808594 147.4972229003906 93.95142364501953 147.4934692382812 94.0059814453125 147.4930419921875 C 95.07896423339844 147.3827667236328 95.99915313720703 147.2557373046875 96.81867980957031 147.1047821044922 L 96.84114074707031 147.1006317138672 L 96.87174224853516 147.1006317138672 C 97.19854736328125 147.0563049316406 97.52681732177734 146.9887084960938 97.90309906005859 146.8883514404297 L 97.92461395263672 146.8825988769531 L 97.94679260253906 146.8807525634766 C 98.21652221679688 146.8582916259766 98.47451782226562 146.8127746582031 98.73551177978516 146.7415924072266 L 98.76596069335938 146.7352905273438 C 98.94170379638672 146.7101898193359 99.07282257080078 146.6872711181641 99.22303771972656 146.6443176269531 L 99.23342132568359 146.6415863037109 L 101.0658645629883 146.2017974853516 C 101.3056411743164 146.1298828125 101.5532073974609 146.0557556152344 101.7781372070312 146.0052490234375 L 102.7224731445312 145.7146606445312 C 102.8439865112305 145.6741943359375 102.9609832763672 145.637939453125 103.0741577148438 145.6028900146484 C 103.2380676269531 145.5521087646484 103.3928909301758 145.5041351318359 103.5469131469727 145.4481201171875 L 103.5588531494141 145.4441223144531 C 104.5346755981445 145.1438446044922 105.527961730957 144.7589569091797 106.3826370239258 144.4215850830078 C 106.8362884521484 144.2305603027344 107.3052597045898 144.0330352783203 107.7385635375977 143.8163909912109 L 107.7533416748047 143.8096008300781 C 108.2122039794922 143.6163635253906 108.6570892333984 143.3939208984375 109.0873336791992 143.1788024902344 L 109.0888061523438 143.1780700683594 C 109.1122283935547 143.1617126464844 109.1357574462891 143.1503753662109 109.1582717895508 143.1426849365234 C 109.3843002319336 143.0239562988281 109.6185836791992 142.90380859375 109.8454208374023 142.7874908447266 C 110.0799026489258 142.6672515869141 110.3223495483398 142.5429229736328 110.5541000366211 142.4209594726562 L 110.5587005615234 142.4185943603516 C 110.7489547729492 142.3234558105469 110.920280456543 142.2255401611328 111.0859680175781 142.1308288574219 L 111.0982284545898 142.1242828369141 C 111.2716674804688 142.0375671386719 111.4404907226562 141.9395294189453 111.6037521362305 141.8447418212891 C 111.7084808349609 141.7839202880859 111.8167877197266 141.7210235595703 111.9240798950195 141.6624908447266 L 111.9320373535156 141.6583251953125 C 112.0654678344727 141.5916290283203 112.2020034790039 141.5005798339844 112.3465423583984 141.4041900634766 L 112.3744430541992 141.3855895996094 L 112.40625 141.375 C 112.4262008666992 141.3683624267578 112.4386901855469 141.3621215820312 112.4593887329102 141.3517608642578 C 112.481071472168 141.3409271240234 112.5091094970703 141.326904296875 112.5464553833008 141.3126678466797 C 112.7702255249023 141.1709594726562 112.998161315918 141.02099609375 113.2188339233398 140.8758239746094 C 113.4434280395508 140.7280578613281 113.6754684448242 140.5754089355469 113.9049911499023 140.4301605224609 C 113.9282836914062 140.4113159179688 113.9503021240234 140.3984832763672 113.9675979614258 140.3893585205078 L 113.973258972168 140.3836975097656 L 113.9996795654297 140.3678436279297 C 114.210090637207 140.2416229248047 114.4267425537109 140.0923767089844 114.6385040283203 139.9444122314453 L 114.6385040283203 131.5870208740234 L 64.35099792480469 131.5870208740234 M 64.10099792480469 131.3370208740234 L 114.8885040283203 131.3370208740234 L 114.8885040283203 140.0672454833984 C 114.8885040283203 140.0672454833984 114.8885040283203 140.0917510986328 114.8639984130859 140.0917510986328 C 114.6187438964844 140.2634429931641 114.3735198974609 140.4351043701172 114.128288269043 140.5822296142578 C 114.103759765625 140.6067657470703 114.0792541503906 140.6067657470703 114.0547180175781 140.6312713623047 C 113.5887680053711 140.9255523681641 113.1228485107422 141.2443695068359 112.6568984985352 141.5386199951172 C 112.5833435058594 141.5631866455078 112.5588073730469 141.5876922607422 112.4852447509766 141.6121978759766 C 112.3381042480469 141.7103118896484 112.1909637451172 141.8083953857422 112.0438232421875 141.8819427490234 C 111.7740631103516 142.0291290283203 111.5043182373047 142.2007598876953 111.2100219726562 142.3478851318359 C 111.0383605957031 142.4459991455078 110.86669921875 142.5440826416016 110.6705322265625 142.6421966552734 C 110.20458984375 142.8874053955078 109.714111328125 143.1326446533203 109.2481842041016 143.3778533935547 C 109.2236480712891 143.3778533935547 109.2236480712891 143.4024200439453 109.1991271972656 143.4024200439453 C 108.757698059082 143.6231231689453 108.3162841796875 143.8437957763672 107.8503646850586 144.0399932861328 C 107.4089508056641 144.2606964111328 106.9429931640625 144.4568939208984 106.47705078125 144.6530914306641 C 105.5451812744141 145.0209503173828 104.5887680053711 145.3887786865234 103.6323699951172 145.6830596923828 C 103.3626098632812 145.7811737060547 103.0928573608398 145.8547210693359 102.7985687255859 145.9528045654297 L 101.8421783447266 146.2471160888672 C 101.621467590332 146.2961273193359 101.3762512207031 146.3697052001953 101.1310043334961 146.4432525634766 C 100.5179138183594 146.5904388427734 99.90483093261719 146.7375640869141 99.29176330566406 146.8846893310547 C 99.12010192871094 146.9337615966797 98.97296142578125 146.9582672119141 98.80130004882812 146.9827728271484 C 98.53153991699219 147.0563507080078 98.26178741455078 147.1053924560547 97.967529296875 147.1298980712891 C 97.59967041015625 147.2280120849609 97.25634765625 147.3015899658203 96.88850402832031 147.3506317138672 L 96.86396789550781 147.3506317138672 C 95.93209838867188 147.5222930908203 94.97569274902344 147.6449127197266 94.01929473876953 147.7429962158203 C 93.97023010253906 147.7429962158203 93.94572448730469 147.7429962158203 93.89666748046875 147.7675323486328 C 93.40620422363281 147.7920379638672 92.86669921875 147.8411102294922 92.35170745849609 147.8656158447266 C 92.22908782958984 147.8656158447266 92.10649108886719 147.8901519775391 91.95932769775391 147.8901519775391 C 91.83673095703125 147.9146575927734 91.68956756591797 147.9146575927734 91.54244995117188 147.9146575927734 C 90.85578918457031 147.9637298583984 90.16914367675781 147.9637298583984 89.45797729492188 147.9637298583984 C 88.69773864746094 147.9637298583984 87.93753051757812 147.9637298583984 87.20184326171875 147.9146575927734 L 87.17732238769531 147.9146575927734 C 86.85849761962891 147.8901519775391 86.56423950195312 147.8901519775391 86.26995849609375 147.8411102294922 C 86.09830474853516 147.8411102294922 85.92662811279297 147.8411102294922 85.75497436523438 147.8166046142578 L 85.73043823242188 147.8166046142578 C 84.35714721679688 147.7184906005859 82.98384857177734 147.5222930908203 81.63507080078125 147.2770843505859 C 81.46340942382812 147.2525177001953 81.3162841796875 147.2280120849609 81.16912841796875 147.1789703369141 C 80.87486267089844 147.1544647216797 80.6051025390625 147.0808868408203 80.31082153320312 147.0318450927734 C 79.89392852783203 146.9337615966797 79.47702789306641 146.8601837158203 79.06012725830078 146.7620697021484 C 78.69229888916016 146.6639862060547 78.32444763183594 146.5904388427734 77.95660400390625 146.4923248291016 L 76.63233947753906 146.1244964599609 C 76.23996734619141 146.0018768310547 75.84758758544922 145.8792266845703 75.45523834228516 145.7321014404297 L 75.40618896484375 145.7321014404297 L 75.40618896484375 145.7075958251953 C 74.94026184082031 145.5849761962891 74.49884033203125 145.4132843017578 74.03289794921875 145.2661590576172 C 73.56694030761719 145.0945281982422 73.10101318359375 144.9228363037109 72.63507080078125 144.7266387939453 C 72.14459228515625 144.5304412841797 71.67865753173828 144.3097686767578 71.18820190429688 144.0890655517578 C 70.74678039550781 143.8928680419922 70.32987976074219 143.6966705322266 69.91299438476562 143.5004730224609 C 69.88847351074219 143.4759674072266 69.83943176269531 143.4759674072266 69.81488800048828 143.4514312744141 C 69.66777038574219 143.4024200439453 69.54515075683594 143.3288421630859 69.42253875732422 143.2552642822266 C 69.0546875 143.0836029052734 68.68684387207031 142.8874053955078 68.31897735595703 142.6912078857422 C 67.85304260253906 142.4705047607422 67.38710784912109 142.2007598876953 66.94569396972656 141.9310150146484 C 66.5042724609375 141.6858062744141 66.06285095214844 141.4160308837891 65.64595794677734 141.1462860107422 C 65.47430419921875 141.0481719970703 65.27812194824219 140.9255523681641 65.10646057128906 140.8029632568359 C 64.76313781738281 140.5822296142578 64.44432067871094 140.3860321044922 64.10099792480469 140.1408233642578 L 64.10099792480469 131.3370208740234 Z" stroke="none" fill="#963"/>
    </g>
    <line id="Linha_31" data-name="Linha 31" x1="63.736" y1="63.736" transform="translate(68.157 115.488)" fill="none" stroke="#3b3231" stroke-miterlimit="10" stroke-width="4"/>
  </g>
</svg>
