<svg id="Piso_off" data-name="Piso off" xmlns="http://www.w3.org/2000/svg" width="36" height="36.001" viewBox="0 0 36 36.001">
  <path id="Caminho_203" data-name="Caminho 203" d="M213.507,119.417a17.861,17.861,0,0,1-4.453,11.84c-.186.206-.373.412-.559.608-.088.088-.177.186-.265.265-.383.392-.785.755-1.2,1.108-.206.177-.422.343-.638.5-.235.186-.471.353-.716.52a.01.01,0,0,1-.01.01c-.1.069-.2.137-.294.2-.01.01-.02.01-.029.02-.186.118-.373.245-.559.363-.029.01-.039.02-.069.029a1.71,1.71,0,0,1-.177.108c-.108.059-.216.128-.334.186-.069.039-.137.078-.216.118-.186.1-.383.2-.569.294-.01,0-.01.01-.02.01-.177.088-.353.177-.54.255s-.363.167-.549.245c-.373.147-.755.294-1.138.412-.108.039-.216.069-.334.108l-.383.118c-.088.02-.186.049-.284.078l-.736.177a1.389,1.389,0,0,1-.2.039,1.82,1.82,0,0,1-.334.059,3.366,3.366,0,0,1-.432.088h-.01c-.373.069-.755.118-1.138.157a.088.088,0,0,0-.049.01c-.2.01-.412.029-.618.039-.049,0-.1.01-.157.01a.9.9,0,0,1-.167.01c-.275.02-.549.02-.834.02-.3,0-.608,0-.9-.02h-.01c-.128-.01-.245-.01-.363-.029a1.448,1.448,0,0,1-.206-.01h-.01a15.276,15.276,0,0,1-1.638-.216,1.04,1.04,0,0,1-.186-.039c-.118-.01-.226-.039-.343-.059-.167-.039-.334-.069-.5-.108-.147-.039-.294-.069-.441-.108l-.53-.147c-.157-.049-.314-.1-.471-.157h-.02v-.01c-.186-.049-.363-.118-.549-.177s-.373-.137-.559-.216-.383-.167-.579-.255c-.177-.078-.343-.157-.51-.235-.01-.01-.029-.01-.039-.02a.781.781,0,0,1-.157-.078c-.147-.069-.294-.147-.441-.226a5.993,5.993,0,0,1-.549-.3c-.177-.1-.353-.206-.52-.314-.069-.039-.147-.088-.216-.137-.137-.088-.265-.167-.4-.265-.02-.01-.039-.029-.059-.039a1.986,1.986,0,0,1-.177-.128l-.1-.069c-.118-.088-.235-.177-.363-.265-.029-.02-.069-.049-.108-.078-.186-.147-.373-.294-.559-.451s-.392-.334-.579-.5c-.088-.078-.186-.177-.275-.265-.177-.157-.343-.324-.52-.5-.216-.226-.432-.451-.638-.687a18.007,18.007,0,0,1,0-23.778c.206-.235.422-.461.638-.687a1.122,1.122,0,0,0,.108-.108c.137-.137.275-.265.412-.392.088-.088.186-.186.275-.265.186-.167.383-.334.579-.5s.373-.3.559-.441a.716.716,0,0,1,.108-.088c.128-.088.245-.177.363-.265l.1-.069a1.987,1.987,0,0,1,.177-.128c.02-.01.039-.029.059-.039.137-.1.265-.177.4-.265.069-.049.147-.1.216-.137.167-.108.343-.216.52-.314s.363-.206.549-.3c.147-.078.294-.157.441-.226a.988.988,0,0,1,.177-.088c.01,0,.02,0,.02-.01.167-.078.334-.157.51-.235.2-.088.383-.177.579-.245s.383-.157.579-.226q.265-.1.53-.177c.02-.01.029-.01.049-.02.294-.1.6-.186.9-.265.284-.078.579-.157.873-.216a.073.073,0,0,1,.049-.01c.137-.029.284-.059.432-.078.039-.01.088-.02.137-.029.108-.029.226-.039.343-.059.157-.029.3-.049.461-.069.451-.059.9-.1,1.363-.128.137-.01.284-.02.412-.02.2,0,.4-.01.6-.01q.5,0,1,.029c.059,0,.108.01.157.01h.059c.294.02.589.049.893.078l.01.01.559.069.039.01c.235.039.461.069.687.118a.493.493,0,0,1,.118.02l.412.088a1.735,1.735,0,0,1,.3.078c.167.029.324.078.481.118.078.02.177.049.255.069.118.029.245.069.363.108s.226.069.334.108c.383.128.765.265,1.138.422.186.078.373.157.549.235s.363.167.54.265c.01,0,.01.01.02.01a2.357,2.357,0,0,1,.226.108c.118.059.235.118.343.177.078.039.147.078.216.118.118.059.226.128.334.186.059.039.118.069.177.108a.246.246,0,0,1,.069.039c.186.108.373.235.559.353.01.01.02.01.029.02.1.059.2.128.294.2a.01.01,0,0,1,.01.01c.245.167.481.334.716.52.216.157.432.334.638.5a19.351,19.351,0,0,1,1.462,1.373c.186.2.373.4.559.608A17.861,17.861,0,0,1,213.507,119.417Z" transform="translate(-177.507 -101.417)" fill="#d4d4d4"/>
  <path id="Caminho_204" data-name="Caminho 204" d="M204.722,103.854v31.127c-.109.067-.223.132-.338.192-.073.036-.138.078-.211.115-.186.1-.385.2-.578.3-.006,0-.006.006-.012.006-.181.09-.361.18-.542.259s-.367.162-.554.24q-.559.235-1.137.415c-.109.042-.217.073-.332.109s-.252.078-.379.114c-.1.025-.192.055-.289.078-.24.067-.488.127-.734.18-.067.019-.132.03-.2.042a2.725,2.725,0,0,1-.331.06c-.144.036-.289.061-.434.084h-.006c-.373.067-.758.115-1.144.157a.107.107,0,0,0-.042.006c-.2.018-.415.036-.619.042a1.429,1.429,0,0,1-.157.012,1.551,1.551,0,0,1-.169.006c-.277.019-.553.025-.837.025-.3,0-.6-.006-.9-.025h-.006a1.533,1.533,0,0,1-.163-.012c-.138,0-.271-.012-.409-.024h-.006a16.81,16.81,0,0,1-1.83-.247c-.115-.018-.229-.042-.343-.066-.163-.036-.331-.067-.493-.109l-.445-.108c-.181-.048-.355-.1-.53-.151-.156-.048-.319-.1-.476-.15-.006,0-.006,0-.012-.006-.373-.115-.747-.253-1.108-.4-.2-.078-.391-.163-.584-.247-.175-.078-.343-.156-.511-.24l-.042-.019a1.148,1.148,0,0,1-.151-.077c-.15-.067-.294-.145-.44-.223-.186-.1-.373-.2-.553-.307V103.83c.181-.109.367-.211.553-.307.145-.078.289-.157.44-.223a.692.692,0,0,1,.151-.073.14.14,0,0,1,.042-.024c.168-.084.337-.163.511-.241.192-.083.386-.168.584-.246.361-.151.735-.282,1.108-.4.019-.006.03-.012.048-.019.3-.1.6-.186.9-.265s.578-.15.873-.21c.018-.006.03-.006.048-.013.138-.029.289-.06.434-.083a.973.973,0,0,1,.138-.025c.115-.025.229-.042.343-.06.156-.025.307-.048.463-.067.428-.06.86-.1,1.3-.121a.256.256,0,0,1,.067-.006c.138-.012.277-.018.409-.018.2-.006.4-.012.6-.012.337,0,.675.012,1.006.029.054,0,.1.006.157.006.018,0,.041.007.06.007.294.018.59.048.885.077.006,0,.006,0,.012.006h.006l.56.073.036.006c.234.036.457.073.686.121a.774.774,0,0,1,.115.018l.415.09a2.956,2.956,0,0,1,.307.073c.162.036.319.078.475.121l.259.072c.121.03.241.067.361.109s.223.066.332.108c.385.121.77.259,1.137.416.187.077.374.156.554.24s.361.169.542.259c.006,0,.006.006.012.006.193.1.391.192.578.3.073.035.138.077.211.114C204.5,103.721,204.613,103.788,204.722,103.854Z" transform="translate(-177.683 -101.417)" fill="#7d7d7d"/>
  <g id="Caminho_205" data-name="Caminho 205" transform="translate(-177.704 -101.435)" fill="#fff" stroke-miterlimit="10">
    <path d="M 188.9669189453125 110.4527282714844 C 188.3742065429688 110.4527282714844 187.8919830322266 109.9727172851562 187.8919830322266 109.382698059082 L 187.8919830322266 103.2726745605469 C 187.8932952880859 103.2720947265625 187.8945617675781 103.2715606689453 187.8956756591797 103.2710800170898 L 187.9051361083984 103.2669219970703 C 188.0540924072266 103.1920318603516 188.2158508300781 103.1156616210938 188.4156646728516 103.0258712768555 L 188.4512329101562 103.0104293823242 C 188.6286926269531 102.9334335327148 188.8121643066406 102.8538208007812 188.9971160888672 102.7805786132812 C 189.3018188476562 102.6530685424805 189.6331787109375 102.531608581543 190.0359802246094 102.3998489379883 L 190.0359802246094 109.382698059082 C 190.0359802246094 109.9727172851562 189.556396484375 110.4527282714844 188.9669189453125 110.4527282714844 Z" stroke="none"/>
    <path d="M 189.9859771728516 102.4689331054688 C 189.6138305664062 102.5920181274414 189.3031158447266 102.7067184448242 189.0155181884766 102.8270492553711 C 188.8313446044922 102.9000015258789 188.6482543945312 102.9794464111328 188.47119140625 103.056282043457 L 188.4361419677734 103.0714721679688 C 188.2440338134766 103.1578063964844 188.0873107910156 103.2316513061523 187.9419860839844 103.3043518066406 L 187.9419860839844 109.382698059082 C 187.9419860839844 109.9451522827148 188.4017639160156 110.4027328491211 188.9669189453125 110.4027328491211 C 189.5288238525391 110.4027328491211 189.9859771728516 109.9451522827148 189.9859771728516 109.382698059082 L 189.9859771728516 102.4689331054688 M 190.0859832763672 102.3310012817383 L 190.0859832763672 109.382698059082 C 190.0859832763672 110.0025405883789 189.5867767333984 110.5027313232422 188.9669189453125 110.5027313232422 C 188.3470764160156 110.5027313232422 187.8419799804688 110.0025405883789 187.8419799804688 109.382698059082 L 187.8419799804688 103.2450637817383 C 187.853759765625 103.2332992553711 187.8714141845703 103.2274169921875 187.8841552734375 103.2215270996094 C 188.0518646240234 103.1371765136719 188.2205657958984 103.058723449707 188.3951568603516 102.9802627563477 C 188.5873718261719 102.8968887329102 188.7805786132812 102.8125534057617 188.9786987304688 102.7340774536133 C 189.3396148681641 102.5830535888672 189.7132873535156 102.4516372680664 190.0859832763672 102.3310012817383 Z" stroke="none" fill="#968f8a"/>
  </g>
  <g id="Caminho_206" data-name="Caminho 206" transform="translate(-177.792 -101.418)" fill="#fff" stroke-miterlimit="10">
    <path d="M 193.5989074707031 110.4358444213867 C 193.0061798095703 110.4358444213867 192.5239715576172 109.9558258056641 192.5239715576172 109.3658065795898 L 192.5239715576172 101.7642517089844 C 192.5557098388672 101.7577209472656 192.5859985351562 101.7537307739258 192.6183471679688 101.7497711181641 C 192.7386169433594 101.7242736816406 192.8578948974609 101.705924987793 192.9631195068359 101.6897354125977 C 193.1043701171875 101.6675338745117 193.2642822265625 101.6423950195312 193.4243774414062 101.6232757568359 C 193.8004455566406 101.570671081543 194.1965789794922 101.5332717895508 194.6679534912109 101.5059051513672 L 194.6679534912109 109.3658065795898 C 194.6679534912109 109.9558258056641 194.1883850097656 110.4358444213867 193.5989074707031 110.4358444213867 Z" stroke="none"/>
    <path d="M 194.6179504394531 101.558952331543 C 194.1710815429688 101.5859375 193.7917938232422 101.6223678588867 193.4303131103516 101.6729125976562 C 193.2711334228516 101.6919326782227 193.1117095947266 101.7169952392578 192.9707336425781 101.7391510009766 C 192.8661651611328 101.7552337646484 192.7476501464844 101.7734756469727 192.6331787109375 101.7979354858398 L 192.6244049072266 101.7994003295898 C 192.6071472167969 101.801513671875 192.5904998779297 101.8036346435547 192.573974609375 101.8061599731445 L 192.573974609375 109.3658065795898 C 192.573974609375 109.9282531738281 193.0337524414062 110.3858413696289 193.5989074707031 110.3858413696289 C 194.1608123779297 110.3858413696289 194.6179504394531 109.9282531738281 194.6179504394531 109.3658065795898 L 194.6179504394531 101.558952331543 M 194.7179565429688 101.4529800415039 L 194.7179565429688 109.3658065795898 C 194.7179565429688 109.9856414794922 194.2187652587891 110.4858474731445 193.5989074707031 110.4858474731445 C 192.9790649414062 110.4858474731445 192.4739685058594 109.9856414794922 192.4739685058594 109.3658065795898 L 192.4739685058594 101.7246627807617 C 192.5220336914062 101.7119140625 192.5641937255859 101.7060241699219 192.6122741699219 101.7001419067383 C 192.7270050048828 101.6756210327148 192.8407897949219 101.6579666137695 192.9555206298828 101.6403121948242 C 193.1114654541016 101.6158065795898 193.2625122070312 101.5922546386719 193.41845703125 101.5736236572266 C 193.8460693359375 101.513801574707 194.2785797119141 101.4775009155273 194.7179565429688 101.4529800415039 Z" stroke="none" fill="#968f8a"/>
  </g>
  <g id="Caminho_207" data-name="Caminho 207" transform="translate(-177.879 -101.418)" fill="#fff" stroke-miterlimit="10">
    <path d="M 198.1580200195312 110.4358444213867 C 197.5685577392578 110.4358444213867 197.0889892578125 109.9558258056641 197.0889892578125 109.3658065795898 L 197.0889892578125 101.5094680786133 C 197.0923614501953 101.5097122192383 197.0956573486328 101.5098571777344 197.0988311767578 101.5098571777344 C 197.367431640625 101.5260543823242 197.6450042724609 101.5537872314453 197.9134368896484 101.5805969238281 L 197.9678192138672 101.5860214233398 L 197.9725036621094 101.5904769897461 L 197.9952392578125 101.5932235717773 L 197.9978332519531 101.5932235717773 L 198.5547027587891 101.6653900146484 L 198.5894317626953 101.6710433959961 C 198.8278350830078 101.7079467773438 199.0302886962891 101.7414398193359 199.2329711914062 101.7829971313477 L 199.2329711914062 109.3658065795898 C 199.2329711914062 109.9558258056641 198.7507476806641 110.4358444213867 198.1580200195312 110.4358444213867 Z" stroke="none"/>
    <path d="M 197.1389923095703 101.5625457763672 L 197.1389923095703 109.3658065795898 C 197.1389923095703 109.9282531738281 197.5961151123047 110.3858413696289 198.1580200195312 110.3858413696289 C 198.7231750488281 110.3858413696289 199.1829681396484 109.9282531738281 199.1829681396484 109.3658065795898 L 199.1829681396484 101.8238906860352 C 198.9944152832031 101.7862014770508 198.8037261962891 101.7547988891602 198.5814361572266 101.7203903198242 L 198.5482940673828 101.714973449707 L 197.9943237304688 101.643180847168 L 197.9524383544922 101.6412200927734 L 197.9450531005859 101.6340026855469 L 197.9084625244141 101.6303405761719 C 197.6557159423828 101.6051025390625 197.3948822021484 101.5790557861328 197.1389923095703 101.5625457763672 M 197.0389862060547 101.4529800415039 C 197.0566558837891 101.4529800415039 197.0801849365234 101.4598541259766 197.0988311767578 101.4598541259766 C 197.3930206298828 101.4775009155273 197.6882629394531 101.507926940918 197.9834442138672 101.5373306274414 C 197.9893493652344 101.5373306274414 197.9893493652344 101.5373306274414 197.9952392578125 101.5432205200195 L 198.0010986328125 101.5432205200195 L 198.5974273681641 101.6216812133789 C 198.8318328857422 101.6579666137695 199.0544586181641 101.6942672729492 199.2829742431641 101.742317199707 L 199.2829742431641 109.3658065795898 C 199.2829742431641 109.9856414794922 198.7778778076172 110.4858474731445 198.1580200195312 110.4858474731445 C 197.5382080078125 110.4858474731445 197.0389862060547 109.9856414794922 197.0389862060547 109.3658065795898 L 197.0389862060547 101.4529800415039 Z" stroke="none" fill="#968f8a"/>
  </g>
  <g id="Caminho_208" data-name="Caminho 208" transform="translate(-177.967 -101.435)" fill="#fff" stroke-miterlimit="10">
    <path d="M 202.7589416503906 110.4530792236328 C 202.1662139892578 110.4530792236328 201.6840057373047 109.9730682373047 201.6840057373047 109.3830490112305 L 201.6840057373047 102.4172668457031 C 202.0677947998047 102.5396728515625 202.4264526367188 102.6719589233398 202.7510375976562 102.8108215332031 C 202.9597015380859 102.8971176147461 203.1332244873047 102.9707641601562 203.3036499023438 103.0504302978516 C 203.4751892089844 103.1305923461914 203.6524047851562 103.2134094238281 203.8279876708984 103.3008499145508 L 203.8279876708984 109.3830490112305 C 203.8279876708984 109.9730682373047 203.3484191894531 110.4530792236328 202.7589416503906 110.4530792236328 Z" stroke="none"/>
    <path d="M 201.7340087890625 102.4858627319336 L 201.7340087890625 109.3830490112305 C 201.7340087890625 109.9455032348633 202.1937866210938 110.4030838012695 202.7589416503906 110.4030838012695 C 203.3208465576172 110.4030838012695 203.7779846191406 109.9455032348633 203.7779846191406 109.3830490112305 L 203.7779846191406 103.3318481445312 C 203.6120300292969 103.2497253417969 203.4447174072266 103.1715393066406 203.2824859619141 103.0957183837891 C 203.1128997802734 103.0164642333984 202.9399719238281 102.9430694580078 202.7313842773438 102.8567886352539 C 202.4266967773438 102.7264404296875 202.0917205810547 102.6018829345703 201.7340087890625 102.4858627319336 M 201.6340026855469 102.3489990234375 C 202.0184631347656 102.4696273803711 202.4039001464844 102.6079177856445 202.7707061767578 102.7648544311523 C 202.9580230712891 102.8423233032227 203.1443634033203 102.920783996582 203.3248291015625 103.005126953125 C 203.5053100585938 103.089469909668 203.6857452392578 103.1738204956055 203.8662261962891 103.2640533447266 C 203.8721008300781 103.2640533447266 203.8721008300781 103.2699432373047 203.8779907226562 103.2699432373047 L 203.8779907226562 109.3830490112305 C 203.8779907226562 110.0028839111328 203.3787689208984 110.5030822753906 202.7589416503906 110.5030822753906 C 202.1390991210938 110.5030822753906 201.6340026855469 110.0028839111328 201.6340026855469 109.3830490112305 L 201.6340026855469 102.3489990234375 Z" stroke="none" fill="#968f8a"/>
  </g>
  <g id="Retângulo_651" data-name="Retângulo 651" transform="translate(10.138 13.545)" fill="#fff" stroke="#968f8a" stroke-miterlimit="10" stroke-width="0.1">
    <rect width="2.245" height="13.475" rx="1.123" stroke="none"/>
    <rect x="0.05" y="0.05" width="2.145" height="13.375" rx="1.073" fill="none"/>
  </g>
  <g id="Retângulo_652" data-name="Retângulo 652" transform="translate(14.683 13.545)" fill="#fff" stroke="#968f8a" stroke-miterlimit="10" stroke-width="0.1">
    <rect width="2.245" height="13.475" rx="1.123" stroke="none"/>
    <rect x="0.05" y="0.05" width="2.145" height="13.375" rx="1.073" fill="none"/>
  </g>
  <g id="Retângulo_653" data-name="Retângulo 653" transform="translate(19.158 13.545)" fill="#fff" stroke="#968f8a" stroke-miterlimit="10" stroke-width="0.1">
    <rect width="2.245" height="13.475" rx="1.123" stroke="none"/>
    <rect x="0.05" y="0.05" width="2.145" height="13.375" rx="1.073" fill="none"/>
  </g>
  <g id="Retângulo_654" data-name="Retângulo 654" transform="translate(23.668 13.545)" fill="#fff" stroke="#968f8a" stroke-miterlimit="10" stroke-width="0.1">
    <rect width="2.245" height="13.475" rx="1.123" stroke="none"/>
    <rect x="0.05" y="0.05" width="2.145" height="13.375" rx="1.073" fill="none"/>
  </g>
  <g id="Caminho_209" data-name="Caminho 209" transform="translate(-177.704 -102.03)" fill="#fff" stroke-miterlimit="10">
    <path d="M 190.0359802246094 137.0670013427734 C 189.7044219970703 136.9625244140625 189.3555450439453 136.8343811035156 188.9978942871094 136.6856842041016 C 188.8052062988281 136.609375 188.6200561523438 136.5287933349609 188.4152526855469 136.4389038085938 C 188.2539367675781 136.3664245605469 188.0803527832031 136.2871246337891 187.9066314697266 136.1997528076172 C 187.9015502929688 136.1973724365234 187.896728515625 136.1952667236328 187.8919830322266 136.1932220458984 L 187.8919830322266 134.7399139404297 C 187.8919830322266 134.1472015380859 188.3742065429688 133.6649932861328 188.9669189453125 133.6649932861328 C 189.556396484375 133.6649932861328 190.0359802246094 134.1472015380859 190.0359802246094 134.7399139404297 L 190.0359802246094 137.0670013427734 Z" stroke="none"/>
    <path d="M 188.9669189453125 133.7149963378906 C 188.4017639160156 133.7149963378906 187.9419860839844 134.1747741699219 187.9419860839844 134.7399139404297 L 187.9419860839844 136.1615447998047 C 188.1105499267578 136.2459564208984 188.2789459228516 136.3228454589844 188.4353485107422 136.3931274414062 C 188.6396942138672 136.4828033447266 188.8244018554688 136.5632019042969 189.01708984375 136.6395263671875 C 189.3500671386719 136.7779541015625 189.6753387451172 136.8984985351562 189.9859771728516 136.9985961914062 L 189.9859771728516 134.7399139404297 C 189.9859771728516 134.1747741699219 189.5288238525391 133.7149963378906 188.9669189453125 133.7149963378906 M 188.9669189453125 133.614990234375 C 189.5867767333984 133.614990234375 190.0859832763672 134.1200714111328 190.0859832763672 134.7399139404297 L 190.0859832763672 137.1349487304688 C 189.7132873535156 137.0202026367188 189.3396148681641 136.8819122314453 188.9786987304688 136.7318572998047 C 188.7805786132812 136.6533966064453 188.5873718261719 136.5690460205078 188.3951568603516 136.4846954345703 C 188.2205657958984 136.4062347412109 188.0518646240234 136.3287658691406 187.8841552734375 136.2444152832031 C 187.8714141845703 136.238525390625 187.853759765625 136.2316589355469 187.8419799804688 136.2257690429688 L 187.8419799804688 134.7399139404297 C 187.8419799804688 134.1200714111328 188.3470764160156 133.614990234375 188.9669189453125 133.614990234375 Z" stroke="none" fill="#968f8a"/>
  </g>
  <g id="Caminho_210" data-name="Caminho 210" transform="translate(-177.792 -102.03)" fill="#fff" stroke-miterlimit="10">
    <path d="M 194.6679534912109 137.9445648193359 C 194.5550994873047 137.9423370361328 194.4452056884766 137.9329681396484 194.3297119140625 137.9231262207031 L 194.313232421875 137.9217224121094 L 194.3031158447266 137.9215393066406 C 193.7168579101562 137.8750152587891 193.1172485351562 137.7947235107422 192.5239715576172 137.6829833984375 L 192.5239715576172 134.7399139404297 C 192.5239715576172 134.1472015380859 193.0061798095703 133.6649932861328 193.5989074707031 133.6649932861328 C 194.1883850097656 133.6649932861328 194.6679534912109 134.1472015380859 194.6679534912109 134.7399139404297 L 194.6679534912109 137.9445648193359 Z" stroke="none"/>
    <path d="M 193.5989074707031 133.7149963378906 C 193.0337524414062 133.7149963378906 192.573974609375 134.1747741699219 192.573974609375 134.7399139404297 L 192.573974609375 137.6414642333984 C 193.1509246826172 137.7486877441406 193.7334899902344 137.8260345458984 194.3070983886719 137.8715362548828 L 194.3339691162109 137.8733062744141 C 194.4310302734375 137.8815765380859 194.5241241455078 137.8895111083984 194.6179504394531 137.8930816650391 L 194.6179504394531 134.7399139404297 C 194.6179504394531 134.1747741699219 194.1608123779297 133.7149963378906 193.5989074707031 133.7149963378906 M 193.5989074707031 133.614990234375 C 194.2187652587891 133.614990234375 194.7179565429688 134.1200714111328 194.7179565429688 134.7399139404297 L 194.7179565429688 137.9950714111328 C 194.5796813964844 137.9950714111328 194.447265625 137.9833068847656 194.3089904785156 137.9715423583984 L 194.3031158447266 137.9715423583984 C 193.6832733154297 137.9225158691406 193.0751953125 137.8391418457031 192.4739685058594 137.7243804931641 L 192.4739685058594 134.7399139404297 C 192.4739685058594 134.1200714111328 192.9790649414062 133.614990234375 193.5989074707031 133.614990234375 Z" stroke="none" fill="#968f8a"/>
  </g>
  <g id="Caminho_211" data-name="Caminho 211" transform="translate(-177.879 -102.03)" fill="#fff" stroke-miterlimit="10">
    <path d="M 197.0889892578125 137.9374694824219 L 197.0889892578125 134.7399139404297 C 197.0889892578125 134.1472015380859 197.5685577392578 133.6649932861328 198.1580200195312 133.6649932861328 C 198.7507476806641 133.6649932861328 199.2329711914062 134.1472015380859 199.2329711914062 134.7399139404297 L 199.2329711914062 137.6606140136719 C 199.1063842773438 137.6906890869141 198.9772644042969 137.7126770019531 198.8453979492188 137.7342071533203 L 198.8435974121094 137.7342071533203 L 198.8391571044922 137.7342071533203 L 198.8347930908203 137.7350006103516 C 198.4317932128906 137.8071136474609 198.0155181884766 137.8563079833984 197.6973114013672 137.8911285400391 C 197.6842651367188 137.8911590576172 197.6651458740234 137.8915863037109 197.6465148925781 137.8978271484375 L 197.6346588134766 137.8988494873047 C 197.4547576904297 137.9144134521484 197.2692413330078 137.9304809570312 197.0889892578125 137.9374694824219 Z" stroke="none"/>
    <path d="M 198.1580200195312 133.7149963378906 C 197.5961151123047 133.7149963378906 197.1389923095703 134.1747741699219 197.1389923095703 134.7399139404297 L 197.1389923095703 137.88525390625 C 197.3017425537109 137.8774871826172 197.4683227539062 137.8630676269531 197.6303558349609 137.8490295410156 L 197.6368713378906 137.8484649658203 C 197.6591339111328 137.8420257568359 197.6800842285156 137.8412475585938 197.6944274902344 137.8411407470703 C 198.0115203857422 137.8064270019531 198.425537109375 137.7574310302734 198.8259887695312 137.6857757568359 L 198.8413848876953 137.6842193603516 C 198.95751953125 137.6652221679688 199.0714416503906 137.6458282470703 199.1829681396484 137.6208343505859 L 199.1829681396484 134.7399139404297 C 199.1829681396484 134.1747741699219 198.7231750488281 133.7149963378906 198.1580200195312 133.7149963378906 M 198.1580200195312 133.614990234375 C 198.7778778076172 133.614990234375 199.2829742431641 134.1200714111328 199.2829742431641 134.7399139404297 L 199.2829742431641 137.6998596191406 C 199.1387939453125 137.7361602783203 198.99365234375 137.7606811523438 198.8494720458984 137.7842102050781 L 198.8435974121094 137.7842102050781 C 198.4709014892578 137.8509063720703 198.0854644775391 137.8989715576172 197.7000274658203 137.9411315917969 C 197.6882629394531 137.9411315917969 197.6706085205078 137.9411315917969 197.6578521728516 137.947021484375 C 197.4538421630859 137.9646759033203 197.2429656982422 137.9833068847656 197.0389862060547 137.9891967773438 L 197.0389862060547 134.7399139404297 C 197.0389862060547 134.1200714111328 197.5382080078125 133.614990234375 198.1580200195312 133.614990234375 Z" stroke="none" fill="#968f8a"/>
  </g>
  <g id="Caminho_212" data-name="Caminho 212" transform="translate(-177.967 -102.03)" fill="#fff" stroke-miterlimit="10">
    <path d="M 201.6840057373047 137.0482025146484 L 201.6840057373047 134.7399139404297 C 201.6840057373047 134.1472015380859 202.1662139892578 133.6649932861328 202.7589416503906 133.6649932861328 C 203.3484191894531 133.6649932861328 203.8279876708984 134.1472015380859 203.8279876708984 134.7399139404297 L 203.8279876708984 136.1654663085938 C 203.6560821533203 136.2514038085938 203.4787902832031 136.3397064208984 203.3049011230469 136.4153137207031 C 203.1285400390625 136.4967651367188 202.9499359130859 136.5721740722656 202.7514038085938 136.6553192138672 C 202.4043884277344 136.8014221191406 202.045654296875 136.9334564208984 201.6840057373047 137.0482025146484 Z" stroke="none"/>
    <path d="M 202.7589416503906 133.7149963378906 C 202.1937866210938 133.7149963378906 201.7340087890625 134.1747741699219 201.7340087890625 134.7399139404297 L 201.7340087890625 136.9796752929688 C 202.0721435546875 136.8703460693359 202.4072418212891 136.7459716796875 202.7320709228516 136.6092071533203 C 202.9301605224609 136.5262451171875 203.1083221435547 136.4510345458984 203.2849578857422 136.3694458007812 C 203.4483642578125 136.2984161376953 203.6153564453125 136.2158050537109 203.7779846191406 136.1345520019531 L 203.7779846191406 134.7399139404297 C 203.7779846191406 134.1747741699219 203.3208465576172 133.7149963378906 202.7589416503906 133.7149963378906 M 202.7589416503906 133.614990234375 C 203.3787689208984 133.614990234375 203.8779907226562 134.1200714111328 203.8779907226562 134.7399139404297 L 203.8779907226562 136.1963500976562 C 203.8721008300781 136.1963500976562 203.8721008300781 136.2022399902344 203.8662261962891 136.2022399902344 C 203.6857452392578 136.29248046875 203.5053100585938 136.3827056884766 203.3248291015625 136.4611663818359 C 203.1443634033203 136.5445404052734 202.9580230712891 136.6230010986328 202.7707061767578 136.7014465332031 C 202.3980102539062 136.8583679199219 202.0184631347656 136.9966583251953 201.6340026855469 137.1163177490234 L 201.6340026855469 134.7399139404297 C 201.6340026855469 134.1200714111328 202.1390991210938 133.614990234375 202.7589416503906 133.614990234375 Z" stroke="none" fill="#968f8a"/>
  </g>
  <path id="Caminho_216" data-name="Caminho 216" d="M206.2,104.623v29.684a.01.01,0,0,1-.01.01c-.1.069-.2.137-.294.2-.01.01-.02.01-.029.02-.186.118-.373.245-.559.363-.029.01-.039.02-.069.029a1.705,1.705,0,0,1-.177.108V103.9c.059.039.118.069.177.108a.245.245,0,0,1,.069.039c.186.108.373.235.559.353.01.01.02.01.029.02.1.059.2.128.294.2A.01.01,0,0,1,206.2,104.623Z" transform="translate(-178.032 -101.465)" fill="#7d7d7d"/>
  <path id="Caminho_217" data-name="Caminho 217" d="M186.655,103.877v31.175c-.177-.1-.353-.206-.52-.314-.069-.039-.147-.088-.216-.137-.137-.088-.265-.167-.4-.265V104.593c.137-.1.265-.177.4-.265.069-.049.147-.1.216-.137C186.3,104.083,186.478,103.975,186.655,103.877Z" transform="translate(-177.66 -101.464)" fill="#7d7d7d"/>
  <g id="Retângulo_668" data-name="Retângulo 668" transform="translate(7.856 10.71)" fill="none" stroke="#fff" stroke-miterlimit="10" stroke-width="0.25">
    <rect width="20.318" height="18.635" stroke="none"/>
    <rect x="0.125" y="0.125" width="20.068" height="18.385" fill="none"/>
  </g>
  <g id="Caminho_232" data-name="Caminho 232" transform="translate(-177.661 -101.417)" fill="none" stroke-miterlimit="10">
    <path d="M205.835,104.575v7.552H185.517v-7.581c.137-.1.265-.177.4-.265.069-.049.147-.1.216-.137.167-.108.343-.216.52-.314s.363-.206.549-.3c.147-.078.294-.157.441-.226a.991.991,0,0,1,.177-.088c.01,0,.02,0,.02-.01.167-.078.334-.157.51-.235.2-.088.383-.177.579-.245s.383-.157.579-.226q.265-.1.53-.177c.02-.01.029-.01.049-.02.294-.1.6-.186.9-.265.285-.078.579-.157.873-.216a.073.073,0,0,1,.049-.01c.137-.029.284-.059.432-.078.039-.01.088-.02.137-.029.108-.029.226-.039.343-.059.157-.029.3-.049.461-.069.451-.059.9-.1,1.364-.128.137-.01.285-.02.412-.02.2,0,.4-.01.6-.01q.5,0,1,.029c.059,0,.108.01.157.01h.059c.294.02.589.049.893.078l.01.01.559.069.039.01c.235.039.461.069.687.118a.493.493,0,0,1,.118.02l.412.088a1.735,1.735,0,0,1,.3.078c.167.029.324.078.481.118.078.02.177.049.255.069.118.029.245.069.363.108s.226.069.334.108c.383.127.765.265,1.138.422.186.078.373.157.549.235s.363.167.54.265c.01,0,.01.01.02.01a2.359,2.359,0,0,1,.226.108c.118.059.235.118.343.177.079.039.147.078.216.118.118.059.226.127.334.186.059.039.118.069.177.108a.246.246,0,0,1,.069.039c.186.108.373.235.559.353.01.01.02.01.029.02.1.059.2.127.294.2A.01.01,0,0,1,205.835,104.575Z" stroke="none"/>
    <path d="M 195.6611633300781 101.6669921875 C 195.5660858154297 101.6669921875 195.4654083251953 101.6694412231445 195.3680267333984 101.6718215942383 C 195.2676696777344 101.6742630004883 195.1638793945312 101.6767959594727 195.0627136230469 101.6767959594727 C 194.9441986083984 101.6767959594727 194.802978515625 101.6861724853516 194.6665954589844 101.6958999633789 C 194.1567993164062 101.7284317016602 193.7286834716797 101.768440246582 193.3180084228516 101.8219833374023 C 193.1777496337891 101.8395156860352 193.0277709960938 101.8590698242188 192.8719787597656 101.8882904052734 L 192.8669738769531 101.8891754150391 C 192.8273468017578 101.8957748413086 192.7877502441406 101.9013519287109 192.7484588623047 101.906852722168 C 192.6754608154297 101.9170837402344 192.6065216064453 101.9267349243164 192.5483093261719 101.9426116943359 L 192.53125 101.9466247558594 C 192.4859924316406 101.9556732177734 192.439208984375 101.9650192260742 192.4058074951172 101.9733734130859 L 192.3782196044922 101.978645324707 C 192.2428131103516 101.9966888427734 192.1063232421875 102.0238876342773 191.9881744384766 102.0489883422852 L 191.9877777099609 102.0493927001953 L 191.9134674072266 102.0642547607422 C 191.6171264648438 102.1235046386719 191.3163909912109 102.2045516967773 191.0537567138672 102.2769317626953 C 190.7469024658203 102.3561172485352 190.4531402587891 102.4421310424805 190.180419921875 102.5326538085938 C 190.16650390625 102.5386581420898 190.1547088623047 102.5428085327148 190.1454010009766 102.5459365844727 L 190.1298980712891 102.5537033081055 L 190.1065826416016 102.560173034668 C 189.9387054443359 102.606803894043 189.7684478759766 102.6635437011719 189.6005096435547 102.7288360595703 L 189.5924987792969 102.7317962646484 C 189.4261627197266 102.7899932861328 189.2415313720703 102.8619613647461 189.0280456542969 102.9518356323242 L 189.0136260986328 102.9573822021484 C 188.8584594726562 103.0116806030273 188.7068634033203 103.0804138183594 188.5463714599609 103.153190612793 L 188.4537658691406 103.1950607299805 C 188.294677734375 103.265754699707 188.1404418945312 103.3379516601562 187.9908599853516 103.4082946777344 C 187.9644317626953 103.4284057617188 187.9329681396484 103.4439849853516 187.8966979980469 103.453010559082 C 187.8840484619141 103.458625793457 187.8712158203125 103.4640731811523 187.8583679199219 103.469482421875 C 187.8390350341797 103.4776229858398 187.8097991943359 103.4899215698242 187.8020172119141 103.4953155517578 L 187.7786712646484 103.5139694213867 L 187.7515869140625 103.5266036987305 C 187.6103973388672 103.5924911499023 187.4637908935547 103.670654296875 187.3208160400391 103.7468719482422 C 187.1410217285156 103.8414764404297 186.9551086425781 103.9392929077148 186.7853546142578 104.0429992675781 L 186.7763977050781 104.0482330322266 C 186.6181335449219 104.136116027832 186.4480438232422 104.2388000488281 186.2708282470703 104.3534240722656 L 186.2590484619141 104.360595703125 C 186.1912689208984 104.3993148803711 186.1203460693359 104.4443893432617 186.0644683837891 104.4842910766602 L 186.0543670654297 104.4911346435547 L 185.9679870605469 104.5463409423828 C 185.8994598388672 104.5900039672852 185.8334503173828 104.6320724487305 185.7669677734375 104.6766891479492 L 185.7669677734375 111.8769454956055 L 205.5847778320312 111.8769454956055 L 205.5847778320312 104.70263671875 C 205.5225677490234 104.6597900390625 205.4620819091797 104.6194839477539 205.4020385742188 104.5834655761719 L 205.3742828369141 104.5661697387695 C 205.3683013916016 104.5623626708984 205.3618011474609 104.5579299926758 205.3549957275391 104.5528030395508 C 205.2961883544922 104.5155410766602 205.2373962402344 104.4773864746094 205.1785888671875 104.4392242431641 C 205.0535736083984 104.3581008911133 204.9354858398438 104.2814712524414 204.8167877197266 104.212776184082 L 204.7832336425781 104.1906814575195 L 204.7625274658203 104.1837844848633 L 204.7346496582031 104.1651916503906 C 204.7094573974609 104.1483993530273 204.6841888427734 104.1338348388672 204.6589965820312 104.1191329956055 C 204.6311645507812 104.102897644043 204.5999298095703 104.0846862792969 204.5676879882812 104.0636520385742 C 204.5270690917969 104.0413055419922 204.4864044189453 104.0177383422852 204.4452514648438 103.9938430786133 C 204.3790740966797 103.9554214477539 204.3165588378906 103.9191360473633 204.2514343261719 103.8865814208984 L 204.2391662597656 103.8800201416016 C 204.1716766357422 103.8414535522461 204.1079254150391 103.8050308227539 204.0355834960938 103.7688827514648 L 204.0276336669922 103.7647323608398 C 203.9243011474609 103.7083740234375 203.8073883056641 103.6499252319336 203.6922149658203 103.5923309326172 C 203.6713104248047 103.5818862915039 203.6510467529297 103.5714340209961 203.6311187744141 103.561149597168 C 203.585693359375 103.5377044677734 203.5457458496094 103.5170822143555 203.5061645507812 103.5010223388672 L 203.4939422607422 103.5010223388672 L 203.4651947021484 103.4850616455078 C 203.4562377929688 103.4807586669922 203.4471740722656 103.4757766723633 203.4380950927734 103.4700012207031 L 203.4373168945312 103.4695739746094 C 203.3055267333984 103.396369934082 203.1716003417969 103.3337326049805 203.02978515625 103.2674255371094 C 202.9918518066406 103.2496795654297 202.9535980224609 103.2317810058594 202.9149169921875 103.2134780883789 C 202.7409820556641 103.1362457275391 202.5538024902344 103.0574569702148 202.3727264404297 102.9812545776367 C 202.0481567382812 102.8446197509766 201.6922454833984 102.712760925293 201.2526702880859 102.5662841796875 L 201.2463073730469 102.5640640258789 C 201.1986389160156 102.546745300293 201.14697265625 102.5310211181641 201.0922698974609 102.5143737792969 C 201.03466796875 102.4968490600586 200.9751586914062 102.4787445068359 200.9159545898438 102.4573364257812 C 200.7865142822266 102.4142761230469 200.6716613769531 102.3801422119141 200.5745697021484 102.3558731079102 C 200.5333251953125 102.345573425293 200.4868927001953 102.3327102661133 200.4404907226562 102.3198318481445 C 200.3985900878906 102.3081893920898 200.356689453125 102.2965316772461 200.3194580078125 102.287223815918 C 200.2700500488281 102.2748641967773 200.2206268310547 102.2615814208984 200.1709289550781 102.2482147216797 C 200.0628967285156 102.2191543579102 199.9608612060547 102.1917037963867 199.8559112548828 102.1731796264648 L 199.8305053710938 102.1686935424805 L 199.8065490722656 102.1591262817383 C 199.7380523681641 102.1317291259766 199.6532287597656 102.1149139404297 199.5711822509766 102.0986328125 L 199.5428619384766 102.0929718017578 L 199.1224212646484 102.0027618408203 C 199.1023864746094 101.9977493286133 199.0749664306641 101.9909133911133 199.0654449462891 101.9906463623047 L 199.0385894775391 101.9906463623047 L 199.0123596191406 101.9849395751953 C 198.8608703613281 101.9520111083984 198.7085876464844 101.9282302856445 198.5473480224609 101.9030532836914 C 198.4781494140625 101.8922424316406 198.4083251953125 101.8813323974609 198.3376159667969 101.8695526123047 L 198.2937469482422 101.8593978881836 L 197.6643371582031 101.7821350097656 L 197.6570587158203 101.7748565673828 C 197.3853302001953 101.7484970092773 197.1282196044922 101.7236404418945 196.8692779541016 101.7062225341797 L 196.8188323974609 101.7062225341797 C 196.7835083007812 101.7062225341797 196.7517700195312 101.7031936645508 196.7237701416016 101.7005233764648 C 196.7006683349609 101.6983108520508 196.6807098388672 101.6964111328125 196.6618499755859 101.6964111328125 L 196.6471710205078 101.6959838867188 C 196.3201599121094 101.6767425537109 195.9884185791016 101.6669921875 195.6611633300781 101.6669921875 M 195.6611633300781 101.4169921875 C 195.9947357177734 101.4169921875 196.3282928466797 101.4267959594727 196.6618499755859 101.4464111328125 C 196.720703125 101.4464111328125 196.7697601318359 101.4562225341797 196.8188323974609 101.4562225341797 L 196.877685546875 101.4562225341797 C 197.1719970703125 101.475830078125 197.46630859375 101.5052642822266 197.7704467773438 101.5346832275391 L 197.7802429199219 101.5444793701172 L 198.3394622802734 101.6131362915039 L 198.3787078857422 101.6229553222656 C 198.6141662597656 101.6621856689453 198.8397979736328 101.6916046142578 199.0654449462891 101.7406463623047 C 199.1046905517578 101.7406463623047 199.1439208984375 101.7504501342773 199.1831817626953 101.76025390625 L 199.5952301025391 101.8485260009766 C 199.6933288574219 101.8681411743164 199.8012542724609 101.8877639770508 199.8993530273438 101.9269790649414 C 200.0661315917969 101.956413269043 200.2231140136719 102.0054397583008 200.3800811767578 102.0446853637695 C 200.4585571289062 102.0643005371094 200.5566711425781 102.0937194824219 200.6351623535156 102.1133346557617 C 200.7528839111328 102.1427536010742 200.8804016113281 102.1819839477539 200.9981384277344 102.2212142944336 C 201.1060485839844 102.2604522705078 201.2237701416016 102.2898712158203 201.3317108154297 102.3291015625 C 201.7142944335938 102.4565963745117 202.0969390869141 102.5939102172852 202.4697265625 102.7508316040039 C 202.6561431884766 102.8292922973633 202.8425445556641 102.9077529907227 203.0191192626953 102.986213684082 C 203.2055358886719 103.0744934082031 203.3821258544922 103.1529388427734 203.5587158203125 103.2510223388672 C 203.5685272216797 103.2510223388672 203.5685272216797 103.2608337402344 203.5783233642578 103.2608337402344 C 203.6568145751953 103.2902603149414 203.7254943847656 103.3294830322266 203.8039855957031 103.3687133789062 C 203.9216918945312 103.4275588989258 204.0394439697266 103.4864044189453 204.1473388671875 103.5452499389648 C 204.2258453369141 103.5844802856445 204.2945098876953 103.6237106323242 204.3631896972656 103.662956237793 C 204.4809112548828 103.7217788696289 204.5888214111328 103.7904434204102 204.6967468261719 103.8492889404297 C 204.7555999755859 103.8885116577148 204.8144683837891 103.9179458618164 204.8733367919922 103.9571838378906 C 204.9027557373047 103.9669799804688 204.9125823974609 103.9767913818359 204.9420166015625 103.9963989257812 C 205.12841796875 104.1042861938477 205.3148193359375 104.2317962646484 205.501220703125 104.3494720458984 C 205.5110321044922 104.3592910766602 205.5208282470703 104.3592910766602 205.5306701660156 104.3690948486328 C 205.6287536621094 104.4279403686523 205.7268676757812 104.4965896606445 205.824951171875 104.5652389526367 C 205.8347778320312 104.5652389526367 205.8347778320312 104.575065612793 205.8347778320312 104.575065612793 L 205.8347778320312 112.1269454956055 L 185.5169677734375 112.1269454956055 L 185.5169677734375 104.5456390380859 C 185.6543121337891 104.4475631713867 185.7818603515625 104.3690948486328 185.9192047119141 104.2808227539062 C 185.9878845214844 104.2317962646484 186.0663757324219 104.1827392578125 186.1350555419922 104.1435089111328 C 186.3018341064453 104.0356292724609 186.4784240722656 103.9277420043945 186.6550140380859 103.8296737670898 C 186.8316040039062 103.7217788696289 187.0179901123047 103.6237106323242 187.2044067382812 103.525634765625 C 187.3515625 103.4471740722656 187.4987335205078 103.3687133789062 187.6458892822266 103.3000564575195 C 187.6949462890625 103.2608337402344 187.7636260986328 103.2412261962891 187.8224792480469 103.2117919921875 C 187.8322906494141 103.2117919921875 187.8421020507812 103.2117919921875 187.8421020507812 103.2019958496094 C 188.0088958740234 103.1235198974609 188.1756591796875 103.0450592041016 188.3522491455078 102.9666061401367 C 188.5484619140625 102.8783264160156 188.73486328125 102.7900619506836 188.9310607910156 102.7214126586914 C 189.1174774169922 102.6429443359375 189.3136901855469 102.5644836425781 189.5099182128906 102.4958190917969 C 189.6864929199219 102.4271697998047 189.8630981445312 102.3683319091797 190.0396881103516 102.3192901611328 C 190.0592956542969 102.3094863891602 190.0691070556641 102.3094863891602 190.0887298583984 102.2996826171875 C 190.383056640625 102.2015991210938 190.6871795654297 102.1133346557617 190.9913024902344 102.0348663330078 C 191.2758026123047 101.956413269043 191.5701293945312 101.8779525756836 191.8644561767578 101.8190994262695 C 191.8742523193359 101.8092956542969 191.8938751220703 101.8092956542969 191.9135131835938 101.8092956542969 C 192.0508575439453 101.7798690795898 192.197998046875 101.7504501342773 192.3451843261719 101.7308349609375 C 192.3844299316406 101.7210235595703 192.4334716796875 101.7112197875977 192.4825439453125 101.701416015625 C 192.5904388427734 101.671989440918 192.7081756591797 101.6621856689453 192.8258972167969 101.6425704956055 C 192.9828643798828 101.6131362915039 193.1300048828125 101.5935363769531 193.2870025634766 101.5739135742188 C 193.73828125 101.5150756835938 194.1895599365234 101.475830078125 194.6506805419922 101.4464111328125 C 194.7880249023438 101.4365997314453 194.9351806640625 101.4267959594727 195.0627136230469 101.4267959594727 C 195.2589416503906 101.4267959594727 195.4649353027344 101.4169921875 195.6611633300781 101.4169921875 Z" stroke="none" fill="#fff"/>
  </g>
  <g id="Caminho_233" data-name="Caminho 233" transform="translate(-177.661 -101.986)" fill="none" stroke-miterlimit="10">
    <path d="M205.835,131.337v3.492a.01.01,0,0,1-.01.01c-.1.069-.2.137-.294.2-.01.01-.02.01-.029.02-.186.118-.373.245-.559.363-.029.01-.039.02-.069.029a1.707,1.707,0,0,1-.177.108c-.108.059-.216.128-.334.186-.069.039-.137.078-.216.118-.186.1-.383.2-.569.294-.01,0-.01.01-.02.01-.177.088-.353.177-.54.255s-.363.167-.549.245c-.373.147-.755.294-1.138.412-.108.039-.216.069-.334.108l-.383.118c-.088.02-.186.049-.284.078l-.736.177a1.389,1.389,0,0,1-.2.039,1.822,1.822,0,0,1-.334.059,3.369,3.369,0,0,1-.432.088h-.01c-.373.069-.755.118-1.138.157a.088.088,0,0,0-.049.01c-.2.01-.412.029-.618.039-.049,0-.1.01-.157.01a.9.9,0,0,1-.167.01c-.275.02-.549.02-.834.02-.3,0-.608,0-.9-.02h-.01c-.128-.01-.245-.01-.363-.029a1.449,1.449,0,0,1-.206-.01h-.01a15.287,15.287,0,0,1-1.638-.216,1.043,1.043,0,0,1-.186-.039c-.118-.01-.226-.039-.343-.059-.167-.039-.334-.069-.5-.108-.147-.039-.294-.069-.441-.108l-.53-.147c-.157-.049-.314-.1-.471-.157h-.02v-.01c-.186-.049-.363-.118-.549-.177s-.373-.137-.559-.216-.383-.167-.579-.255c-.177-.078-.343-.157-.51-.235-.01-.01-.029-.01-.039-.02a.782.782,0,0,1-.157-.078c-.147-.069-.294-.147-.441-.226a5.991,5.991,0,0,1-.549-.3c-.177-.1-.353-.206-.52-.314-.069-.039-.147-.088-.216-.137-.137-.088-.265-.167-.4-.265v-3.521Z" stroke="none"/>
    <path d="M 185.7669677734375 131.5870056152344 L 185.7669677734375 134.7268829345703 C 185.8333435058594 134.7714385986328 185.8992767333984 134.8134460449219 185.9676971435547 134.8570404052734 L 186.0644836425781 134.9192810058594 C 186.1203002929688 134.9591369628906 186.1912231445312 135.0042266845703 186.2590484619141 135.04296875 L 186.2708587646484 135.0501556396484 C 186.4479370117188 135.1647186279297 186.6180267333984 135.2673950195312 186.7763671875 135.3553161621094 L 186.7853698730469 135.3605651855469 C 186.9983062744141 135.4906768798828 187.1605377197266 135.5805511474609 187.3113861083984 135.6519775390625 L 187.322021484375 135.6573333740234 C 187.4637908935547 135.73291015625 187.6103973388672 135.8110809326172 187.7515869140625 135.8769683837891 L 187.7744903564453 135.8891296386719 C 187.8144989013672 135.9131164550781 187.8490447998047 135.933837890625 187.8818817138672 135.9447784423828 L 187.9378967285156 135.9634399414062 L 187.9481506347656 135.9737091064453 C 187.9538879394531 135.9766235351562 187.9598999023438 135.9799194335938 187.9660949707031 135.983642578125 C 188.1230316162109 136.0574645996094 188.2852020263672 136.1336059570312 188.4548034667969 136.208984375 C 188.5020599365234 136.2302398681641 188.5487670898438 136.2515106201172 188.5951690673828 136.2726287841797 C 188.7416687011719 136.3393096923828 188.8800354003906 136.4023132324219 189.0280456542969 136.4615478515625 C 189.2075653076172 136.537109375 189.3924255371094 136.6052856445312 189.5713806152344 136.6711883544922 C 189.63916015625 136.6926727294922 189.7057189941406 136.7153778076172 189.7719116210938 136.7379913330078 C 189.8858795166016 136.7768859863281 189.9934997558594 136.8136291503906 190.1033020019531 136.842529296875 L 190.2896881103516 136.8915710449219 L 190.2896881103516 136.9109344482422 C 190.3915557861328 136.9457244873047 190.4942626953125 136.9778594970703 190.6009368896484 137.0111846923828 L 191.1244201660156 137.1565551757812 C 191.1942901611328 137.1752014160156 191.2639770507812 137.1914520263672 191.3377685546875 137.2086639404297 C 191.4106750488281 137.2256774902344 191.4860076904297 137.2432403564453 191.5619812011719 137.263427734375 C 191.6408386230469 137.2819061279297 191.7191772460938 137.2980346679688 191.8020324707031 137.3150787353516 C 191.8831787109375 137.331787109375 191.9670104980469 137.3490295410156 192.0511627197266 137.3686828613281 C 192.0926666259766 137.3757629394531 192.1330718994141 137.3838958740234 192.1731262207031 137.3919830322266 C 192.2405548095703 137.4056091308594 192.3042297363281 137.41845703125 192.3659210205078 137.4235992431641 L 192.3957977294922 137.4260864257812 L 192.4242553710938 137.4355621337891 C 192.4618072509766 137.4480895996094 192.5033874511719 137.4553985595703 192.5670013427734 137.4644927978516 L 192.5762786865234 137.4660034179688 C 193.1660461425781 137.5731658935547 193.6903839111328 137.6424560546875 194.1788635253906 137.677734375 L 194.1975250244141 137.677734375 L 194.2151031494141 137.6802368164062 C 194.2662200927734 137.6875457763672 194.3243103027344 137.6875457763672 194.3858032226562 137.6875457763672 L 194.4064788818359 137.6875457763672 L 194.4268798828125 137.6909484863281 C 194.4929504394531 137.7019500732422 194.5652465820312 137.7058258056641 194.6417694091797 137.7099304199219 C 194.6798553466797 137.7119598388672 194.7185821533203 137.7140655517578 194.7581787109375 137.7169799804688 L 194.7752075195312 137.717529296875 C 195.0612335205078 137.7365875244141 195.3662109375 137.7365875244141 195.6611633300781 137.7365875244141 C 195.9441528320312 137.7365875244141 196.2114562988281 137.7365875244141 196.4772796630859 137.7176208496094 L 196.4950714111328 137.7169799804688 C 196.5386199951172 137.7169799804688 196.5879974365234 137.7169799804688 196.6127319335938 137.7120208740234 L 196.6370544433594 137.7071533203125 L 196.6618499755859 137.7071533203125 C 196.6807098388672 137.7071533203125 196.7006683349609 137.7052612304688 196.7237701416016 137.7030487060547 C 196.7499542236328 137.7005462646484 196.7794189453125 137.6977386474609 196.81201171875 137.6973876953125 C 196.9146575927734 137.6924285888672 197.0221557617188 137.6848297119141 197.1261901855469 137.677490234375 C 197.2148590087891 137.6712341308594 197.3025665283203 137.6650543212891 197.3871154785156 137.660400390625 C 197.4219970703125 137.6506195068359 197.4510650634766 137.6487579345703 197.4722442626953 137.6483917236328 C 197.8944854736328 137.6048583984375 198.2565002441406 137.5548400878906 198.5787048339844 137.4955291748047 L 198.6011352539062 137.4913940429688 L 198.6168060302734 137.4913940429688 C 198.7380065917969 137.4744873046875 198.860595703125 137.4490051269531 199.0010070800781 137.4115600585938 L 199.0225372314453 137.4058074951172 L 199.0447235107422 137.4039611816406 C 199.1446990966797 137.3956604003906 199.2363891601562 137.3794708251953 199.333251953125 137.3530578613281 L 199.3637390136719 137.3467712402344 C 199.4290466308594 137.3374481201172 199.4743499755859 137.32958984375 199.5265960693359 137.3146667480469 L 199.5368957519531 137.3119506835938 L 200.2659149169922 137.1370391845703 C 200.3610687255859 137.1085052490234 200.4591064453125 137.0792388916016 200.5512237548828 137.0582580566406 L 200.921875 136.9442596435547 C 200.9706878662109 136.9280242919922 201.0178833007812 136.9133911132812 201.0641021728516 136.8990783691406 C 201.1278686523438 136.8793182373047 201.1880950927734 136.8606567382812 201.2463073730469 136.8395080566406 L 201.2582092285156 136.8355102539062 C 201.6431579589844 136.7171020507812 202.0366363525391 136.564697265625 202.3755187988281 136.4309539794922 C 202.5623626708984 136.3523101806641 202.7388916015625 136.2779388427734 202.9073486328125 136.1937408447266 L 202.9221496582031 136.1869354248047 C 203.0986022949219 136.1126556396484 203.2644958496094 136.0299377441406 203.439697265625 135.9423522949219 C 203.453369140625 135.9337921142578 203.4670257568359 135.927001953125 203.4802856445312 135.9216613769531 C 203.5683441162109 135.8754730224609 203.6584320068359 135.8292846679688 203.7484893798828 135.7831268310547 C 203.8434600830078 135.7344360351562 203.9384155273438 135.6857604980469 204.0309448242188 135.6370849609375 L 204.0355682373047 135.6347198486328 C 204.1077880859375 135.5986175537109 204.1715087890625 135.5622100830078 204.2391967773438 135.5235595703125 L 204.2514190673828 135.5170135498047 C 204.3165283203125 135.4844818115234 204.3790130615234 135.4481964111328 204.4451599121094 135.4097900390625 C 204.4895172119141 135.384033203125 204.5332946777344 135.3586578369141 204.5770568847656 135.3347778320312 L 204.5849761962891 135.3306579589844 C 204.6299438476562 135.3081817626953 204.6808166503906 135.2742614746094 204.7346801757812 135.2383575439453 L 204.7588653564453 135.2212524414062 L 204.7959442138672 135.2080383300781 C 204.8038177490234 135.2041168212891 204.8148193359375 135.1986083984375 204.8290557861328 135.1925811767578 C 204.9142150878906 135.1384887695312 204.9993743896484 135.0824890136719 205.0845184326172 135.0264739990234 C 205.1747283935547 134.9671478271484 205.2649383544922 134.9078216552734 205.3551330566406 134.8506622314453 C 205.36181640625 134.8456420898438 205.3682098388672 134.8412780761719 205.3741149902344 134.8375091552734 L 205.3757781982422 134.8358612060547 L 205.4020690917969 134.8200988769531 C 205.4615783691406 134.7843933105469 205.5232543945312 134.7432708740234 205.5847778320312 134.7009124755859 L 205.5847778320312 131.5870056152344 L 185.7669677734375 131.5870056152344 M 185.5169677734375 131.3370056152344 L 205.8347778320312 131.3370056152344 L 205.8347778320312 134.8285217285156 C 205.8347778320312 134.8285217285156 205.8347778320312 134.8383178710938 205.824951171875 134.8383178710938 C 205.7268676757812 134.906982421875 205.6287536621094 134.9756317138672 205.5306701660156 135.0344696044922 C 205.5208282470703 135.0442962646484 205.5110321044922 135.0442962646484 205.501220703125 135.0540771484375 C 205.3148193359375 135.1717834472656 205.12841796875 135.2992858886719 204.9420166015625 135.4169769287109 C 204.9125823974609 135.4267883300781 204.9027557373047 135.4365844726562 204.8733367919922 135.4463958740234 C 204.8144683837891 135.4856262207031 204.7555999755859 135.5248565673828 204.6967468261719 135.5542755126953 C 204.5888214111328 135.6131286621094 204.4809112548828 135.6817932128906 204.3631896972656 135.7406311035156 C 204.2945098876953 135.7798614501953 204.2258453369141 135.819091796875 204.1473388671875 135.8583374023438 C 203.9609527587891 135.9563903808594 203.7647552490234 136.0544738769531 203.5783233642578 136.1525421142578 C 203.5685272216797 136.1525421142578 203.5685272216797 136.162353515625 203.5587158203125 136.162353515625 C 203.3821258544922 136.2506256103516 203.2055358886719 136.3388977050781 203.0191192626953 136.4173583984375 C 202.8425445556641 136.505615234375 202.6561431884766 136.5840759277344 202.4697265625 136.6625518798828 C 202.0969390869141 136.8096771240234 201.7142944335938 136.956787109375 201.3317108154297 137.074462890625 C 201.2237701416016 137.1137084960938 201.1158752441406 137.1431274414062 200.9981384277344 137.1823577880859 L 200.6155090332031 137.300048828125 C 200.5272369384766 137.3196563720703 200.4291229248047 137.3490905761719 200.3310241699219 137.3785095214844 C 200.0857696533203 137.4373626708984 199.8404846191406 137.4962005615234 199.5952301025391 137.5550537109375 C 199.5265502929688 137.5746612548828 199.4676818847656 137.58447265625 199.3990173339844 137.5942687988281 C 199.2911071777344 137.6236877441406 199.1831817626953 137.643310546875 199.0654449462891 137.6531066894531 C 198.9182891845703 137.6923522949219 198.7809448242188 137.7217712402344 198.6337890625 137.7413940429688 L 198.6239624023438 137.7413940429688 C 198.2511596679688 137.8100280761719 197.8685455322266 137.8590698242188 197.4859466552734 137.8983154296875 C 197.46630859375 137.8983154296875 197.4565124511719 137.8983154296875 197.4368896484375 137.9081268310547 C 197.2406616210938 137.9179229736328 197.0248260498047 137.9375457763672 196.8188323974609 137.9473419189453 C 196.7697601318359 137.9473419189453 196.720703125 137.9571533203125 196.6618499755859 137.9571533203125 C 196.61279296875 137.9669799804688 196.5539398193359 137.9669799804688 196.4950714111328 137.9669799804688 C 196.2203674316406 137.9865875244141 195.9456787109375 137.9865875244141 195.6611633300781 137.9865875244141 C 195.3570404052734 137.9865875244141 195.0529174804688 137.9865875244141 194.7585906982422 137.9669799804688 L 194.748779296875 137.9669799804688 C 194.6212463378906 137.9571533203125 194.5035095214844 137.9571533203125 194.3858032226562 137.9375457763672 C 194.3171081542969 137.9375457763672 194.2484588623047 137.9375457763672 194.1797637939453 137.927734375 L 194.1699523925781 137.927734375 C 193.6205444335938 137.8884887695312 193.0711517333984 137.8100280761719 192.5315856933594 137.7119750976562 C 192.462890625 137.7021484375 192.4040374755859 137.6923522949219 192.3451843261719 137.6727294921875 C 192.2274322509766 137.6629333496094 192.1195373535156 137.6335144042969 192.0018005371094 137.6138916015625 C 191.8350219726562 137.5746612548828 191.6682434082031 137.5452423095703 191.50146484375 137.5060119628906 C 191.3542938232422 137.4667816162109 191.2071533203125 137.4373626708984 191.0599975585938 137.3981170654297 L 190.5302124023438 137.2510070800781 C 190.3732299804688 137.2019653320312 190.2162780761719 137.1529235839844 190.0592956542969 137.0940856933594 L 190.0396881103516 137.0940856933594 L 190.0396881103516 137.0842895507812 C 189.853271484375 137.0352478027344 189.6766815185547 136.9665832519531 189.4902801513672 136.9077453613281 C 189.3038787841797 136.8390960693359 189.1174774169922 136.7704315185547 188.9310607910156 136.6919708251953 C 188.73486328125 136.6134948730469 188.5484619140625 136.5252380371094 188.3522491455078 136.4369812011719 C 188.1756591796875 136.3585052490234 188.0088958740234 136.2800598144531 187.8421020507812 136.2015991210938 C 187.8322906494141 136.1917724609375 187.8126678466797 136.1917724609375 187.8028564453125 136.1819610595703 C 187.7440032958984 136.162353515625 187.6949462890625 136.1329345703125 187.6458892822266 136.103515625 C 187.4987335205078 136.0348510742188 187.3515625 135.9563903808594 187.2044067382812 135.8779296875 C 187.0179901123047 135.7896728515625 186.8316040039062 135.6817932128906 186.6550140380859 135.5738830566406 C 186.4784240722656 135.475830078125 186.3018341064453 135.3679504394531 186.1350555419922 135.2600555419922 C 186.0663757324219 135.2208251953125 185.9878845214844 135.1717834472656 185.9192047119141 135.1227416992188 C 185.7818603515625 135.0344696044922 185.6543121337891 134.9560241699219 185.5169677734375 134.8579406738281 L 185.5169677734375 131.3370056152344 Z" stroke="none" fill="#fff"/>
  </g>
</svg>
