<svg xmlns="http://www.w3.org/2000/svg" width="50" height="50.001" viewBox="0 0 50 50.001">
  <g id="Grupo_1002" data-name="Grupo 1002" transform="translate(-162.007 -328)">
    <path id="Caminho_203" data-name="Caminho 203" d="M227.507,126.417a24.807,24.807,0,0,1-6.185,16.444c-.259.286-.518.572-.777.845-.123.123-.245.259-.368.368-.531.545-1.09,1.049-1.662,1.539-.286.245-.586.477-.886.695-.327.259-.654.49-.995.722a.013.013,0,0,1-.014.014c-.136.1-.272.191-.409.272-.014.014-.027.014-.041.027-.259.163-.518.341-.777.5-.041.014-.055.027-.1.041a2.378,2.378,0,0,1-.245.15c-.15.082-.3.177-.463.259-.1.054-.191.109-.3.163-.259.136-.531.272-.79.409-.014,0-.014.014-.027.014-.245.123-.49.245-.749.354s-.5.232-.763.341c-.518.2-1.049.409-1.58.572-.15.055-.3.1-.463.15l-.531.163c-.123.027-.259.068-.4.109l-1.022.245a1.929,1.929,0,0,1-.272.054,2.529,2.529,0,0,1-.463.082,4.677,4.677,0,0,1-.6.123h-.014c-.518.1-1.049.163-1.58.218a.123.123,0,0,0-.068.014c-.272.014-.572.041-.858.054-.068,0-.136.014-.218.014a1.248,1.248,0,0,1-.232.014c-.381.027-.763.027-1.158.027-.422,0-.845,0-1.253-.027h-.014c-.177-.014-.341-.014-.5-.041a2.01,2.01,0,0,1-.286-.014h-.014a21.216,21.216,0,0,1-2.275-.3,1.444,1.444,0,0,1-.259-.054c-.163-.014-.313-.054-.477-.082-.232-.054-.463-.1-.695-.15-.2-.054-.409-.1-.613-.15l-.736-.2c-.218-.068-.436-.136-.654-.218H194.7v-.014c-.259-.068-.5-.163-.763-.245s-.518-.191-.777-.3-.531-.232-.8-.354c-.245-.109-.477-.218-.708-.327-.014-.014-.041-.014-.054-.027a1.084,1.084,0,0,1-.218-.109c-.2-.1-.409-.2-.613-.313a8.325,8.325,0,0,1-.763-.422c-.245-.136-.49-.286-.722-.436-.1-.055-.2-.123-.3-.191-.191-.123-.368-.232-.559-.368-.027-.014-.054-.041-.082-.055a2.755,2.755,0,0,1-.245-.177c-.041-.027-.1-.068-.136-.1-.163-.123-.327-.245-.5-.368-.041-.027-.1-.068-.15-.109-.259-.2-.518-.409-.777-.627s-.545-.463-.8-.695c-.123-.109-.259-.245-.381-.368-.245-.218-.477-.45-.722-.695-.3-.313-.6-.627-.886-.954a25.009,25.009,0,0,1,0-33.024c.286-.327.586-.64.886-.954a1.559,1.559,0,0,0,.15-.15c.191-.191.381-.368.572-.545.123-.123.259-.259.381-.368.259-.232.531-.463.8-.695s.518-.422.777-.613a.993.993,0,0,1,.15-.123c.177-.123.341-.245.5-.368.041-.027.1-.068.136-.1a2.756,2.756,0,0,1,.245-.177c.027-.014.054-.041.082-.055.191-.136.368-.245.559-.368.1-.068.2-.136.3-.191.232-.15.477-.3.722-.436s.5-.286.763-.422c.2-.109.409-.218.613-.313a1.372,1.372,0,0,1,.245-.123c.014,0,.027,0,.027-.014.232-.109.463-.218.708-.327.272-.123.531-.245.8-.341s.531-.218.8-.313q.368-.143.736-.245c.027-.014.041-.014.068-.027.409-.136.831-.259,1.253-.368.4-.109.8-.218,1.213-.3a.1.1,0,0,1,.068-.014c.191-.041.4-.082.6-.109.055-.014.123-.027.191-.041.15-.041.313-.055.477-.082.218-.041.422-.068.64-.1.627-.082,1.253-.136,1.894-.177.191-.014.4-.027.572-.027.273,0,.559-.014.831-.014q.695,0,1.39.041c.082,0,.15.014.218.014h.082c.409.027.817.068,1.24.109l.014.014.777.1.054.014c.327.054.64.1.954.163a.685.685,0,0,1,.164.027l.572.123a2.411,2.411,0,0,1,.422.109c.232.041.45.109.668.163.109.027.245.068.354.1.164.041.341.1.5.15s.313.1.463.15c.531.177,1.063.368,1.58.586.259.109.518.218.763.327s.5.232.749.368c.014,0,.014.014.027.014a3.275,3.275,0,0,1,.313.15c.163.082.327.163.477.245.109.054.2.109.3.163.163.082.313.177.463.259.082.054.163.1.245.15a.341.341,0,0,1,.1.054c.259.15.518.327.777.49.014.014.027.014.041.027.136.082.272.177.409.272a.013.013,0,0,1,.014.014c.341.232.668.463.995.722.3.218.6.463.886.695a26.867,26.867,0,0,1,2.03,1.907c.259.272.518.559.777.845A24.807,24.807,0,0,1,227.507,126.417Z" transform="translate(-15.5 226.583)" fill="#00a6c4"/>
    <path id="Caminho_204" data-name="Caminho 204" d="M211.81,104.8v43.232c-.152.093-.31.184-.47.267-.1.05-.193.109-.294.159-.26.142-.536.275-.8.41-.008,0-.008.008-.016.008-.251.125-.5.251-.754.36s-.511.225-.772.334q-.779.327-1.584.576c-.152.059-.3.1-.462.151-.175.059-.351.109-.527.158-.134.034-.268.076-.4.109-.335.093-.679.176-1.022.251-.093.026-.184.042-.277.059a3.806,3.806,0,0,1-.46.083c-.2.05-.4.085-.6.117h-.008c-.519.093-1.056.159-1.593.218a.15.15,0,0,0-.059.008c-.284.025-.578.05-.862.059a2,2,0,0,1-.219.016,2.171,2.171,0,0,1-.235.008c-.385.026-.771.034-1.166.034-.418,0-.838-.008-1.257-.034h-.008a2.137,2.137,0,0,1-.227-.016c-.193,0-.377-.016-.57-.033h-.008a23.469,23.469,0,0,1-2.548-.343c-.16-.024-.318-.059-.478-.091-.227-.05-.46-.093-.687-.151l-.62-.15c-.251-.067-.495-.135-.738-.21-.217-.067-.444-.134-.663-.208-.008,0-.008,0-.016-.008-.519-.159-1.04-.351-1.543-.56-.276-.109-.545-.226-.813-.343-.243-.109-.478-.217-.712-.334l-.059-.026a1.6,1.6,0,0,1-.21-.108c-.209-.093-.41-.2-.612-.309-.26-.135-.519-.277-.771-.426v-43.3c.251-.151.511-.293.771-.426.2-.109.4-.218.612-.309a.966.966,0,0,1,.21-.1.2.2,0,0,1,.059-.033c.234-.117.469-.226.712-.335.268-.116.537-.233.813-.342.5-.21,1.023-.392,1.543-.56.026-.008.042-.016.067-.026.411-.134.831-.259,1.249-.368s.8-.208,1.216-.292c.025-.008.042-.008.067-.018.193-.041.4-.083.6-.116a1.359,1.359,0,0,1,.193-.034c.16-.034.318-.059.478-.083.217-.034.428-.067.645-.093.6-.083,1.2-.134,1.81-.168a.357.357,0,0,1,.093-.008c.193-.016.385-.025.57-.025.276-.008.553-.016.829-.016.47,0,.94.016,1.4.041.075,0,.142.008.219.008.025,0,.057.01.083.01.41.025.821.067,1.233.108.008,0,.008,0,.016.008h.008l.78.1.051.008c.327.05.637.1.955.168a1.081,1.081,0,0,1,.16.025l.578.125a4.125,4.125,0,0,1,.428.1c.225.05.444.109.661.168l.361.1c.168.042.336.093.5.151.152.05.31.091.462.15.536.168,1.073.36,1.584.578.261.108.521.217.772.334s.5.234.754.36c.008,0,.008.008.016.008.269.134.545.267.8.41.1.049.193.108.294.158C211.5,104.617,211.658,104.71,211.81,104.8Z" transform="translate(-12.214 226.583)" fill="#333"/>
    <g id="Caminho_205" data-name="Caminho 205" transform="translate(-11.752 226.911)" fill="#fff" stroke-miterlimit="10">
      <path d="M 189.3999938964844 113.5988159179688 C 188.5684661865234 113.5988159179688 187.8919830322266 112.9253692626953 187.8919830322266 112.0975799560547 L 187.8919830322266 103.6228713989258 C 187.8973083496094 103.6202163696289 187.9032135009766 103.6176834106445 187.9087524414062 103.6153030395508 L 187.9213562011719 103.6097640991211 C 188.1273498535156 103.5061950683594 188.3516082763672 103.4003143310547 188.6286163330078 103.2758331298828 L 188.6769409179688 103.2548675537109 C 188.9232330322266 103.1479873657227 189.1779022216797 103.0374755859375 189.4347229003906 102.9357528686523 C 189.8634338378906 102.7563629150391 190.3302764892578 102.5855865478516 190.8999176025391 102.3998107910156 L 190.8999176025391 112.0975799560547 C 190.8999176025391 112.9253692626953 190.22705078125 113.5988159179688 189.3999938964844 113.5988159179688 Z" stroke="none"/>
      <path d="M 190.8499145507812 102.4687957763672 C 190.3111267089844 102.645881652832 189.8648529052734 102.8099670410156 189.4531402587891 102.9822387695312 C 189.1970672607422 103.0836639404297 188.9427642822266 103.1940155029297 188.6968383789062 103.3007354736328 L 188.6491088867188 103.3214340209961 C 188.3727874755859 103.4456176757812 188.1491546630859 103.5511932373047 187.9423370361328 103.655158996582 L 187.9419860839844 103.6553115844727 L 187.9419860839844 112.0975799560547 C 187.9419860839844 112.8977966308594 188.5960388183594 113.5488128662109 189.3999938964844 113.5488128662109 C 190.1994781494141 113.5488128662109 190.8499145507812 112.8977966308594 190.8499145507812 112.0975799560547 L 190.8499145507812 102.4687957763672 M 190.9499206542969 102.3309936523438 L 190.9499206542969 112.0975799560547 C 190.9499206542969 112.9560546875 190.2585144042969 113.6488189697266 189.3999938964844 113.6488189697266 C 188.5415344238281 113.6488189697266 187.8419799804688 112.9560546875 187.8419799804688 112.0975799560547 L 187.8419799804688 103.5969696044922 C 187.8582763671875 103.5806732177734 187.8827514648438 103.5725250244141 187.900390625 103.5643768310547 C 188.1326599121094 103.4475555419922 188.3663024902344 103.3388977050781 188.6081237792969 103.230224609375 C 188.8743286132812 103.11474609375 189.1419372558594 102.9979400634766 189.4163208007812 102.8892669677734 C 189.9161987304688 102.6800842285156 190.4337158203125 102.4980773925781 190.9499206542969 102.3309936523438 Z" stroke="none" fill="#968f8a"/>
    </g>
    <g id="Caminho_206" data-name="Caminho 206" transform="translate(-10.072 226.596)" fill="#fff" stroke-miterlimit="10">
      <path d="M 194.0320129394531 113.9134521484375 C 193.2004699707031 113.9134521484375 192.5239715576172 113.2399978637695 192.5239715576172 112.4122085571289 L 192.5239715576172 101.868522644043 C 192.5742645263672 101.8573226928711 192.6211547851562 101.8510971069336 192.6716003417969 101.8449249267578 C 192.8366088867188 101.8098449707031 192.9951782226562 101.7854385375977 193.1484985351562 101.761848449707 C 193.3442993164062 101.7310791015625 193.5660247802734 101.6962203979492 193.7880096435547 101.6697082519531 C 194.3071441650391 101.5971069335938 194.8778228759766 101.5435028076172 195.5318908691406 101.5059051513672 L 195.5318908691406 112.4122085571289 C 195.5318908691406 113.2399978637695 194.8590393066406 113.9134521484375 194.0320129394531 113.9134521484375 Z" stroke="none"/>
      <path d="M 195.4818725585938 101.5588912963867 C 194.8441925048828 101.596549987793 194.3058929443359 101.6477584838867 193.7939453125 101.7193450927734 C 193.5728759765625 101.7457580566406 193.3516235351562 101.7805404663086 193.1561126708984 101.8112716674805 C 193.0034790039062 101.8347549438477 192.8456573486328 101.8590393066406 192.6864166259766 101.8930816650391 L 192.6776580810547 101.8945541381836 C 192.6420440673828 101.8989028930664 192.6083068847656 101.9032745361328 192.5739593505859 101.9094696044922 L 192.5739593505859 112.4122085571289 C 192.5739593505859 113.2124328613281 193.2280426025391 113.8634490966797 194.0320129394531 113.8634490966797 C 194.8314666748047 113.8634490966797 195.4818725585938 113.2124328613281 195.4818725585938 112.4122085571289 L 195.4818725585938 101.5588912963867 M 195.5818786621094 101.4529876708984 L 195.5818786621094 112.4122085571289 C 195.5818786621094 113.2706680297852 194.8905029296875 113.9634552001953 194.0320129394531 113.9634552001953 C 193.1735229492188 113.9634552001953 192.4739685058594 113.2706680297852 192.4739685058594 112.4122085571289 L 192.4739685058594 101.8292541503906 C 192.54052734375 101.8115997314453 192.5989379882812 101.8034286499023 192.66552734375 101.7952880859375 C 192.8244323730469 101.7613220214844 192.9820251464844 101.7368850708008 193.1408996582031 101.7124328613281 C 193.3569030761719 101.6784820556641 193.5661010742188 101.6458587646484 193.7820739746094 101.6200485229492 C 194.3743286132812 101.5372085571289 194.9733581542969 101.4869384765625 195.5818786621094 101.4529876708984 Z" stroke="none" fill="#968f8a"/>
    </g>
    <g id="Caminho_207" data-name="Caminho 207" transform="translate(-8.416 226.596)" fill="#fff" stroke-miterlimit="10">
      <path d="M 198.5888214111328 113.9134521484375 C 197.7618103027344 113.9134521484375 197.0889892578125 113.2399978637695 197.0889892578125 112.4122085571289 L 197.0889892578125 101.5097808837891 C 197.0998077392578 101.5113296508789 197.1108093261719 101.5124893188477 197.1218719482422 101.5124893188477 C 197.4955444335938 101.5350036621094 197.8803100585938 101.5734405517578 198.2524261474609 101.6106109619141 L 198.3333740234375 101.6186904907227 L 198.3396911621094 101.6250076293945 L 198.3633880615234 101.6279602050781 L 198.3682403564453 101.6279602050781 L 199.1407470703125 101.7280731201172 L 199.1894073486328 101.735969543457 C 199.5261077880859 101.7881088256836 199.8111114501953 101.8353500366211 200.0969085693359 101.8943557739258 L 200.0969085693359 112.4122085571289 C 200.0969085693359 113.2399978637695 199.4203796386719 113.9134521484375 198.5888214111328 113.9134521484375 Z" stroke="none"/>
      <path d="M 197.1389770507812 101.563720703125 L 197.1389770507812 112.4122085571289 C 197.1389770507812 113.2124328613281 197.7893829345703 113.8634490966797 198.5888214111328 113.8634490966797 C 199.3928070068359 113.8634490966797 200.0468902587891 113.2124328613281 200.0468902587891 112.4122085571289 L 200.0468902587891 101.9351654052734 C 199.7753601074219 101.8801116943359 199.5019836425781 101.8349685668945 199.1814270019531 101.7853317260742 L 199.1343231201172 101.7776489257812 L 198.3196716308594 101.6747207641602 L 198.3114318847656 101.6667556762695 L 198.2474517822266 101.6603622436523 C 197.8834533691406 101.6240005493164 197.5072784423828 101.58642578125 197.1389770507812 101.563720703125 M 197.0389862060547 101.4529876708984 C 197.0634613037109 101.4529876708984 197.0960235595703 101.4624938964844 197.1218719482422 101.4624938964844 C 197.5293121337891 101.4869384765625 197.9382171630859 101.5290679931641 198.3470611572266 101.5698089599609 C 198.3552398681641 101.5698089599609 198.3552398681641 101.5698089599609 198.3633880615234 101.5779647827148 L 198.3715057373047 101.5779647827148 L 199.1974029541016 101.6866149902344 C 199.5220489501953 101.7368850708008 199.8303985595703 101.7871398925781 200.1468963623047 101.8536987304688 L 200.1468963623047 112.4122085571289 C 200.1468963623047 113.2706680297852 199.4473419189453 113.9634552001953 198.5888214111328 113.9634552001953 C 197.7303924560547 113.9634552001953 197.0389862060547 113.2706680297852 197.0389862060547 112.4122085571289 L 197.0389862060547 101.4529876708984 Z" stroke="none" fill="#968f8a"/>
    </g>
    <g id="Caminho_208" data-name="Caminho 208" transform="translate(-6.75 226.917)" fill="#fff" stroke-miterlimit="10">
      <path d="M 203.1920471191406 113.5923690795898 C 202.3605041503906 113.5923690795898 201.6840057373047 112.9189224243164 201.6840057373047 112.0911331176758 L 201.6840057373047 102.4172058105469 C 202.2257080078125 102.5892028808594 202.7316131591797 102.7753524780273 203.1886749267578 102.9709014892578 C 203.47802734375 103.0905990600586 203.7187042236328 103.1927642822266 203.9546203613281 103.3030319213867 C 204.1951751708984 103.4154281616211 204.4437866210938 103.5315933227539 204.6919250488281 103.6553955078125 L 204.6919250488281 112.0911331176758 C 204.6919250488281 112.9189224243164 204.0190734863281 113.5923690795898 203.1920471191406 113.5923690795898 Z" stroke="none"/>
      <path d="M 201.7339935302734 102.4856643676758 L 201.7339935302734 112.0911331176758 C 201.7339935302734 112.8913497924805 202.3880767822266 113.5423736572266 203.1920471191406 113.5423736572266 C 203.9915008544922 113.5423736572266 204.6419067382812 112.8913497924805 204.6419067382812 112.0911331176758 L 204.6419067382812 103.6863555908203 C 204.4035339355469 103.5679702758789 204.1647796630859 103.4564056396484 203.9334564208984 103.3483200073242 C 203.6983795166016 103.2384490966797 203.4582824707031 103.1365432739258 203.1690216064453 103.0168685913086 C 202.7317657470703 102.8298034667969 202.2496185302734 102.6513519287109 201.7339935302734 102.4856643676758 M 201.6340026855469 102.348991394043 C 202.1664733886719 102.5160751342773 202.7003173828125 102.7075881958008 203.2083435058594 102.924934387207 C 203.4677734375 103.0322494506836 203.7258605957031 103.1409149169922 203.9757995605469 103.2577285766602 C 204.2257690429688 103.3745346069336 204.4756469726562 103.4913711547852 204.7256164550781 103.616340637207 C 204.7337646484375 103.616340637207 204.7337646484375 103.6244888305664 204.7419128417969 103.6244888305664 L 204.7419128417969 112.0911331176758 C 204.7419128417969 112.949592590332 204.0505065917969 113.6423721313477 203.1920471191406 113.6423721313477 C 202.3335571289062 113.6423721313477 201.6340026855469 112.949592590332 201.6340026855469 112.0911331176758 L 201.6340026855469 102.348991394043 Z" stroke="none" fill="#968f8a"/>
    </g>
    <g id="Retângulo_651" data-name="Retângulo 651" transform="translate(176.09 346.843)" fill="#fff" stroke="#968f8a" stroke-miterlimit="10" stroke-width="0.1">
      <rect width="3.11" height="18.663" rx="1.145" stroke="none"/>
      <rect x="0.05" y="0.05" width="3.01" height="18.563" rx="1.095" fill="none"/>
    </g>
    <g id="Retângulo_652" data-name="Retângulo 652" transform="translate(182.404 346.843)" fill="#fff" stroke="#968f8a" stroke-miterlimit="10" stroke-width="0.1">
      <rect width="3.11" height="18.663" rx="1.145" stroke="none"/>
      <rect x="0.05" y="0.05" width="3.01" height="18.563" rx="1.095" fill="none"/>
    </g>
    <g id="Retângulo_653" data-name="Retângulo 653" transform="translate(188.62 346.843)" fill="#fff" stroke="#968f8a" stroke-miterlimit="10" stroke-width="0.1">
      <rect width="3.11" height="18.663" rx="1.145" stroke="none"/>
      <rect x="0.05" y="0.05" width="3.01" height="18.563" rx="1.095" fill="none"/>
    </g>
    <g id="Retângulo_654" data-name="Retângulo 654" transform="translate(194.885 346.843)" fill="#fff" stroke="#968f8a" stroke-miterlimit="10" stroke-width="0.1">
      <rect width="3.11" height="18.663" rx="1.145" stroke="none"/>
      <rect x="0.05" y="0.05" width="3.01" height="18.563" rx="1.095" fill="none"/>
    </g>
    <g id="Caminho_209" data-name="Caminho 209" transform="translate(-11.752 238.27)" fill="#fff" stroke-miterlimit="10">
      <path d="M 190.8999176025391 138.4222259521484 C 190.4327697753906 138.2759704589844 189.9404602050781 138.0955963134766 189.4355163574219 137.8856658935547 C 189.1684875488281 137.7799072265625 188.9119567871094 137.6682586669922 188.6282043457031 137.5437316894531 C 188.4045562744141 137.4432220458984 188.1639556884766 137.3333282470703 187.9228668212891 137.2120666503906 C 187.9134674072266 137.2076873779297 187.9042053222656 137.2037353515625 187.8948669433594 137.1997680664062 C 187.8939056396484 137.1993560791016 187.8929443359375 137.1989440917969 187.8919830322266 137.1985473632812 L 187.8919830322266 135.1730041503906 C 187.8919830322266 134.3414764404297 188.5684661865234 133.6649932861328 189.3999938964844 133.6649932861328 C 190.22705078125 133.6649932861328 190.8999176025391 134.3414764404297 190.8999176025391 135.1730041503906 L 190.8999176025391 138.4222259521484 Z" stroke="none"/>
      <path d="M 189.3999938964844 133.7149963378906 C 188.5960388183594 133.7149963378906 187.9419860839844 134.3690490722656 187.9419860839844 135.1730041503906 L 187.9419860839844 137.1658325195312 C 187.9430847167969 137.1663513183594 187.9441986083984 137.1668701171875 187.9453277587891 137.1673889160156 C 188.1855773925781 137.2882385253906 188.4255676269531 137.3978576660156 188.6483001708984 137.4979553222656 C 188.9315948486328 137.6222686767578 189.1876831054688 137.7337188720703 189.4547119140625 137.8395080566406 C 189.9349060058594 138.0391387939453 190.4036102294922 138.2119598388672 190.8499145507812 138.3540191650391 L 190.8499145507812 135.1730041503906 C 190.8499145507812 134.3690490722656 190.1994781494141 133.7149963378906 189.3999938964844 133.7149963378906 M 189.3999938964844 133.614990234375 C 190.2585144042969 133.614990234375 190.9499206542969 134.3145141601562 190.9499206542969 135.1730041503906 L 190.9499206542969 138.4901123046875 C 190.4337158203125 138.3311920166016 189.9161987304688 138.1396636962891 189.4163208007812 137.9318389892578 C 189.1419372558594 137.8231658935547 188.8743286132812 137.7063446044922 188.6081237792969 137.5895233154297 C 188.3663024902344 137.4808502197266 188.1326599121094 137.3735504150391 187.900390625 137.2567291259766 C 187.8827514648438 137.2485656738281 187.8582763671875 137.2390594482422 187.8419799804688 137.2309112548828 L 187.8419799804688 135.1730041503906 C 187.8419799804688 134.3145141601562 188.5415344238281 133.614990234375 189.3999938964844 133.614990234375 Z" stroke="none" fill="#968f8a"/>
    </g>
    <g id="Caminho_210" data-name="Caminho 210" transform="translate(-10.072 238.27)" fill="#fff" stroke-miterlimit="10">
      <path d="M 195.5318908691406 139.6310119628906 C 195.3680267333984 139.6286468505859 195.2094116210938 139.6151428222656 195.0423889160156 139.6009063720703 L 195.0197143554688 139.5989685058594 L 195.00732421875 139.5988006591797 C 194.1879577636719 139.5338287353516 193.3514251708984 139.4215240478516 192.5239715576172 139.2650756835938 L 192.5239715576172 135.1730041503906 C 192.5239715576172 134.3414764404297 193.2004699707031 133.6649932861328 194.0320129394531 133.6649932861328 C 194.8590393066406 133.6649932861328 195.5318908691406 134.3414764404297 195.5318908691406 135.1730041503906 L 195.5318908691406 139.6310119628906 Z" stroke="none"/>
      <path d="M 194.0320129394531 133.7149963378906 C 193.2280426025391 133.7149963378906 192.5739593505859 134.3690490722656 192.5739593505859 135.1730041503906 L 192.5739593505859 139.2236022949219 C 193.3850555419922 139.3754730224609 194.2046661376953 139.4848480224609 195.0112915039062 139.5487823486328 L 195.0463409423828 139.5510559082031 C 195.1951599121094 139.5637359619141 195.3372802734375 139.5758514404297 195.4818725585938 139.5799407958984 L 195.4818725585938 135.1730041503906 C 195.4818725585938 134.3690490722656 194.8314666748047 133.7149963378906 194.0320129394531 133.7149963378906 M 194.0320129394531 133.614990234375 C 194.8905029296875 133.614990234375 195.5818786621094 134.3145141601562 195.5818786621094 135.1730041503906 L 195.5818786621094 139.6813812255859 C 195.390380859375 139.6813812255859 195.2069702148438 139.6650848388672 195.0154724121094 139.6487884521484 L 195.00732421875 139.6487884521484 C 194.1488342285156 139.5808868408203 193.3066711425781 139.4654235839844 192.4739685058594 139.3064727783203 L 192.4739685058594 135.1730041503906 C 192.4739685058594 134.3145141601562 193.1735229492188 133.614990234375 194.0320129394531 133.614990234375 Z" stroke="none" fill="#968f8a"/>
    </g>
    <g id="Caminho_211" data-name="Caminho 211" transform="translate(-8.416 238.27)" fill="#fff" stroke-miterlimit="10">
      <path d="M 197.0889892578125 139.6215972900391 L 197.0889892578125 135.1730041503906 C 197.0889892578125 134.3414764404297 197.7618103027344 133.6649932861328 198.5888214111328 133.6649932861328 C 199.4203796386719 133.6649932861328 200.0969085693359 134.3414764404297 200.0969085693359 135.1730041503906 L 200.0969085693359 139.2333374023438 C 199.9157257080078 139.2770690917969 199.7311096191406 139.3085327148438 199.5424194335938 139.3393402099609 L 199.5383453369141 139.3393402099609 L 199.5339050292969 139.3393402099609 L 199.5295257568359 139.3401184082031 C 198.9706726074219 139.4401397705078 198.3931121826172 139.5083770751953 197.9517974853516 139.5566864013672 C 197.9344940185547 139.5567016601562 197.9084930419922 139.5571441650391 197.8844604492188 139.5656585693359 L 197.864990234375 139.5673522949219 C 197.6091613769531 139.5894927978516 197.3451538085938 139.6123352050781 197.0889892578125 139.6215972900391 Z" stroke="none"/>
      <path d="M 198.5888214111328 133.7149963378906 C 197.7893829345703 133.7149963378906 197.1389770507812 134.3690490722656 197.1389770507812 135.1730041503906 L 197.1389770507812 139.569580078125 C 197.3776702880859 139.5593414306641 197.6227111816406 139.5381317138672 197.8606872558594 139.5175323486328 L 197.8742065429688 139.516357421875 C 197.9023742675781 139.5075531005859 197.9297180175781 139.5067443847656 197.9489593505859 139.5066833496094 C 198.3890991210938 139.45849609375 198.9643402099609 139.3904724121094 199.5207214355469 139.2908935546875 L 199.5384063720703 139.2893371582031 C 199.7113647460938 139.2610778808594 199.880859375 139.2322082519531 200.0468902587891 139.1937866210938 L 200.0468902587891 135.1730041503906 C 200.0468902587891 134.3690490722656 199.3928070068359 133.7149963378906 198.5888214111328 133.7149963378906 M 198.5888214111328 133.614990234375 C 199.4473419189453 133.614990234375 200.1468963623047 134.3145141601562 200.1468963623047 135.1730041503906 L 200.1468963623047 139.2725219726562 C 199.9471893310547 139.3227844238281 199.7461700439453 139.3567504882812 199.5464935302734 139.3893432617188 L 199.5383453369141 139.3893432617188 C 199.0221710205078 139.4817199707031 198.4883575439453 139.5482788085938 197.9545135498047 139.6066741943359 C 197.9382171630859 139.6066741943359 197.9137725830078 139.6066741943359 197.8961029052734 139.6148376464844 C 197.6135406494141 139.6392822265625 197.3214874267578 139.6650848388672 197.0389862060547 139.6732482910156 L 197.0389862060547 135.1730041503906 C 197.0389862060547 134.3145141601562 197.7303924560547 133.614990234375 198.5888214111328 133.614990234375 Z" stroke="none" fill="#968f8a"/>
    </g>
    <g id="Caminho_212" data-name="Caminho 212" transform="translate(-6.75 238.27)" fill="#fff" stroke-miterlimit="10">
      <path d="M 201.6840057373047 138.396240234375 L 201.6840057373047 135.1730041503906 C 201.6840057373047 134.3414764404297 202.3605041503906 133.6649932861328 203.1920471191406 133.6649932861328 C 204.0190734863281 133.6649932861328 204.6919250488281 134.3414764404297 204.6919250488281 135.1730041503906 L 204.6919250488281 137.1592712402344 C 204.4495697021484 137.2804412841797 204.2004089355469 137.4047698974609 203.9558715820312 137.5110778808594 C 203.7123565673828 137.6235656738281 203.4645538330078 137.7281951904297 203.1890411376953 137.8435974121094 C 202.6998596191406 138.0495452880859 202.1939239501953 138.2353210449219 201.6840057373047 138.396240234375 Z" stroke="none"/>
      <path d="M 203.1920471191406 133.7149963378906 C 202.3880767822266 133.7149963378906 201.7339935302734 134.3690490722656 201.7339935302734 135.1730041503906 L 201.7339935302734 138.3278961181641 C 202.2203826904297 138.1722717285156 202.7026977539062 137.9940948486328 203.1697235107422 137.7974700927734 C 203.4447937011719 137.6822662353516 203.6921539306641 137.5778350830078 203.9359283447266 137.4652252197266 C 204.1699829101562 137.3634796142578 204.4088745117188 137.2448425292969 204.6419067382812 137.1283721923828 L 204.6419067382812 135.1730041503906 C 204.6419067382812 134.3690490722656 203.9915008544922 133.7149963378906 203.1920471191406 133.7149963378906 M 203.1920471191406 133.614990234375 C 204.0505065917969 133.614990234375 204.7419128417969 134.3145141601562 204.7419128417969 135.1730041503906 L 204.7419128417969 137.1901550292969 C 204.7337646484375 137.1901550292969 204.7337646484375 137.1983184814453 204.7256164550781 137.1983184814453 C 204.4756469726562 137.3233032226562 204.2257690429688 137.4482574462891 203.9757995605469 137.5569305419922 C 203.7258605957031 137.6724090576172 203.4677734375 137.7810668945312 203.2083435058594 137.8897094726562 C 202.692138671875 138.1070556640625 202.1664733886719 138.298583984375 201.6340026855469 138.4643096923828 L 201.6340026855469 135.1730041503906 C 201.6340026855469 134.3145141601562 202.3335571289062 133.614990234375 203.1920471191406 133.614990234375 Z" stroke="none" fill="#968f8a"/>
    </g>
    <path id="Caminho_216" data-name="Caminho 216" d="M206.643,104.906v41.245a.013.013,0,0,1-.014.014c-.136.1-.272.191-.408.273-.014.014-.027.014-.041.027-.258.164-.516.341-.774.5-.041.014-.054.027-.1.041a2.359,2.359,0,0,1-.244.15V103.9c.081.054.163.1.244.15a.34.34,0,0,1,.1.055c.258.15.516.327.774.491.014.014.027.014.041.027.136.082.272.177.408.273A.013.013,0,0,1,206.643,104.906Z" transform="translate(-5.509 227.472)" fill="#333"/>
    <path id="Caminho_217" data-name="Caminho 217" d="M187.093,103.877v43.317c-.245-.136-.489-.286-.72-.436-.1-.055-.2-.123-.3-.191-.19-.123-.367-.232-.557-.368V104.872c.19-.136.367-.245.557-.368.1-.068.2-.136.3-.191C186.6,104.163,186.848,104.013,187.093,103.877Z" transform="translate(-12.596 227.465)" fill="#333"/>
    <g id="Retângulo_668" data-name="Retângulo 668" transform="translate(172.887 342.92)" fill="none" stroke="#fff" stroke-miterlimit="10" stroke-width="0.25">
      <rect width="28.28" height="25.809" stroke="none"/>
      <rect x="0.125" y="0.125" width="28.03" height="25.559" fill="none"/>
    </g>
    <g id="Caminho_232" data-name="Caminho 232" transform="translate(-12.629 226.583)" fill="none" stroke-miterlimit="10">
      <path d="M213.8,105.791V116.25h-28.28v-10.5c.191-.136.369-.245.56-.367.1-.068.2-.136.3-.19.232-.149.478-.3.724-.435s.505-.285.765-.421c.2-.109.41-.217.614-.312a1.383,1.383,0,0,1,.246-.122c.014,0,.027,0,.027-.014.232-.109.464-.217.71-.326.273-.122.533-.245.806-.34s.533-.217.806-.312q.369-.143.737-.244c.027-.014.041-.014.068-.027.41-.136.833-.258,1.256-.367.4-.109.806-.217,1.215-.3a.1.1,0,0,1,.068-.014c.191-.041.4-.081.6-.109.055-.014.123-.027.191-.041.15-.041.314-.054.478-.081.218-.041.423-.068.642-.1.628-.082,1.256-.136,1.9-.177.191-.014.4-.027.573-.027.273,0,.56-.014.833-.014q.7,0,1.393.041c.082,0,.15.014.218.014h.082c.41.027.819.068,1.243.109l.014.014.778.1.055.014c.328.054.642.1.956.163a.69.69,0,0,1,.164.027l.574.122a2.426,2.426,0,0,1,.423.109c.232.041.451.109.669.163.109.027.246.068.355.1.164.041.341.1.505.149s.314.1.464.149c.533.177,1.065.367,1.584.584.259.109.519.217.765.326s.505.231.751.367c.014,0,.014.014.027.014a3.292,3.292,0,0,1,.314.149c.164.081.328.163.478.244.109.054.2.109.3.163.164.081.314.177.464.258.082.054.164.1.246.149a.342.342,0,0,1,.1.054c.259.149.519.326.778.489.014.014.027.014.041.027.137.082.273.177.41.272A.013.013,0,0,1,213.8,105.791Z" stroke="none"/>
      <path d="M 199.6364135742188 101.6669692993164 C 199.5028991699219 101.6669692993164 199.3621368408203 101.6703796386719 199.2260284423828 101.6736907958984 C 199.0868988037109 101.6770629882812 198.9430541992188 101.680549621582 198.8034362792969 101.680549621582 C 198.6354675292969 101.680549621582 198.4367828369141 101.6936721801758 198.2457885742188 101.7072296142578 C 197.5335540771484 101.7524642944336 196.9356231689453 101.8080749511719 196.3627014160156 101.8824157714844 C 196.1661376953125 101.9068450927734 195.9558258056641 101.9341354370117 195.7359466552734 101.9751663208008 L 195.7309875488281 101.9760360717773 C 195.6766357421875 101.9850463867188 195.622314453125 101.9926452636719 195.5684356689453 102.0001525878906 C 195.4636535644531 102.014762878418 195.3646850585938 102.0285491943359 195.2776184082031 102.0521697998047 L 195.2590637207031 102.0564651489258 C 195.1954650878906 102.0691223144531 195.1296997070312 102.0822219848633 195.0813446044922 102.0942535400391 L 195.0538635253906 102.099479675293 C 194.85107421875 102.1263809204102 194.6475067138672 102.1675033569336 194.4748077392578 102.2042846679688 L 194.4704437255859 102.2052154541016 L 194.4006500244141 102.2191009521484 C 193.9851531982422 102.3017501831055 193.5644226074219 102.4145660400391 193.1986999511719 102.5148849487305 C 192.7679901123047 102.6254653930664 192.3555145263672 102.7456970214844 191.9724426269531 102.8723449707031 C 191.9519653320312 102.8813858032227 191.9355926513672 102.8868103027344 191.9248352050781 102.890380859375 L 191.9235076904297 102.8904418945312 L 191.9018859863281 102.9012145996094 L 191.8786163330078 102.9076461791992 C 191.6417846679688 102.9730834960938 191.4016265869141 103.0527114868164 191.1648406982422 103.1443252563477 L 191.1568450927734 103.1472625732422 C 190.9236450195312 103.2284545898438 190.664794921875 103.3288497924805 190.3655090332031 103.4541931152344 L 190.3511352539062 103.4597015380859 C 190.1310882568359 103.5363235473633 189.918212890625 103.6323623657227 189.6928405761719 103.7340393066406 L 189.5644073486328 103.7918319702148 C 189.3370513916016 103.8923492431641 189.1172485351562 103.9948577880859 188.9042510986328 104.0945358276367 C 188.8752899169922 104.1174468994141 188.8401794433594 104.135009765625 188.7991790771484 104.1446075439453 C 188.7776947021484 104.1542892456055 188.7568054199219 104.1630401611328 188.7375335693359 104.1711120605469 C 188.6984558105469 104.1874847412109 188.6541748046875 104.2060317993164 188.6357421875 104.2206802368164 L 188.6124267578125 104.2392349243164 L 188.5854034423828 104.2517700195312 C 188.3863983154297 104.3441696166992 188.1812133789062 104.4530258178711 187.9815979003906 104.5589447021484 C 187.7300567626953 104.6906127929688 187.469970703125 104.826774597168 187.2308502197266 104.9721603393555 L 187.2218780517578 104.9773559570312 C 186.9996643066406 105.1001434326172 186.7610168457031 105.2434921264648 186.5125274658203 105.4034194946289 L 186.5007781982422 105.4105453491211 C 186.4022674560547 105.4665298461914 186.3031158447266 105.5292739868164 186.2215728759766 105.5871810913086 L 186.2114868164062 105.5939865112305 C 186.1711120605469 105.6198120117188 186.13134765625 105.6450347900391 186.0919036865234 105.670036315918 C 185.981201171875 105.7402420043945 185.8751373291016 105.807502746582 185.7669372558594 105.8809356689453 L 185.7669372558594 116.0002365112305 L 213.5468444824219 116.0002365112305 L 213.5468444824219 105.9175338745117 C 213.446044921875 105.8478927612305 213.3440704345703 105.7791900634766 213.2454071044922 105.7202758789062 L 213.2175445556641 105.7029418945312 C 213.2080688476562 105.6973648071289 213.1970520019531 105.6902236938477 213.1853179931641 105.6811752319336 C 213.1026763916016 105.6291046142578 213.02001953125 105.5757446289062 212.9373779296875 105.5223846435547 C 212.7699737548828 105.4142837524414 212.5968780517578 105.3025131225586 212.429443359375 105.2060928344727 L 212.416015625 105.1977844238281 C 212.4055480957031 105.1908340454102 212.3965911865234 105.1846618652344 212.3885040283203 105.1790618896484 C 212.3846588134766 105.1764068603516 212.3812866210938 105.1739730834961 212.3779754638672 105.1717758178711 L 212.3482971191406 105.1619415283203 L 212.3204345703125 105.1434707641602 C 212.2856903076172 105.1204223632812 212.2490234375 105.0991439819336 212.210205078125 105.0766143798828 C 212.169677734375 105.0531005859375 212.1278839111328 105.0288391113281 212.0841674804688 105.0003051757812 C 212.0271301269531 104.9691619873047 211.9700469970703 104.9362182617188 211.9122467041016 104.9028244018555 C 211.8229370117188 104.8512344360352 211.7305755615234 104.7978897094727 211.6372375488281 104.7514724731445 L 211.6245880126953 104.7447204589844 C 211.5295257568359 104.6906814575195 211.4397277832031 104.6396331787109 211.3368377685547 104.5884704589844 L 211.3288879394531 104.584342956543 C 211.1834869384766 104.5054321289062 211.0199127197266 104.4240646362305 210.8589324951172 104.3439636230469 C 210.8301849365234 104.3296737670898 210.8023529052734 104.3153839111328 210.7749633789062 104.3013229370117 C 210.7066802978516 104.2662582397461 210.6469573974609 104.2355880737305 210.5851593017578 104.2112350463867 C 210.5806884765625 104.2100067138672 210.5761566162109 104.2086334228516 210.5715637207031 104.2070999145508 L 210.5643463134766 104.2070999145508 L 210.5465850830078 104.1972885131836 C 210.53466796875 104.1918792724609 210.5225982666016 104.1853103637695 210.5105590820312 104.1773681640625 L 210.5079040527344 104.1759033203125 C 210.3214263916016 104.0728302001953 210.1334075927734 103.9853515625 209.9343566894531 103.8927307128906 C 209.8813781738281 103.8680725097656 209.8279266357422 103.8431930541992 209.7738647460938 103.817741394043 C 209.5315856933594 103.7106552124023 209.2704467773438 103.6012802124023 209.0165252685547 103.4949340820312 C 208.5623168945312 103.3046798706055 208.064697265625 103.121223449707 207.4504547119141 102.9175491333008 L 207.4441070556641 102.9153518676758 C 207.3752899169922 102.8904647827148 207.3021545410156 102.8683242797852 207.2247467041016 102.8448791503906 C 207.1454315185547 102.8208770751953 207.0634613037109 102.7960662841797 206.9831237792969 102.7671127319336 C 206.7999114990234 102.7064361572266 206.6371459960938 102.6583023071289 206.499267578125 102.6240234375 C 206.4427032470703 102.6099548339844 206.3790588378906 102.592399597168 206.3154296875 102.574821472168 C 206.2561645507812 102.5584411621094 206.1968994140625 102.5420455932617 206.1442565917969 102.5289459228516 C 206.0760040283203 102.5119705200195 206.0077667236328 102.4937133789062 205.9391326904297 102.475341796875 C 205.7933349609375 102.4363098144531 205.6425628662109 102.3959503173828 205.4922180175781 102.3695526123047 L 205.4669036865234 102.3651123046875 L 205.4430236816406 102.3556137084961 C 205.3391876220703 102.3143005371094 205.2165069580078 102.2900924682617 205.0978851318359 102.2666702270508 L 205.0600280761719 102.259162902832 L 204.47802734375 102.1349334716797 C 204.4390258789062 102.1252593994141 204.3987121582031 102.1152496337891 204.3747711181641 102.1152496337891 L 204.3480377197266 102.1152496337891 L 204.3219146728516 102.1096038818359 C 204.108154296875 102.063362121582 203.8947448730469 102.0302047729492 203.6688232421875 101.9950942993164 C 203.5728607177734 101.9801712036133 203.4760437011719 101.9651260375977 203.3780212402344 101.9488754272461 L 203.3585052490234 101.9448318481445 L 203.3188323974609 101.9349517822266 L 202.4705047607422 101.8313217163086 L 202.4593658447266 101.8202514648438 L 202.4353179931641 101.8179321289062 C 202.0510406494141 101.7808380126953 201.6879425048828 101.7457962036133 201.3213806152344 101.7213134765625 L 201.2477416992188 101.7213134765625 C 201.2033081054688 101.7213134765625 201.1634216308594 101.7175216674805 201.1248474121094 101.7138595581055 C 201.0916137695312 101.7107162475586 201.0602264404297 101.7077331542969 201.0292510986328 101.7077331542969 L 201.0146484375 101.7073059082031 C 200.5575103759766 101.6805419921875 200.0937957763672 101.6669692993164 199.6364135742188 101.6669692993164 M 199.6364135742188 101.4169692993164 C 200.1007232666016 101.4169692993164 200.5649871826172 101.430549621582 201.0292510986328 101.4577331542969 C 201.1111755371094 101.4577331542969 201.179443359375 101.4713134765625 201.2477416992188 101.4713134765625 L 201.3296661376953 101.4713134765625 C 201.7393035888672 101.4984893798828 202.1489562988281 101.5392456054688 202.5722808837891 101.5799865722656 L 202.5859375 101.5935592651367 L 203.3642883300781 101.6886444091797 L 203.4189147949219 101.7022399902344 C 203.7466430664062 101.7565765380859 204.0606842041016 101.7973098754883 204.3747711181641 101.8652496337891 C 204.4293975830078 101.8652496337891 204.4839935302734 101.8788299560547 204.5386352539062 101.8923950195312 L 205.1121520996094 102.0146560668945 C 205.2486877441406 102.0418243408203 205.3989105224609 102.0690002441406 205.5354461669922 102.1233215332031 C 205.767578125 102.1640701293945 205.9860992431641 102.2319946289062 206.20458984375 102.2863311767578 C 206.3137969970703 102.3134994506836 206.4503784179688 102.3542404174805 206.5596160888672 102.3814163208008 C 206.7234802246094 102.4221649169922 206.9009704589844 102.4765014648438 207.0648345947266 102.5308227539062 C 207.2150115966797 102.5851745605469 207.3788757324219 102.6259155273438 207.5291290283203 102.6802520751953 C 208.0616455078125 102.856819152832 208.59423828125 103.0470123291016 209.1130981445312 103.2643432617188 C 209.37255859375 103.3730163574219 209.6320190429688 103.4816741943359 209.8777770996094 103.5903396606445 C 210.1372680664062 103.7126159667969 210.383056640625 103.8212661743164 210.6288299560547 103.9570999145508 C 210.6425170898438 103.9570999145508 210.6425170898438 103.970703125 210.6561279296875 103.970703125 C 210.765380859375 104.0114593505859 210.8609771728516 104.0657806396484 210.9702453613281 104.1201095581055 C 211.1340484619141 104.2016143798828 211.2979431152344 104.2831115722656 211.4481353759766 104.364616394043 C 211.5574035644531 104.4189453125 211.6529693603516 104.4732818603516 211.7485656738281 104.5276260375977 C 211.9124298095703 104.6091156005859 212.0626220703125 104.704216003418 212.2128448486328 104.7857055664062 C 212.2947540283203 104.8400192260742 212.376708984375 104.8808059692383 212.4586181640625 104.9351348876953 C 212.4995880126953 104.9486999511719 212.5132751464844 104.9622955322266 212.5542144775391 104.9894561767578 C 212.8136749267578 105.1388702392578 213.0731353759766 105.3154754638672 213.3325653076172 105.4784545898438 C 213.3462219238281 105.4920501708984 213.35986328125 105.4920501708984 213.3735809326172 105.5056304931641 C 213.5100860595703 105.5871429443359 213.6466522216797 105.6822204589844 213.7831573486328 105.7772903442383 C 213.7968444824219 105.7772903442383 213.7968444824219 105.7908935546875 213.7968444824219 105.7908935546875 L 213.7968444824219 116.2502365112305 L 185.5169372558594 116.2502365112305 L 185.5169372558594 105.7501525878906 C 185.7081298828125 105.6143264770508 185.8856353759766 105.5056304931641 186.0767974853516 105.3833694458008 C 186.1723937988281 105.3154754638672 186.2816314697266 105.2475433349609 186.3772277832031 105.1931991577148 C 186.609375 105.0437927246094 186.8551788330078 104.8943634033203 187.1009674072266 104.758544921875 C 187.3467559814453 104.6091156005859 187.6061859130859 104.4732818603516 187.8656463623047 104.3374557495117 C 188.0704803466797 104.2287750244141 188.2753143310547 104.1201095581055 188.4801330566406 104.0250244140625 C 188.5484313964844 103.970703125 188.6440277099609 103.9435195922852 188.7259368896484 103.9027709960938 C 188.7395935058594 103.9027709960938 188.7532348632812 103.9027709960938 188.7532348632812 103.8891906738281 C 188.9853973388672 103.7805099487305 189.2175140380859 103.6718597412109 189.4633178710938 103.5631866455078 C 189.7364044189453 103.4409332275391 189.9958648681641 103.3186798095703 190.2689361572266 103.2236022949219 C 190.5283966064453 103.1149291992188 190.801513671875 103.0062561035156 191.0746459960938 102.9111633300781 C 191.3204040527344 102.8160858154297 191.5662231445312 102.7345962524414 191.8120269775391 102.6666717529297 C 191.8392944335938 102.6530914306641 191.8529663085938 102.6530914306641 191.8802642822266 102.6395111083984 C 192.2899475097656 102.5036697387695 192.7132415771484 102.3814163208008 193.1365356445312 102.2727355957031 C 193.5325469970703 102.1640701293945 193.9421844482422 102.0554046630859 194.3518676757812 101.9738998413086 C 194.3655090332031 101.960319519043 194.3928070068359 101.960319519043 194.4201354980469 101.960319519043 C 194.611328125 101.9195709228516 194.8161010742188 101.8788299560547 195.0209808349609 101.8516540527344 C 195.0755920410156 101.8380661010742 195.1438751220703 101.8244934082031 195.2121734619141 101.8108901977539 C 195.3623504638672 101.770149230957 195.5262145996094 101.7565765380859 195.6900939941406 101.7294006347656 C 195.9085388183594 101.6886444091797 196.1133575439453 101.6614837646484 196.3318634033203 101.6343231201172 C 196.9600067138672 101.5528106689453 197.588134765625 101.4984893798828 198.2299499511719 101.4577331542969 C 198.4211120605469 101.4441528320312 198.6259307861328 101.430549621582 198.8034362792969 101.430549621582 C 199.0765838623047 101.430549621582 199.3633117675781 101.4169692993164 199.6364135742188 101.4169692993164 Z" stroke="none" fill="#fff"/>
    </g>
    <g id="Caminho_233" data-name="Caminho 233" transform="translate(-12.629 237.453)" fill="none" stroke-miterlimit="10">
      <path d="M213.8,131.337v4.836a.013.013,0,0,1-.014.014c-.137.1-.273.19-.41.272-.014.014-.027.014-.041.027-.259.163-.519.34-.778.5-.041.014-.055.027-.1.041a2.375,2.375,0,0,1-.246.149c-.15.082-.3.177-.464.258-.1.054-.191.109-.3.163-.259.136-.533.272-.792.407-.014,0-.014.014-.027.014-.246.122-.492.245-.751.353s-.505.231-.765.34c-.519.2-1.051.408-1.584.57-.15.054-.3.1-.464.149l-.533.163c-.123.027-.259.068-.4.109l-1.024.245a1.941,1.941,0,0,1-.273.054,2.546,2.546,0,0,1-.464.081,4.711,4.711,0,0,1-.6.122h-.014c-.519.1-1.051.163-1.584.217a.124.124,0,0,0-.068.014c-.273.014-.574.041-.86.054-.068,0-.137.014-.218.014a1.253,1.253,0,0,1-.232.014c-.382.027-.765.027-1.161.027-.423,0-.847,0-1.256-.027h-.014c-.178-.014-.341-.014-.505-.041a2.026,2.026,0,0,1-.287-.014h-.014a21.376,21.376,0,0,1-2.28-.3,1.458,1.458,0,0,1-.259-.054c-.164-.014-.314-.054-.478-.081-.232-.054-.464-.1-.7-.149-.2-.054-.41-.1-.614-.149l-.737-.2c-.218-.068-.437-.136-.655-.217h-.027V139.3c-.259-.068-.505-.163-.765-.245s-.519-.19-.778-.3-.533-.231-.806-.353c-.246-.109-.478-.217-.71-.326-.014-.014-.041-.014-.055-.027a1.092,1.092,0,0,1-.218-.109c-.2-.1-.41-.2-.614-.312a8.354,8.354,0,0,1-.765-.421c-.246-.136-.492-.285-.724-.435-.1-.054-.2-.122-.3-.19-.191-.122-.369-.231-.56-.367v-4.876Z" stroke="none"/>
      <path d="M 185.7669372558594 131.5869903564453 L 185.7669372558594 136.0827026367188 C 185.8750610351562 136.1560668945312 185.9810333251953 136.2232666015625 186.0916442871094 136.2934112548828 C 186.1311645507812 136.3184509277344 186.1710205078125 136.3437347412109 186.2114868164062 136.3696136474609 L 186.2216033935547 136.3764343261719 C 186.3031463623047 136.4343719482422 186.4022827148438 136.4970855712891 186.5007476806641 136.5530395507812 L 186.5125579833984 136.5601806640625 C 186.7607574462891 136.719970703125 186.9994049072266 136.8633117675781 187.2218780517578 136.9862365722656 L 187.2308654785156 136.991455078125 C 187.5302886962891 137.1735229492188 187.7589263916016 137.2995300292969 187.9721984863281 137.3999938964844 L 187.9828033447266 137.4053039550781 C 188.1812896728516 137.5106201171875 188.3865356445312 137.6194915771484 188.5854187011719 137.7118530273438 L 188.6083679199219 137.7239990234375 C 188.6690063476562 137.7601623535156 188.7213745117188 137.7913970947266 188.7772979736328 137.8099365234375 L 188.8332824707031 137.8285064697266 L 188.8429565429688 137.8381500244141 C 188.8539886474609 137.8430938720703 188.8662109375 137.8493499755859 188.8789825439453 137.8572692871094 C 189.0998840332031 137.9606628417969 189.328125 138.0673217773438 189.5654602050781 138.1722564697266 C 189.6309051513672 138.2015533447266 189.6955871582031 138.2308654785156 189.7598571777344 138.2599792480469 C 189.9650421142578 138.3529205322266 190.1588287353516 138.4407043457031 190.3655090332031 138.5230102539062 C 190.6177062988281 138.6286315917969 190.8766479492188 138.7236480712891 191.1278381347656 138.8157196044922 C 191.2232513427734 138.8457794189453 191.3168334960938 138.8775634765625 191.4073944091797 138.9083251953125 C 191.5676879882812 138.9627838134766 191.7191009521484 139.0142211914062 191.8753356933594 139.0551147460938 L 192.0620269775391 139.1039733886719 L 192.0620269775391 139.1250915527344 C 192.2297821044922 139.1836547851562 192.3996276855469 139.2364959716797 192.5651550292969 139.2879486083984 L 193.2962951660156 139.4899749755859 C 193.3950042724609 139.5161743164062 193.4927368164062 139.5388641357422 193.5962066650391 139.5628814697266 C 193.697509765625 139.5863952636719 193.8022308349609 139.6107177734375 193.9071197509766 139.6384582519531 C 194.0186920166016 139.6644897460938 194.1336975097656 139.6880493164062 194.2449645996094 139.7108306884766 C 194.3582000732422 139.7340240478516 194.4752044677734 139.7579956054688 194.5920257568359 139.7851867675781 C 194.6498260498047 139.7949371337891 194.7060546875 139.8061981201172 194.7617950439453 139.8173980712891 C 194.8585662841797 139.8368530273438 194.9499664306641 139.855224609375 195.0416107177734 139.8628082275391 L 195.0713653564453 139.8652801513672 L 195.0996856689453 139.8746643066406 C 195.1591339111328 139.8943939208984 195.2214660644531 139.9053955078125 195.3156585693359 139.9187927246094 L 195.3249359130859 139.9203033447266 C 196.1507873535156 140.0696411132812 196.8851928710938 140.1661071777344 197.5697479248047 140.2151336669922 L 197.6096649169922 140.2176208496094 C 197.6877899169922 140.2287292480469 197.7720642089844 140.2287292480469 197.8612823486328 140.2287292480469 L 197.8818511962891 140.2287292480469 L 197.9021453857422 140.2320861816406 C 197.9995727539062 140.2482452392578 198.1028747558594 140.2537536621094 198.2122344970703 140.2595825195312 C 198.2657775878906 140.2624359130859 198.3202056884766 140.2653503417969 198.3759307861328 140.2694854736328 L 198.3966827392578 140.2700347900391 C 198.798095703125 140.2966461181641 199.2242736816406 140.2966461181641 199.6364135742188 140.2966461181641 C 200.0321197509766 140.2966461181641 200.4058837890625 140.2966461181641 200.7794036865234 140.2701110839844 L 200.797119140625 140.2694854736328 C 200.8655548095703 140.2694854736328 200.9362945556641 140.2694854736328 200.9803771972656 140.2606964111328 L 201.0045776367188 140.2558746337891 L 201.0292510986328 140.2558746337891 C 201.0602264404297 140.2558746337891 201.0916137695312 140.2528991699219 201.1248474121094 140.249755859375 C 201.1615295410156 140.2462615966797 201.1993865966797 140.24267578125 201.2412109375 140.2423248291016 C 201.3858032226562 140.2353973388672 201.5367126464844 140.2248077392578 201.6826934814453 140.2145385742188 C 201.8062133789062 140.2058563232422 201.9335021972656 140.1969146728516 202.0552062988281 140.1903686523438 C 202.0956268310547 140.1777648925781 202.1303100585938 140.1749877929688 202.1625671386719 140.1744842529297 C 202.7549591064453 140.1138000488281 203.2629699707031 140.0439910888672 203.7152252197266 139.9611358642578 L 203.7375640869141 139.9570465087891 L 203.7571716308594 139.9570465087891 C 203.9321746826172 139.9330749511719 204.1085662841797 139.8967590332031 204.3106536865234 139.8431396484375 L 204.3320617675781 139.8374633789062 L 204.3541412353516 139.8356323242188 C 204.4976043701172 139.8237457275391 204.6347961425781 139.7996673583984 204.7735748291016 139.7620086669922 L 204.8039398193359 139.7557525634766 C 204.8969573974609 139.7425689697266 204.9660186767578 139.7305908203125 205.0438232421875 139.70849609375 L 205.0540924072266 139.7058258056641 L 206.0713348388672 139.4629364013672 C 206.2043762207031 139.4232482910156 206.3415069580078 139.3824768066406 206.4684143066406 139.3538970947266 L 206.9889526367188 139.1945648193359 C 207.0565032958984 139.1722106933594 207.1217803955078 139.1520690917969 207.1857452392578 139.1323547363281 C 207.2757415771484 139.1046142578125 207.3607482910156 139.0784149169922 207.4441070556641 139.0482635498047 L 207.4559783935547 139.0443115234375 C 207.9964752197266 138.8788757324219 208.5475769042969 138.6663665771484 209.0173034667969 138.48193359375 C 209.2684783935547 138.3767242431641 209.5282135009766 138.2679138183594 209.7664642333984 138.1494293212891 L 209.7812042236328 138.1426849365234 C 210.0314025878906 138.0379028320312 210.2753143310547 137.9167175292969 210.5113067626953 137.79931640625 C 210.5286102294922 137.7879943847656 210.5459442138672 137.7795104980469 210.5628204345703 137.773193359375 C 210.6860504150391 137.7088775634766 210.8121643066406 137.64453125 210.9382476806641 137.5802154541016 C 211.0706939697266 137.5126495361328 211.2031402587891 137.4450836181641 211.3321838378906 137.3775329589844 L 211.3367919921875 137.3751831054688 C 211.4395751953125 137.3240661621094 211.5292816162109 137.2730712890625 211.6250305175781 137.2186584472656 L 211.6372375488281 137.2121734619141 C 211.7306518554688 137.1656951904297 211.8230743408203 137.1123046875 211.9124450683594 137.0606842041016 C 211.9733734130859 137.0254821777344 212.0334930419922 136.9907836914062 212.0935974121094 136.9581756591797 L 212.1015167236328 136.9540557861328 C 212.1697540283203 136.9201049804688 212.2429351806641 136.8715515136719 212.3204040527344 136.8201599121094 L 212.3482513427734 136.8016967773438 L 212.3799591064453 136.7911834716797 C 212.3831939697266 136.7901153564453 212.3843841552734 136.7895965576172 212.3951568603516 136.7842407226562 C 212.4067687988281 136.7784729003906 212.4223937988281 136.7707061767578 212.4427947998047 136.7624664306641 C 212.5638885498047 136.68603515625 212.6873931884766 136.6052093505859 212.8070678710938 136.5268859863281 C 212.9308166503906 136.4458923339844 213.0586547851562 136.3622283935547 213.1855316162109 136.2822570800781 C 213.1970520019531 136.2734222412109 213.2079010009766 136.2663726806641 213.2173767089844 136.2608032226562 L 213.2192077636719 136.2589874267578 L 213.2454223632812 136.2433319091797 C 213.3442077636719 136.1843566894531 213.4461364746094 136.1156768798828 213.5468444824219 136.0460815429688 L 213.5468444824219 131.5869903564453 L 185.7669372558594 131.5869903564453 M 185.5169372558594 131.3369903564453 L 213.7968444824219 131.3369903564453 L 213.7968444824219 136.1727294921875 C 213.7968444824219 136.1727294921875 213.7968444824219 136.1863098144531 213.7831573486328 136.1863098144531 C 213.6466522216797 136.2814025878906 213.5100860595703 136.3764801025391 213.3735809326172 136.4579772949219 C 213.35986328125 136.4715881347656 213.3462219238281 136.4715881347656 213.3325653076172 136.4851226806641 C 213.0731353759766 136.6481475830078 212.8136749267578 136.8247375488281 212.5542144775391 136.9877471923828 C 212.5132751464844 137.0013275146484 212.4995880126953 137.0149078369141 212.4586181640625 137.0284881591797 C 212.376708984375 137.0828247070312 212.2947540283203 137.1371612548828 212.2128448486328 137.1779022216797 C 212.0626220703125 137.2594146728516 211.9124298095703 137.3545074462891 211.7485656738281 137.4360046386719 C 211.6529693603516 137.4903411865234 211.5574035644531 137.544677734375 211.4481353759766 137.5990295410156 C 211.1887054443359 137.7348327636719 210.9156188964844 137.8706817626953 210.6561279296875 138.0065002441406 C 210.6425170898438 138.0065002441406 210.6425170898438 138.0200805664062 210.6288299560547 138.0200805664062 C 210.383056640625 138.1423492431641 210.1372680664062 138.2646026611328 209.8777770996094 138.3732757568359 C 209.6320190429688 138.4954986572266 209.37255859375 138.6041717529297 209.1130981445312 138.7128601074219 C 208.59423828125 138.9166259765625 208.0616455078125 139.1203765869141 207.5291290283203 139.2833557128906 C 207.3788757324219 139.3377075195312 207.2286987304688 139.3784637451172 207.0648345947266 139.4327850341797 L 206.5322570800781 139.5957946777344 C 206.4093933105469 139.6229553222656 206.2728271484375 139.6637115478516 206.1362915039062 139.7044525146484 C 205.7949371337891 139.7859649658203 205.4535369873047 139.8674621582031 205.1121520996094 139.948974609375 C 205.0165557861328 139.9761352539062 204.9346466064453 139.9897155761719 204.8390502929688 140.0032806396484 C 204.6888580322266 140.0440368652344 204.5386352539062 140.0712127685547 204.3747711181641 140.0847778320312 C 204.1699371337891 140.1391296386719 203.9787750244141 140.1798706054688 203.7739715576172 140.2070465087891 L 203.7602844238281 140.2070465087891 C 203.2413635253906 140.3021087646484 202.7088165283203 140.3700408935547 202.1762847900391 140.4243927001953 C 202.1489562988281 140.4243927001953 202.1353454589844 140.4243927001953 202.1080169677734 140.4379730224609 C 201.8348693847656 140.4515533447266 201.5344696044922 140.4787292480469 201.2477416992188 140.4922943115234 C 201.179443359375 140.4922943115234 201.1111755371094 140.5058746337891 201.0292510986328 140.5058746337891 C 200.9609832763672 140.5194854736328 200.8790740966797 140.5194854736328 200.797119140625 140.5194854736328 C 200.4147644042969 140.5466461181641 200.0324096679688 140.5466461181641 199.6364135742188 140.5466461181641 C 199.2131195068359 140.5466461181641 198.7898254394531 140.5466461181641 198.3801422119141 140.5194854736328 L 198.3665008544922 140.5194854736328 C 198.1889801025391 140.5058746337891 198.0251159667969 140.5058746337891 197.8612823486328 140.4787292480469 C 197.7656555175781 140.4787292480469 197.6701202392578 140.4787292480469 197.5744934082031 140.4651336669922 L 197.5608520507812 140.4651336669922 C 196.796142578125 140.4107818603516 196.0314331054688 140.3021087646484 195.2804412841797 140.1663055419922 C 195.184814453125 140.1526947021484 195.1028900146484 140.1391296386719 195.0209808349609 140.1119537353516 C 194.8570861816406 140.098388671875 194.7069244384766 140.0576477050781 194.5430297851562 140.0304565429688 C 194.3108978271484 139.9761352539062 194.0787658691406 139.9353790283203 193.8466186523438 139.8810577392578 C 193.6417846679688 139.8267211914062 193.4369812011719 139.7859649658203 193.2321624755859 139.7316131591797 L 192.4947509765625 139.5278625488281 C 192.2762756347656 139.4599456787109 192.0578155517578 139.3920288085938 191.8392944335938 139.3105316162109 L 191.8120269775391 139.3105316162109 L 191.8120269775391 139.2969665527344 C 191.5525360107422 139.2290496826172 191.3067474365234 139.1339416503906 191.0472869873047 139.0524597167969 C 190.7878570556641 138.9573669433594 190.5283966064453 138.8622741699219 190.2689361572266 138.7536010742188 C 189.9958648681641 138.6449127197266 189.7364044189453 138.5226745605469 189.4633178710938 138.4004516601562 C 189.2175140380859 138.2917633056641 188.9853973388672 138.18310546875 188.7532348632812 138.0744476318359 C 188.7395935058594 138.0608367919922 188.7122650146484 138.0608367919922 188.6986083984375 138.0472412109375 C 188.61669921875 138.0200805664062 188.5484313964844 137.9793395996094 188.4801330566406 137.9385986328125 C 188.2753143310547 137.8434906005859 188.0704803466797 137.7348327636719 187.8656463623047 137.6261596679688 C 187.6061859130859 137.5039215087891 187.3467559814453 137.3545074462891 187.1009674072266 137.2050628662109 C 186.8551788330078 137.0692596435547 186.609375 136.9198455810547 186.3772277832031 136.7704010009766 C 186.2816314697266 136.7160797119141 186.1723937988281 136.6481475830078 186.0767974853516 136.5802307128906 C 185.8856353759766 136.4579772949219 185.7081298828125 136.3493194580078 185.5169372558594 136.2134857177734 L 185.5169372558594 131.3369903564453 Z" stroke="none" fill="#fff"/>
    </g>
  </g>
</svg>
