<svg xmlns="http://www.w3.org/2000/svg" width="50" height="50.001" viewBox="0 0 50 50.001">
  <g id="Grupo_1005" data-name="Grupo 1005" transform="translate(-248 -320)">
    <g id="Grupo_971" data-name="Grupo 971" transform="translate(248 320)">
      <path id="Caminho_213" data-name="Caminho 213" d="M180.64,126.454a24.939,24.939,0,1,1-3.349-12.5A24.813,24.813,0,0,1,180.64,126.454Z" transform="translate(-130.64 -101.453)" fill="#00a6c4"/>
      <rect id="Retângulo_655" data-name="Retângulo 655" width="37.22" height="25.444" rx="2.683" transform="translate(6.34 12.26)" fill="#3b3231"/>
      <g id="Grupo_970" data-name="Grupo 970" transform="translate(9.08 24.929)">
        <circle id="Elipse_98" data-name="Elipse 98" cx="1.026" cy="1.026" r="1.026" transform="translate(11.298)" fill="#fff"/>
        <g id="Grupo_965" data-name="Grupo 965" transform="translate(15.407)">
          <circle id="Elipse_99" data-name="Elipse 99" cx="1.026" cy="1.026" r="1.026" transform="translate(0 3.087)" fill="#fff"/>
          <circle id="Elipse_100" data-name="Elipse 100" cx="1.026" cy="1.026" r="1.026" transform="translate(3.078)" fill="#fff"/>
        </g>
        <g id="Grupo_966" data-name="Grupo 966" transform="translate(26.71)">
          <circle id="Elipse_101" data-name="Elipse 101" cx="1.026" cy="1.026" r="1.026" transform="translate(3.078 3.087)" fill="#fff"/>
          <circle id="Elipse_102" data-name="Elipse 102" cx="1.026" cy="1.026" r="1.026" fill="#fff"/>
        </g>
        <g id="Grupo_967" data-name="Grupo 967">
          <circle id="Elipse_103" data-name="Elipse 103" cx="1.026" cy="1.026" r="1.026" fill="#fff"/>
          <circle id="Elipse_104" data-name="Elipse 104" cx="1.026" cy="1.026" r="1.026" transform="translate(0 3.078)" fill="#fff"/>
        </g>
        <g id="Grupo_968" data-name="Grupo 968" transform="translate(4.1)">
          <circle id="Elipse_105" data-name="Elipse 105" cx="1.026" cy="1.026" r="1.026" fill="#fff"/>
          <circle id="Elipse_106" data-name="Elipse 106" cx="1.026" cy="1.026" r="1.026" transform="translate(0.008 3.087)" fill="#fff"/>
          <circle id="Elipse_107" data-name="Elipse 107" cx="1.026" cy="1.026" r="1.026" transform="translate(3.082 3.087)" fill="#fff"/>
          <circle id="Elipse_108" data-name="Elipse 108" cx="1.026" cy="1.026" r="1.026" transform="translate(0 6.173)" fill="#fff"/>
        </g>
        <g id="Grupo_969" data-name="Grupo 969" transform="translate(22.593)">
          <circle id="Elipse_109" data-name="Elipse 109" cx="1.026" cy="1.026" r="1.026" fill="#fff"/>
          <circle id="Elipse_110" data-name="Elipse 110" cx="1.026" cy="1.026" r="1.026" transform="translate(0.008 3.087)" fill="#fff"/>
          <circle id="Elipse_111" data-name="Elipse 111" cx="1.026" cy="1.026" r="1.026" transform="translate(0 6.173)" fill="#fff"/>
        </g>
      </g>
      <text id="Braile" transform="translate(6.884 15.084)" fill="#fff" font-size="8" font-family="BebasNeue-Regular, Bebas Neue" letter-spacing="0.324em"><tspan x="3.252" y="7">Braile</tspan></text>
    </g>
  </g>
</svg>
