<svg xmlns="http://www.w3.org/2000/svg" width="90" height="90.002" viewBox="0 0 90 90.002">
  <g id="Grupo_994" data-name="Grupo 994" transform="translate(-9.14 -101.453)">
    <g id="Grupo_990" data-name="Grupo 990" transform="translate(9.14 101.453)">
      <path id="Caminho_279" data-name="Caminho 279" d="M99.14,146.454a45,45,0,0,1-84.015,22.411,45,45,0,0,1,77.986-44.91A44.692,44.692,0,0,1,99.14,146.454Z" transform="translate(-9.14 -101.453)" fill="#de3c3c"/>
      <rect id="Retângulo_687" data-name="Retângulo 687" width="67.448" height="44.901" rx="6" transform="translate(11.188 22.517)" fill="#00a6c4"/>
      <g id="Grupo_989" data-name="Grupo 989" transform="translate(16.905 45.045)">
        <circle id="Elipse_119" data-name="Elipse 119" cx="1.811" cy="1.811" r="1.811" transform="translate(19.938)" fill="#fff"/>
        <g id="Grupo_984" data-name="Grupo 984" transform="translate(27.188)">
          <circle id="Elipse_120" data-name="Elipse 120" cx="1.811" cy="1.811" r="1.811" transform="translate(0 5.447)" fill="#fff"/>
          <circle id="Elipse_121" data-name="Elipse 121" cx="1.811" cy="1.811" r="1.811" transform="translate(5.432)" fill="#fff"/>
        </g>
        <g id="Grupo_985" data-name="Grupo 985" transform="translate(47.136)">
          <circle id="Elipse_122" data-name="Elipse 122" cx="1.811" cy="1.811" r="1.811" transform="translate(5.432 5.447)" fill="#fff"/>
          <circle id="Elipse_123" data-name="Elipse 123" cx="1.811" cy="1.811" r="1.811" fill="#fff"/>
        </g>
        <g id="Grupo_986" data-name="Grupo 986">
          <circle id="Elipse_124" data-name="Elipse 124" cx="1.811" cy="1.811" r="1.811" fill="#fff"/>
          <circle id="Elipse_125" data-name="Elipse 125" cx="1.811" cy="1.811" r="1.811" transform="translate(0 5.432)" fill="#fff"/>
        </g>
        <g id="Grupo_987" data-name="Grupo 987" transform="translate(7.236)">
          <circle id="Elipse_126" data-name="Elipse 126" cx="1.811" cy="1.811" r="1.811" fill="#fff"/>
          <circle id="Elipse_127" data-name="Elipse 127" cx="1.811" cy="1.811" r="1.811" transform="translate(0.015 5.447)" fill="#fff"/>
          <circle id="Elipse_128" data-name="Elipse 128" cx="1.811" cy="1.811" r="1.811" transform="translate(5.44 5.447)" fill="#fff"/>
          <circle id="Elipse_129" data-name="Elipse 129" cx="1.811" cy="1.811" r="1.811" transform="translate(0 10.894)" fill="#fff"/>
        </g>
        <g id="Grupo_988" data-name="Grupo 988" transform="translate(39.871)">
          <circle id="Elipse_130" data-name="Elipse 130" cx="1.811" cy="1.811" r="1.811" fill="#fff"/>
          <circle id="Elipse_131" data-name="Elipse 131" cx="1.811" cy="1.811" r="1.811" transform="translate(0.015 5.447)" fill="#fff"/>
          <circle id="Elipse_132" data-name="Elipse 132" cx="1.811" cy="1.811" r="1.811" transform="translate(0 10.894)" fill="#fff"/>
        </g>
      </g>
    </g>
    <line id="Linha_32" data-name="Linha 32" x1="63.852" y1="63.852" transform="translate(21.543 115.461)" fill="none" stroke="#3b3231" stroke-miterlimit="10" stroke-width="4"/>
  </g>
</svg>
