<svg xmlns="http://www.w3.org/2000/svg" width="50" height="50" viewBox="0 0 50 50">
  <g id="Grupo_1003" data-name="Grupo 1003" transform="translate(-206 -349)">
    <circle id="Elipse_112" data-name="Elipse 112" cx="25" cy="25" r="25" transform="translate(206 349)" fill="#00a6c4"/>
    <g id="Grupo_976" data-name="Grupo 976" transform="translate(214.827 357.228)">
      <g id="Grupo_975" data-name="Grupo 975">
        <path id="Caminho_235" data-name="Caminho 235" d="M143.264,79.552a.344.344,0,0,1,.174.427.324.324,0,0,1-.3.205.355.355,0,0,1-.126-.033,4.986,4.986,0,0,1-1.993-1.6,5.776,5.776,0,0,1-.98-1.819.324.324,0,0,1,.253-.378.339.339,0,0,1,.395.253,5.075,5.075,0,0,0,.854,1.565A4.385,4.385,0,0,0,143.264,79.552Z" transform="translate(-135.921 -54.652)" fill="#111"/>
        <path id="Caminho_236" data-name="Caminho 236" d="M140.411,78.693a4.716,4.716,0,0,0,1.565,1.55.316.316,0,0,1,.143.426.333.333,0,0,1-.286.174.289.289,0,0,1-.158-.031,5.14,5.14,0,0,1-1.818-1.786,5.41,5.41,0,0,1-.807-1.913.326.326,0,0,1,.649-.064A5.14,5.14,0,0,0,140.411,78.693Z" transform="translate(-136.277 -54.505)" fill="#111"/>
        <path id="Caminho_237" data-name="Caminho 237" d="M144.734,86.3a.926.926,0,0,1-.126-1.249c.317-.427,5.122-6.482,5.882-8.016.727-1.438,1.992-3.683-.38-3.683a4.178,4.178,0,0,0-.444.016c-.932.094-1.612.127-2.1.127a3.365,3.365,0,0,1-1.644-.286c-.491-.189-1.155-.679-.917-1.122s1.422-.253,1.913-.426l.49-.174a18.323,18.323,0,0,0,3.509-1.344,30.9,30.9,0,0,1,5.249-2.245,6.62,6.62,0,0,1,1.154-.1,3.945,3.945,0,0,1,1.454.238c.633.284,1.265,1.675,3.906,2.861a3.7,3.7,0,0,1,.616,3.525,27.245,27.245,0,0,1-1.834,5.059,10.024,10.024,0,0,0-.442,4.3,35.173,35.173,0,0,1-.143,4.917.708.708,0,0,1-.728.569.762.762,0,0,1-.758-.727c-.159-1.044-.522-5.091-.633-5.612-.064-.317-.332-.807-.616-.807-.205,0-.444.253-.6,1.012-.411,1.834-1.044,6.071-1.249,7.05-.205.933-.6,1.075-.822,1.075a.428.428,0,0,1-.174-.031h-.031a.734.734,0,0,1-.774-.853c.046-.9.805-6.925.79-7.51,0-.348-.1-.633-.269-.633-.11,0-.269.127-.475.444-.49.79-3.256,5.627-4.094,7.272a.806.806,0,0,1-.776.442,1.288,1.288,0,0,1-.552-.127,1.224,1.224,0,0,1-.4-1.17c.126-.411,3.035-6.766,3.415-7.556.253-.521.174-1.044-.189-1.044a1.13,1.13,0,0,0-.728.458c-.9.981-4.774,4.822-5.233,5.328a.865.865,0,0,1-.616.316A.927.927,0,0,1,144.734,86.3Z" transform="translate(-134.34 -57.735)" fill="#fff"/>
        <path id="Caminho_238" data-name="Caminho 238" d="M160.532,74.805a.317.317,0,0,1-.444.112.33.33,0,0,1-.11-.444,5.1,5.1,0,0,0,.427-1.739,4.542,4.542,0,0,0-.317-2.181.317.317,0,0,1,.143-.427.311.311,0,0,1,.332.031.411.411,0,0,1,.11.127,5.121,5.121,0,0,1,.38,2.514A5.306,5.306,0,0,1,160.532,74.805Z" transform="translate(-128.747 -56.91)" fill="#111"/>
        <path id="Caminho_239" data-name="Caminho 239" d="M159,74.235a5.024,5.024,0,0,0,.253-1.786,4.359,4.359,0,0,0-.521-2.118.333.333,0,0,1,.11-.458.341.341,0,0,1,.363.031c.033.016.048.048.079.1a5.036,5.036,0,0,1,.618,2.467,5.212,5.212,0,0,1-.317,2.054.316.316,0,0,1-.427.143A.324.324,0,0,1,159,74.235Z" transform="translate(-129.196 -57.003)" fill="#111"/>
        <path id="Caminho_240" data-name="Caminho 240" d="M144.955,69.983c.158.238.348.411.49.411.158,0,.253-.189.238-.664-.033-.932-.4-6.5-.618-8.316-.079-.664.618-.98.933-1.011h.031a1.223,1.223,0,0,1,.948.774c.126.395,1.218,7.3,1.328,8.173.064.475.332.807.585.807.205,0,.411-.237.506-.838.205-1.312,1.313-6.639,1.423-7.32a.749.749,0,0,1,.774-.743,1.462,1.462,0,0,1,.253.031.922.922,0,0,1,.79.965c-.031.506-.585,7.224-.49,9.5a22.327,22.327,0,0,1-2.482.869l-.064.015-.079.016-.427.158c-.079.016-.237.016-.332.031a2.668,2.668,0,0,0-2.5,1.17,1.966,1.966,0,0,0-.094,1.66,3.24,3.24,0,0,0,1.849,1.693c.033.015.048.015.079.031a4.955,4.955,0,0,0,2.135.363c.569,0,1.265-.048,2.15-.127-.158.4-.395.854-.521,1.122l-.127.238a50.186,50.186,0,0,1-3.558,4.948,9.354,9.354,0,0,0-1.011-.048,10.419,10.419,0,0,0-1.739.142,3.68,3.68,0,0,1-2.467-2.577,27.792,27.792,0,0,1-1.28-5.233c-.143-.807-.554-1.786-2.008-3.826a35.842,35.842,0,0,1-2.608-4.174.763.763,0,0,1,.712-1.011.865.865,0,0,1,.616.316c.712.79,3.256,3.952,3.635,4.332a1.336,1.336,0,0,0,.776.38c.316,0,.49-.284.127-1.233-.664-1.755-2.5-5.645-2.863-6.562-.5-1.312.253-1.423.253-1.423a.833.833,0,0,1,.491-.173.745.745,0,0,1,.648.442C141.92,64.07,144.623,69.509,144.955,69.983Z" transform="translate(-137.011 -60.403)" fill="#fff"/>
      </g>
    </g>
  </g>
</svg>
