<svg xmlns="http://www.w3.org/2000/svg" width="90" height="90" viewBox="0 0 90 90">
  <g id="Grupo_991" data-name="Grupo 991" transform="translate(7327.144 -7805.356)">
    <circle id="Elipse_91" data-name="Elipse 91" cx="45" cy="45" r="45" transform="translate(-7327.144 7805.356)" fill="#de3c3c"/>
    <g id="Grupo_963" data-name="Grupo 963" transform="translate(-7311.255 7820.165)">
      <g id="Grupo_962" data-name="Grupo 962" transform="translate(0 0)">
        <path id="Caminho_196" data-name="Caminho 196" d="M-13.4,70.438a9.231,9.231,0,0,1,.681,4.526,9.55,9.55,0,0,1-.938,3.612.569.569,0,0,1-.8.2.6.6,0,0,1-.2-.8,9.177,9.177,0,0,0,.769-3.13,8.157,8.157,0,0,0-.568-3.926.571.571,0,0,1,.255-.769.56.56,0,0,1,.6.056A.783.783,0,0,1-13.4,70.438Z" transform="translate(70.869 -46.365)" fill="#fff"/>
        <path id="Caminho_197" data-name="Caminho 197" d="M-14.9,70.13a9.107,9.107,0,0,1,1.109,4.44,9.326,9.326,0,0,1-.571,3.7.567.567,0,0,1-.767.257.581.581,0,0,1-.284-.769,9.091,9.091,0,0,0,.453-3.216,7.815,7.815,0,0,0-.938-3.813.6.6,0,0,1,.2-.825.617.617,0,0,1,.656.056C-14.981,69.988-14.954,70.044-14.9,70.13Z" transform="translate(69.063 -46.74)" fill="#fff"/>
        <path id="Caminho_198" data-name="Caminho 198" d="M2.618,73.383s2.133,2.05,1.109,6.345a48.862,48.862,0,0,1-3.3,9.105c-.568,1.34-.938,3.245-.8,7.741a63.318,63.318,0,0,1-.257,8.851,1.273,1.273,0,0,1-1.308,1.024A1.374,1.374,0,0,1-3.3,105.141c-.284-1.878-.938-9.164-1.139-10.1-.113-.571-.6-1.452-1.109-1.452-.37,0-.8.456-1.082,1.822-.74,3.3-1.876,10.927-2.246,12.691-.372,1.68-1.082,1.935-1.482,1.935a.77.77,0,0,1-.313-.056h-.056a1.322,1.322,0,0,1-1.393-1.535c.086-1.624,1.45-12.465,1.423-13.518,0-.627-.171-1.139-.485-1.139-.2,0-.482.228-.852.8-.884,1.423-5.863,10.129-7.371,13.09a1.448,1.448,0,0,1-1.393.8,2.321,2.321,0,0,1-1-.228,2.2,2.2,0,0,1-.71-2.106c.228-.74,5.464-12.179,6.144-13.6.456-.938.313-1.878-.34-1.878a2.025,2.025,0,0,0-1.308.825c-1.624,1.766-8.6,8.679-9.421,9.59a1.553,1.553,0,0,1-1.109.568,1.668,1.668,0,0,1-1.139-.539,1.667,1.667,0,0,1-.228-2.248c.571-.769,9.22-11.667,10.587-14.429,1.31-2.589,3.585-6.629-.683-6.629a7.479,7.479,0,0,0-.8.029c-1.68.169-2.9.228-3.786.228a6.057,6.057,0,0,1-2.958-.514c-.882-.34-2.077-1.222-1.651-2.02s2.562-.456,3.443-.767l.882-.313a33.04,33.04,0,0,0,6.318-2.42,55.533,55.533,0,0,1,9.448-4.041A11.9,11.9,0,0,1-7.028,67.8a7.111,7.111,0,0,1,2.618.429C-3.272,68.744-2.135,71.247,2.618,73.383Z" transform="translate(48.391 -49.679)" fill="#fff"/>
        <path id="Caminho_199" data-name="Caminho 199" d="M-10.948,61.995a1.661,1.661,0,0,1,1.423,1.736c-.059.911-1.053,13-.884,17.1A39.845,39.845,0,0,1-14.876,82.4l-.113.027-.144.029-.767.284c-.142.029-.429.029-.6.056-1.31.059-3.443.145-4.5,2.106a3.53,3.53,0,0,0-.171,2.988,5.841,5.841,0,0,0,3.331,3.047c.056.027.083.027.142.056a8.907,8.907,0,0,0,3.84.654c1.026,0,2.278-.086,3.872-.228-.287.713-.713,1.538-.94,2.02l-.228.429a90.567,90.567,0,0,1-6.4,8.907,16.914,16.914,0,0,0-1.822-.086,18.754,18.754,0,0,0-3.13.255s-2.9-.512-4.44-4.638a50.03,50.03,0,0,1-2.3-9.419c-.257-1.452-1-3.216-3.615-6.887a64.523,64.523,0,0,1-4.695-7.513,1.374,1.374,0,0,1,1.281-1.82,1.557,1.557,0,0,1,1.109.568c1.281,1.423,5.863,7.114,6.546,7.8a2.4,2.4,0,0,0,1.393.683c.568,0,.882-.512.228-2.219-1.2-3.159-4.5-10.161-5.15-11.811-.911-2.361.456-2.562.456-2.562a1.5,1.5,0,0,1,.882-.311,1.341,1.341,0,0,1,1.166.8c.825,1.393,5.691,11.185,6.289,12.037.287.429.627.74.884.74.284,0,.453-.34.426-1.2-.056-1.678-.713-11.694-1.109-14.968-.142-1.2,1.109-1.763,1.678-1.82h.056A2.2,2.2,0,0,1-19.713,61.8c.228.71,2.189,13.146,2.39,14.711.113.855.6,1.452,1.053,1.452.37,0,.74-.426.911-1.509C-14.989,74.09-13,64.5-12.8,63.276a1.349,1.349,0,0,1,1.4-1.337A2.662,2.662,0,0,1-10.948,61.995Z" transform="translate(37.656 -60.403)" fill="#fff"/>
        <path id="Caminho_200" data-name="Caminho 200" d="M-28.817,82.111a.624.624,0,0,1,.313.769.584.584,0,0,1-.541.37.653.653,0,0,1-.228-.059,8.958,8.958,0,0,1-3.585-2.873,10.377,10.377,0,0,1-1.766-3.274.582.582,0,0,1,.456-.681.612.612,0,0,1,.713.455,9.152,9.152,0,0,0,1.536,2.816A7.874,7.874,0,0,0-28.817,82.111Z" transform="translate(42.036 -37.292)" fill="#fff"/>
        <path id="Caminho_201" data-name="Caminho 201" d="M-30.352,83.026a.567.567,0,0,1,.257.767.6.6,0,0,1-.512.313.512.512,0,0,1-.284-.056,9.268,9.268,0,0,1-3.274-3.215,9.639,9.639,0,0,1-1.45-3.443.576.576,0,0,1,.539-.627.577.577,0,0,1,.627.512,9.252,9.252,0,0,0,1.281,2.961A8.513,8.513,0,0,0-30.352,83.026Z" transform="translate(40.61 -36.699)" fill="#fff"/>
      </g>
    </g>
    <line id="Linha_16" data-name="Linha 16" x1="63.649" y1="63.649" transform="translate(-7313.967 7818.534)" fill="none" stroke="#3b3231" stroke-miterlimit="10" stroke-width="4"/>
  </g>
</svg>
