<svg id="LIBRAS_on" data-name="LIBRAS on" xmlns="http://www.w3.org/2000/svg" width="36" height="36" viewBox="0 0 36 36">
  <circle id="Elipse_112" data-name="Elipse 112" cx="18" cy="18" r="18" fill="#d4d4d4"/>
  <g id="Grupo_976" data-name="Grupo 976" transform="translate(6.356 5.924)">
    <g id="Grupo_975" data-name="Grupo 975">
      <path id="Caminho_235" data-name="Caminho 235" d="M142.36,78.656a.248.248,0,0,1,.125.308.233.233,0,0,1-.216.148.256.256,0,0,1-.091-.024,3.59,3.59,0,0,1-1.435-1.149,4.159,4.159,0,0,1-.705-1.31.233.233,0,0,1,.182-.272.244.244,0,0,1,.284.182,3.654,3.654,0,0,0,.615,1.127A3.157,3.157,0,0,0,142.36,78.656Z" transform="translate(-137.073 -60.729)" fill="#3b3231"/>
      <path id="Caminho_236" data-name="Caminho 236" d="M140.03,78.152a3.4,3.4,0,0,0,1.127,1.116.228.228,0,0,1,.1.307.24.24,0,0,1-.206.125.208.208,0,0,1-.114-.023,3.7,3.7,0,0,1-1.309-1.286,3.9,3.9,0,0,1-.581-1.377.235.235,0,0,1,.467-.046A3.7,3.7,0,0,0,140.03,78.152Z" transform="translate(-137.053 -60.737)" fill="#3b3231"/>
      <path id="Caminho_237" data-name="Caminho 237" d="M144.646,81.123a.667.667,0,0,1-.091-.9c.228-.308,3.688-4.667,4.235-5.772.523-1.035,1.434-2.652-.273-2.652a3.007,3.007,0,0,0-.319.012c-.671.068-1.161.091-1.513.091A2.423,2.423,0,0,1,145.5,71.7c-.354-.136-.832-.489-.66-.808s1.024-.182,1.377-.307l.353-.125a13.192,13.192,0,0,0,2.526-.968,22.246,22.246,0,0,1,3.779-1.616,4.766,4.766,0,0,1,.831-.069,2.841,2.841,0,0,1,1.047.171,10.973,10.973,0,0,0,2.812,2.06,2.661,2.661,0,0,1,.444,2.538,19.617,19.617,0,0,1-1.32,3.642,7.218,7.218,0,0,0-.318,3.1,25.324,25.324,0,0,1-.1,3.54.509.509,0,0,1-.524.409.549.549,0,0,1-.546-.523c-.115-.751-.376-3.666-.456-4.041-.046-.228-.239-.581-.444-.581-.148,0-.319.182-.433.729-.3,1.32-.751,4.371-.9,5.076-.148.672-.432.774-.592.774a.308.308,0,0,1-.125-.023h-.023a.528.528,0,0,1-.557-.614c.033-.649.58-4.986.569-5.407,0-.251-.069-.456-.194-.456-.079,0-.194.091-.342.319-.353.569-2.344,4.052-2.948,5.236a.581.581,0,0,1-.558.318.927.927,0,0,1-.4-.091.881.881,0,0,1-.285-.842c.091-.3,2.185-4.872,2.459-5.441.182-.375.125-.751-.136-.751a.813.813,0,0,0-.524.33c-.648.706-3.437,3.472-3.768,3.836a.623.623,0,0,1-.444.227A.667.667,0,0,1,144.646,81.123Z" transform="translate(-137.162 -60.554)" fill="#fff"/>
      <path id="Caminho_238" data-name="Caminho 238" d="M160.364,73.485a.228.228,0,0,1-.319.08.238.238,0,0,1-.079-.319,3.671,3.671,0,0,0,.308-1.252,3.27,3.27,0,0,0-.228-1.57.229.229,0,0,1,.1-.308.224.224,0,0,1,.239.023.3.3,0,0,1,.079.091,3.687,3.687,0,0,1,.273,1.81A3.82,3.82,0,0,1,160.364,73.485Z" transform="translate(-137.479 -60.601)" fill="#3b3231"/>
      <path id="Caminho_239" data-name="Caminho 239" d="M158.915,73a3.617,3.617,0,0,0,.182-1.286,3.138,3.138,0,0,0-.375-1.525.24.24,0,0,1,.079-.33.245.245,0,0,1,.262.023c.024.012.034.034.057.069a3.626,3.626,0,0,1,.445,1.776,3.753,3.753,0,0,1-.228,1.479.228.228,0,0,1-.308.1A.233.233,0,0,1,158.915,73Z" transform="translate(-137.454 -60.595)" fill="#3b3231"/>
      <path id="Caminho_240" data-name="Caminho 240" d="M142.731,67.3c.114.171.251.3.353.3s.182-.136.171-.478c-.024-.671-.285-4.678-.445-5.987-.057-.478.445-.705.672-.728h.023a.88.88,0,0,1,.683.557c.091.284.877,5.258.956,5.884.046.342.239.581.421.581.148,0,.3-.17.364-.6.148-.944.945-4.78,1.025-5.27a.539.539,0,0,1,.557-.535,1.052,1.052,0,0,1,.182.023.664.664,0,0,1,.569.695c-.023.364-.421,5.2-.353,6.841a16.075,16.075,0,0,1-1.787.626l-.046.011-.057.012-.308.114c-.057.012-.17.012-.239.023a1.921,1.921,0,0,0-1.8.842,1.416,1.416,0,0,0-.068,1.2,2.332,2.332,0,0,0,1.331,1.219c.024.011.034.011.057.023a3.568,3.568,0,0,0,1.537.262c.409,0,.911-.034,1.548-.091-.114.285-.284.615-.375.808l-.091.171a36.135,36.135,0,0,1-2.562,3.563,6.735,6.735,0,0,0-.728-.034,7.5,7.5,0,0,0-1.252.1,2.65,2.65,0,0,1-1.776-1.855,20.01,20.01,0,0,1-.922-3.768,7.046,7.046,0,0,0-1.446-2.755,25.807,25.807,0,0,1-1.878-3.005.549.549,0,0,1,.512-.728.623.623,0,0,1,.444.227c.512.569,2.344,2.846,2.617,3.119a.962.962,0,0,0,.558.273c.227,0,.353-.2.091-.888-.478-1.264-1.8-4.064-2.061-4.725-.363-.944.182-1.025.182-1.025a.6.6,0,0,1,.354-.124.536.536,0,0,1,.466.318C140.545,63.043,142.492,66.959,142.731,67.3Z" transform="translate(-137.011 -60.403)" fill="#fff"/>
    </g>
  </g>
</svg>
