<svg xmlns="http://www.w3.org/2000/svg" width="90" height="90" viewBox="0 0 90 90">
  <g id="Camada_3" data-name="Camada 3" transform="translate(-9.023 -7.317)">
    <g id="Grupo_979" data-name="Grupo 979" transform="translate(9.023 7.317)">
      <g id="Grupo_978" data-name="Grupo 978">
        <path id="Caminho_243" data-name="Caminho 243" d="M99.023,51.474A44.988,44.988,0,1,1,42.775,7.9V21.848h22.5V7.9A45.039,45.039,0,0,1,99.023,51.474Z" transform="translate(-9.023 -6.474)" fill="#3b3231"/>
        <path id="Caminho_244" data-name="Caminho 244" d="M31.522,87.732a44.98,44.98,0,0,1-22.5-38.978h0a44.983,44.983,0,0,1,22.5-38.978" transform="translate(-9.023 -3.754)" fill="#de3c3c"/>
        <path id="Caminho_245" data-name="Caminho 245" d="M36.587,87.732a44.978,44.978,0,0,0,22.5-38.978h0a44.978,44.978,0,0,0-22.5-38.978" transform="translate(30.917 -3.754)" fill="#de3c3c"/>
        <path id="Caminho_246" data-name="Caminho 246" d="M43.243,12.107V90.078a45.1,45.1,0,0,1-11.251,4.6V81.467h2.251V8.162A44.515,44.515,0,0,1,43.243,12.107Z" transform="translate(24.259 -6.093)" fill="#00a6c4"/>
        <path id="Caminho_247" data-name="Caminho 247" d="M18.21,12.107V90.078a45.1,45.1,0,0,0,11.251,4.6V81.467H27.21V8.162A44.515,44.515,0,0,0,18.21,12.107Z" transform="translate(4.289 -6.093)" fill="#00a6c4"/>
        <path id="Caminho_248" data-name="Caminho 248" d="M63.461,38.1h0Z" transform="translate(4.29 37.28)" fill="#6a5f5b"/>
        <path id="Caminho_249" data-name="Caminho 249" d="M61.71,38.1l1.5,8.611a45.092,45.092,0,0,1-45,0l1.5-8.611Z" transform="translate(4.29 37.28)" fill="#3b3231"/>
        <g id="Retângulo_669" data-name="Retângulo 669" transform="translate(24.001 66.375)" fill="#fff" stroke="#3b3231" stroke-miterlimit="10" stroke-width="0.5">
          <rect width="42" height="9" stroke="none"/>
          <rect x="0.25" y="0.25" width="41.5" height="8.5" fill="none"/>
        </g>
        <g id="Retângulo_670" data-name="Retângulo 670" transform="translate(25.501 57.375)" fill="#fff" stroke="#3b3231" stroke-miterlimit="10" stroke-width="0.5">
          <rect width="39" height="9" stroke="none"/>
          <rect x="0.25" y="0.25" width="38.5" height="8.5" fill="none"/>
        </g>
        <g id="Retângulo_671" data-name="Retângulo 671" transform="translate(27.001 48.375)" fill="#fff" stroke="#3b3231" stroke-miterlimit="10" stroke-width="0.5">
          <rect width="36" height="9" stroke="none"/>
          <rect x="0.25" y="0.25" width="35.5" height="8.5" fill="none"/>
        </g>
        <g id="Retângulo_672" data-name="Retângulo 672" transform="translate(28.501 39.375)" fill="#fff" stroke="#3b3231" stroke-miterlimit="10" stroke-width="0.5">
          <rect width="33" height="9" stroke="none"/>
          <rect x="0.25" y="0.25" width="32.5" height="8.5" fill="none"/>
        </g>
        <g id="Retângulo_673" data-name="Retângulo 673" transform="translate(30.001 30.375)" fill="#fff" stroke="#3b3231" stroke-miterlimit="10" stroke-width="0.5">
          <rect width="30" height="9" stroke="none"/>
          <rect x="0.25" y="0.25" width="29.5" height="8.5" fill="none"/>
        </g>
        <g id="Retângulo_674" data-name="Retângulo 674" transform="translate(31.499 21.375)" fill="#fff" stroke="#3b3231" stroke-miterlimit="10" stroke-width="0.5">
          <rect width="27.002" height="9" stroke="none"/>
          <rect x="0.25" y="0.25" width="26.502" height="8.5" fill="none"/>
        </g>
        <path id="Caminho_250" data-name="Caminho 250" d="M45.3,8.742V22.692h-22.5V8.742h.015a44.99,44.99,0,0,1,22.469,0Z" transform="translate(10.947 -7.317)" fill="#3b3231"/>
        <path id="Caminho_251" data-name="Caminho 251" d="M35.361,30.745v9h1.5Z" transform="translate(29.14 26.63)" fill="#415895"/>
        <path id="Caminho_252" data-name="Caminho 252" d="M35.973,34.42v9l1.5,8.6,0-8.6Z" transform="translate(30.028 31.955)" fill="#415895"/>
        <path id="Caminho_253" data-name="Caminho 253" d="M19.712,34.42v9l-1.5,8.6,0-8.6Z" transform="translate(4.289 31.955)" fill="#415895"/>
        <path id="Caminho_254" data-name="Caminho 254" d="M34.748,27.07v9h1.5Z" transform="translate(28.253 21.305)" fill="#415895"/>
        <path id="Caminho_255" data-name="Caminho 255" d="M34.136,23.4v9h1.5Z" transform="translate(27.365 15.98)" fill="#415895"/>
        <path id="Caminho_256" data-name="Caminho 256" d="M33.523,19.72v9h1.5Z" transform="translate(26.478 10.655)" fill="#415895"/>
        <path id="Caminho_257" data-name="Caminho 257" d="M32.911,16.045v9h1.5Z" transform="translate(25.59 5.33)" fill="#415895"/>
        <path id="Caminho_258" data-name="Caminho 258" d="M20.323,30.745v9h-1.5Z" transform="translate(5.178 26.63)" fill="#415895"/>
        <path id="Caminho_259" data-name="Caminho 259" d="M20.936,27.07v9h-1.5Z" transform="translate(6.065 21.305)" fill="#415895"/>
        <path id="Caminho_260" data-name="Caminho 260" d="M21.548,23.4v9h-1.5Z" transform="translate(6.953 15.98)" fill="#415895"/>
        <path id="Caminho_261" data-name="Caminho 261" d="M22.161,19.72v9h-1.5Z" transform="translate(7.84 10.655)" fill="#415895"/>
        <path id="Caminho_262" data-name="Caminho 262" d="M22.773,16.045v9h-1.5Z" transform="translate(8.728 5.33)" fill="#415895"/>
      </g>
      <line id="Linha_20" data-name="Linha 20" x2="0.002" y2="77.956" transform="translate(67.502 6.022)" fill="none" stroke="#a43338" stroke-miterlimit="10" stroke-width="0.25"/>
      <line id="Linha_21" data-name="Linha 21" x2="0.002" y2="77.956" transform="translate(22.498 6.022)" fill="none" stroke="#a43338" stroke-miterlimit="10" stroke-width="0.25"/>
    </g>
  </g>
</svg>
